M48
;Layer_Color=9474304
;FILE_FORMAT=2:5
INCH,LZ
;TYPE=PLATED
T1F00S00C0.01181
T2F00S00C0.01280
T3F00S00C0.01300
T4F00S00C0.03504
T5F00S00C0.03937
T6F00S00C0.04000
T7F00S00C0.06181
T8F00S00C0.06496
T9F00S00C0.12008
T10F00S00C0.12795
T11F00S00C0.13000
T12F00S00C0.14016
%
T01
X-02775Y-01355
X-02405Y-01305
X-023Y-01425
X-02175Y-013
X-0193749Y-0134
X-0178698Y-014
X-02125Y-0172
X-02225Y-017
X-0172Y-02125
X-01575Y-02175
X-015Y-02
X-0127Y-0197926
X-0111Y-0198
X-0118Y-01865
X-0113Y-0157
X-0099Y-01555
X-00965Y-013
X-01165
X-0067
X-00525Y-0145
X-00475
X-005Y-016
X-0045
X-002625Y-0165551
X-003Y-0187
X-0045Y-0189
X-0038Y-02175
X-0028106Y-0225106
X-0042529Y-0230959
X-006Y-02425
X-00625Y-026
X-0078Y-0263
X-0035Y-02775
X-00285Y-0273
X0Y-02
X-00045Y-01415
X0005
X-01305Y-02405
X-014Y-02425
X00375Y-02475
X00425Y-0265
X0029Y-0272
X00725Y-027
X0078Y-0263
X0049478Y-0230077
X00485Y-0215
X0061Y-0218
X0044Y-01835
X003375Y-0175551
X0031Y-0192
X0035Y-01375
X004
X0075Y-0156
X0106Y-0155
X0101Y-0166
X01275Y-01795
X014Y-0178
X0134Y-0193749
X013Y-02175
X0131Y-02405
X01425Y-023
X017Y-022
X01725Y-0213
X0213Y-01725
X02175Y-01575
X02025Y-015
X02425Y-01375
X0241Y-0131
X02735Y-01375
X02475Y-01265
X02515Y-0097
X0235Y-00925
X0232Y-00945
X023Y-00975
X02276Y-01025
X02135Y-01005
X0198Y-0111
X01975Y-0128386
X01865Y-01185
X0189Y-0043
X01865Y-0028
Y-00155
Y-00115
X01935
Y-00155
X019Y-0018
X0171
X01675Y-0008
X02125Y-001
X02095Y00035
X0225Y-0027
X0218Y-0038
X0231564Y-0042
X02425Y-00625
X02625
X0263Y-0078
X02645Y-00855
X0235Y-00875
X02905Y-00965
X02775Y-0035
X02725Y-00285
X02525Y0015
X01475Y00155
X01435Y0009
X01275Y00125
X01175Y0014
X0127Y-00135
Y-0023
X0124Y-0028671
X01225Y-0054
X01255Y-0066
X0146Y-0062
X01375Y-0052
X016Y-0053073
X0166Y-00715
X0159555Y-0082537
X0159Y-0099
X0157Y-0113
X01155Y-0103
X0108Y-00915
X01005Y-0089
X0097Y-00955
X01015Y-0108
X0082Y-00995
X00695Y-01075
X00445
X0046464Y-0113964
X005Y-01175
X00275Y-01135
Y-0105
X0024Y-01075
X002Y-00975
X0015Y-01
Y-00925
X00225Y-007
X002Y-00675
X00225Y-0065
X002Y-006
X00175Y-00575
X0022Y-00545
X00335Y-006
X0036Y-0065
X00385Y-00675
X00435Y-007
X00475
X005225Y-007225
X00575Y-00575
X00465
X00415Y-00425
X0039Y-004
Y-00325
X00415Y-003
X00465Y-0024
X0053
X0053051Y-001625
X0041Y-0013
X00375Y-0005
X004Y-00025
Y0005
Y001
X00395Y0016
X0053051Y001375
Y000625
X0055Y00225
X0065Y0025
X008
X00775Y0015
Y0005
X00725
X00225Y-0005
X002Y-00075
Y002
Y-00375
X0011Y-00385
X0036Y-0024
X00415Y-00965
X0075Y-00675
X00775Y-0065
X0107Y-00745
X0106Y-00775
X0109Y-0129
X008Y-0124
X0083Y-01205
X01495Y-0031
X0164Y-0018
X0003937Y-0024563
X-00035Y-0037
X-001Y-00375
X-00155Y-00395
X-0027Y-004
X-0035
X-004
X-00425Y-00475
X-004Y-00625
Y-00675
X-00375Y-0065
Y-006
X-00265
Y-0065
Y-007
X-0029Y-00675
Y-00625
Y-00575
X-00125
X-0014976Y-006
X-00125Y-00625
X-001Y-0065
X-00075Y-00675
X-0004Y-0068
X-0003Y-00545
X-00095
X-0017Y-0052
X00035Y-00545
X00095
X0005Y-00745
Y-009
X-001Y-0090551
X-00055Y-0106
X-0003083Y-0108417
X0Y-011
X00025Y-01125
X0005Y-0115
X0008Y-01235
X-000689Y-012311
X-0024Y-01135
X-0023Y-0103
X-00325Y-009
X-004Y-00925
X-003625Y-0076949
X-0021Y-0077
X-00575Y-0075
X-00525Y-00675
Y-00625
Y-00575
X-0055Y-006
Y-0065
X-00825Y-007376
Y-008
X-01025Y-007376
X-00965Y-011
X-01165
X-0144Y-0101
X-0136Y-0028
X-0131Y-0023
X-01305Y-001
X-0129Y-0006
X-01305Y-00025
X-01235Y-00075
X-01155Y-0015
X-00975
Y-0035
X-01155
Y0005
X-00975
Y0025
X-01155
X-01345Y00115
X-0053Y0011
X-0053051Y001875
X-0039Y001
X-00375Y00055
X-004Y00025
X-00425Y0
X-004Y-00025
X-00425Y-0005
X-004Y-00075
X-00425Y-001
X-00385Y-0014
X-003825Y-002475
X-00415Y-00225
X-00425Y-00285
X-00375Y-003
X-003Y-0035
X-0059Y-0028
X-0055Y-0023
X-00575Y-0015
X-002Y-00075
Y-00025
Y00025
X-00175Y0
Y-0005
Y-001
X-0005Y-0005
X0005
Y0005
X-0005
X-00243Y0013398
X-00475Y-01075
X-00575Y-01
X-00605Y-00975
X-0065Y-01095
X-00625Y-01125
X-006Y-0115
X-0151Y-0111
X-01475Y-0095
X-0163Y-0103
X-0178Y-0082
X-01885Y-008
X-0185Y-007
X-01905Y-00655
X-01835Y-00585
Y-00445
X-0189Y-0032
X-0188543Y-0014457
X-01975Y-0000984
X-0196Y00025
X-0208602Y-0004398
X-016561Y-000861
X-0158043Y-0016043
X-01475Y-00175
Y-00125
Y-00025
X-01735Y00085
X-01525Y-0035
Y-00575
X-01575
Y-007
X-01525
X-0218Y-0061
X-0216Y-0048
X-0230073Y-00495
X-025Y-00375
X-02675Y-00425
X-0272Y-00285
X-027Y-00725
X-02625Y-00775
X-0224Y-0092624
X-0181Y-0127
X-028Y-01275
X-02725Y0029
X-02825Y00425
X-02625Y00625
X-0262Y0078
X-0245Y00625
X-02315Y0042
X-0218Y0038
X-0225Y00275
X-0185
X-01875Y00425
X-0185Y0057
Y00685
X-0188431Y0080082
X-01865Y0118
X-0198Y0111
X-0197926Y0127
X-02025Y015
X-02175Y01575
X-0213Y01725
X-02425Y014
X-0241Y0131
X-0224Y00925
X-0292Y01005
X-02885Y0108
X-01575Y01025
X-0157Y0114
X-0149Y00545
X-01645Y0035861
Y002876
X-0138Y00425
X-01325Y005
X-0129
X-01275Y0063
X-01325Y0061
X-014Y00625
X-01355Y00775
X-01155Y0045
X-00975
X-0093Y0093
X-01025Y01025
X-008Y01125
X-00725
Y01275
X-00775Y013
X-0109Y0153
X-0102Y0165
X-0127Y01805
X-014Y0179
X-0034Y01655
X-00265
X0Y0182
X-00035Y0143
X-00075Y0139
X00085Y014
X00015Y0125
X-00075Y012
X-00065Y0115
X0005Y01125
X00025Y011
X0Y01075
X00035Y00925
X00075
X-00035Y0092
X-0007Y00905
X-0005Y0073
X-0007Y00545
X00025
X001
X0Y004
Y00355
X-00075Y00385
X-00175Y00395
X-0019Y0054
X-0035Y0056
Y00355
X-004876Y00725
X-0044Y0095
X-0035Y01005
X-003Y0105
X-00275Y01075
X-00235Y011
X-003Y01125
X0009Y01185
X0026Y011
X00285Y01075
X0031Y0105
X00225Y01025
X00195Y0101
X0014Y0094
X002125Y0076949
X00225Y007
X0025Y00675
X00275Y0065
X0019
X00215Y0062
X00225Y00545
X00245Y00385
X00215Y0037
X00115Y00385
X0016Y0068
X00325Y00725
X004Y007
X00425Y00675
X0045Y0065
X00575Y00525
X00525Y0045
X005Y00425
X00675Y0045
X007Y00425
X00775Y00475
X0093Y00425
X009Y0037
X00825Y00275
X00625
X01125Y0035571
X01175Y0047
X01275Y00495
X01325Y003626
X0159Y00315
X0151Y00965
Y0111
X0164Y0103
X0136Y0091
X01205Y00845
X01005Y00895
X0105Y0105
X0109Y0116
X00975Y012
X0082361Y0123361
X0084Y0135
X0071069Y0134822
X0057Y0137
X0065Y0145
X00475Y0155
X0045Y01575
X00265Y01655
X0025Y015
X002
X0058Y0119
X00515Y00975
X007Y00875
X00725Y0085
X0075Y00825
X008Y0106
X00995Y00625
X01095
X01025Y005
X00975Y00525
X0098Y0161
X0112Y0158
X0178Y014
X0181Y01275
X01935Y0134373
X02175Y013
X023Y014
X02405Y01305
X02415Y01025
X02435Y0098
X025Y0101
X0248Y01055
X0265Y01095
X02725Y01125
X027Y0075
X02625Y0078
X02675Y00425
X02725Y0029
X02475Y0035
X023Y0049865
X02155Y00485
X0218166Y0061
X02175Y009
X0207Y0086
X0184Y00685
X0176Y00605
X0173Y005
X0186Y00365
X0195Y003
X0213Y01725
X022Y017
X0172Y02125
X01575Y02175
X01525Y02025
X01275Y0197592
X0111Y0197
X01185Y0187
X0131Y02405
X01375Y02425
X00625
Y026
X00775Y0263
X0035Y02775
X0029Y0272
X0027Y0225
X00385Y0218
X00425Y0231465
X0043Y0189
X0031Y01855
X0Y01955
X-0032Y0191
X-0042Y01835
X-00485Y02155
X-0061Y0218
X-00495Y0230073
X-0035Y025
X-00425Y0265
X-0029Y02725
X-00725Y027
X-00775Y0263
X-0131Y0241
X-014Y02275
X-013Y02175
X-0133Y0194083
X-0173Y02135
X-017Y02225
T02
X-002125Y-0083051
X0196568Y0083
T03
X0228Y-0081
X0141Y-0114
X0136Y-0113
X01245Y-0103
X0109Y-0115
T04
X-0220559Y-0156393
X-0226115Y-0148078
X-0215022Y-014668
X-0220578Y-0138365
X-0150837Y-0212245
X-0152236Y-0223337
X-0143921Y-0228893
X-0142523Y-02178
X-0058133Y-0253811
X-0048325Y-0255762
X-0045372Y-0266546
X-005518Y-0264595
X0050276Y-026557
X0060084Y-0263619
X0053229Y-0254787
X0043421Y-0256738
X0138365Y-0220578
X014668Y-0215022
X0148078Y-0226115
X0156393Y-0220559
X0212245Y-0150837
X0223337Y-0152236
X0228893Y-0143921
X02178Y-0142523
X0253811Y-0058133
X0255762Y-0048325
X0266546Y-0045372
X0264595Y-005518
X0Y0
X-0256738Y-0043421
X-0254787Y-0053229
X-026557Y-0050276
X-0263619Y-0060084
X-0266546Y0045372
X-0264595Y005518
X-0253811Y0058133
X-0255762Y0048325
X-0228893Y0143921
X-02178Y0142523
X-0212245Y0150837
X-0223337Y0152236
X0215022Y014668
X0226115Y0148078
X0220559Y0156393
X0220578Y0138365
X0254787Y0053229
X0256738Y0043421
X026557Y0050276
X0263619Y0060084
X0150837Y0212245
X0152236Y0223337
X0143921Y0228893
X0142523Y02178
X0058133Y0253811
X0048325Y0255762
X0045372Y0266546
X005518Y0264595
X-0050276Y026557
X-0060084Y0263619
X-0053229Y0254787
X-0043421Y0256738
X-0138366Y0220578
X-0146681Y0215022
X-0148079Y0226115
X-0156394Y0220559
T05
X0264974Y-0119131
X0271603Y-0103127
T06
X-0009Y-0278
X-028Y-001
X001Y02775
T07
X0033459Y-0306648
X0086437Y-029611
X-0033459Y-0306648
X-0086437Y-029611
X-0148261Y-0270502
X-0193174Y-0240492
X-0240492Y-0193174
X-0270502Y-0148261
X0148261Y-0270502
X0193174Y-0240492
X0240492Y-0193174
X0270502Y-0148261
X029611Y-0086437
X0306648Y-0033459
X-029611Y-0086437
X-0306648Y-0033459
X-0306648Y0033459
X-029611Y0086437
X-0270502Y0148261
X0270502Y0148261
X029611Y0086437
X0306648Y0033459
X0240492Y0193174
X0193174Y0240492
X0148261Y0270502
X0086437Y029611
X0033459Y0306648
X-0033459
X-0086437Y029611
X-0148262Y0270502
X-0193175Y0240492
X-0240492Y0193174
T08
X-0283463Y-0117547
X-0258001Y-0107001
X-0258Y0107
X-0283461Y0117546
T09
X0297Y0
X0284205Y0018898
T10
X003799Y-0293504
X0077221Y-02857
X-003799Y-0293504
X-0077221Y-02857
X-0147417Y-0256624
X-0180676Y-0234401
X-0234401Y-0180676
X-0256624Y-0147417
X0147417Y-0256624
X0180676Y-0234401
X0234401Y-0180676
X0256624Y-0147417
X02857Y-0077221
X0293504Y-003799
X-0293504Y-003799
X-02857Y-0077221
X-0293504Y003799
X-02857Y0077221
X-0256624Y0147417
X-0234401Y0180676
X0234401Y0180676
X0256624Y0147417
X02857Y0077221
X0293504Y003799
X0180676Y0234401
X0147417Y0256624
X0077221Y02857
X003799Y0293504
X-003799Y0293504
X-0077221Y02857
X-0147418Y0256624
X-0180677Y0234401
T11
X-021Y-021
X021
Y021
X-021Y021
T12
X0272394Y0
M30
