G04 Layer_Color=8388736*
%FSLAX25Y25*%
%MOIN*%
G70*
G01*
G75*
%ADD103C,0.03500*%
%ADD131C,0.02500*%
%ADD132C,0.03000*%
%ADD133C,0.07000*%
%ADD134C,0.04724*%
G04:AMPARAMS|DCode=142|XSize=47.37mil|YSize=49.34mil|CornerRadius=0mil|HoleSize=0mil|Usage=FLASHONLY|Rotation=247.500|XOffset=0mil|YOffset=0mil|HoleType=Round|Shape=Rectangle|*
%AMROTATEDRECTD142*
4,1,4,-0.01373,0.03132,0.03186,0.01244,0.01373,-0.03132,-0.03186,-0.01244,-0.01373,0.03132,0.0*
%
%ADD142ROTATEDRECTD142*%

G04:AMPARAMS|DCode=143|XSize=47.37mil|YSize=49.34mil|CornerRadius=0mil|HoleSize=0mil|Usage=FLASHONLY|Rotation=146.250|XOffset=0mil|YOffset=0mil|HoleType=Round|Shape=Rectangle|*
%AMROTATEDRECTD143*
4,1,4,0.03340,0.00735,0.00599,-0.03367,-0.03340,-0.00735,-0.00599,0.03367,0.03340,0.00735,0.0*
%
%ADD143ROTATEDRECTD143*%

G04:AMPARAMS|DCode=144|XSize=25.69mil|YSize=108.36mil|CornerRadius=0mil|HoleSize=0mil|Usage=FLASHONLY|Rotation=67.500|XOffset=0mil|YOffset=0mil|HoleType=Round|Shape=Rectangle|*
%AMROTATEDRECTD144*
4,1,4,0.04514,-0.03260,-0.05497,0.00887,-0.04514,0.03260,0.05497,-0.00887,0.04514,-0.03260,0.0*
%
%ADD144ROTATEDRECTD144*%

G04:AMPARAMS|DCode=145|XSize=98.55mil|YSize=102.49mil|CornerRadius=0mil|HoleSize=0mil|Usage=FLASHONLY|Rotation=157.500|XOffset=0mil|YOffset=0mil|HoleType=Round|Shape=Rectangle|*
%AMROTATEDRECTD145*
4,1,4,0.06514,0.02849,0.02592,-0.06620,-0.06514,-0.02849,-0.02592,0.06620,0.06514,0.02849,0.0*
%
%ADD145ROTATEDRECTD145*%

%ADD146R,0.06109X0.01187*%
%ADD147R,0.19698X0.19698*%
%ADD148R,0.01187X0.06109*%
G04:AMPARAMS|DCode=149|XSize=47.37mil|YSize=49.34mil|CornerRadius=0mil|HoleSize=0mil|Usage=FLASHONLY|Rotation=101.250|XOffset=0mil|YOffset=0mil|HoleType=Round|Shape=Rectangle|*
%AMROTATEDRECTD149*
4,1,4,0.02882,-0.01842,-0.01958,-0.02804,-0.02882,0.01842,0.01958,0.02804,0.02882,-0.01842,0.0*
%
%ADD149ROTATEDRECTD149*%

G04:AMPARAMS|DCode=150|XSize=74mil|YSize=82mil|CornerRadius=0mil|HoleSize=0mil|Usage=FLASHONLY|Rotation=101.250|XOffset=0mil|YOffset=0mil|HoleType=Round|Shape=Rectangle|*
%AMROTATEDRECTD150*
4,1,4,0.04743,-0.02829,-0.03299,-0.04429,-0.04743,0.02829,0.03299,0.04429,0.04743,-0.02829,0.0*
%
%ADD150ROTATEDRECTD150*%

%ADD151R,0.06115X0.05524*%
%ADD152R,0.04737X0.04934*%
G04:AMPARAMS|DCode=153|XSize=61.15mil|YSize=55.24mil|CornerRadius=0mil|HoleSize=0mil|Usage=FLASHONLY|Rotation=146.250|XOffset=0mil|YOffset=0mil|HoleType=Round|Shape=Rectangle|*
%AMROTATEDRECTD153*
4,1,4,0.04077,0.00598,0.01008,-0.03995,-0.04077,-0.00598,-0.01008,0.03995,0.04077,0.00598,0.0*
%
%ADD153ROTATEDRECTD153*%

%ADD154R,0.04934X0.04737*%
G04:AMPARAMS|DCode=155|XSize=29.13mil|YSize=40.95mil|CornerRadius=0mil|HoleSize=0mil|Usage=FLASHONLY|Rotation=213.750|XOffset=0mil|YOffset=0mil|HoleType=Round|Shape=Rectangle|*
%AMROTATEDRECTD155*
4,1,4,0.00074,0.02512,0.02349,-0.00893,-0.00074,-0.02512,-0.02349,0.00893,0.00074,0.02512,0.0*
%
%ADD155ROTATEDRECTD155*%

G04:AMPARAMS|DCode=156|XSize=29.65mil|YSize=69.02mil|CornerRadius=0mil|HoleSize=0mil|Usage=FLASHONLY|Rotation=213.750|XOffset=0mil|YOffset=0mil|HoleType=Round|Shape=Rectangle|*
%AMROTATEDRECTD156*
4,1,4,-0.00685,0.03693,0.03150,-0.02046,0.00685,-0.03693,-0.03150,0.02046,-0.00685,0.03693,0.0*
%
%ADD156ROTATEDRECTD156*%

G04:AMPARAMS|DCode=157|XSize=29.65mil|YSize=69.02mil|CornerRadius=0mil|HoleSize=0mil|Usage=FLASHONLY|Rotation=258.750|XOffset=0mil|YOffset=0mil|HoleType=Round|Shape=Rectangle|*
%AMROTATEDRECTD157*
4,1,4,-0.03096,0.02128,0.03674,0.00781,0.03096,-0.02128,-0.03674,-0.00781,-0.03096,0.02128,0.0*
%
%ADD157ROTATEDRECTD157*%

G04:AMPARAMS|DCode=158|XSize=29.65mil|YSize=69.02mil|CornerRadius=0mil|HoleSize=0mil|Usage=FLASHONLY|Rotation=281.250|XOffset=0mil|YOffset=0mil|HoleType=Round|Shape=Rectangle|*
%AMROTATEDRECTD158*
4,1,4,-0.03674,0.00781,0.03096,0.02128,0.03674,-0.00781,-0.03096,-0.02128,-0.03674,0.00781,0.0*
%
%ADD158ROTATEDRECTD158*%

G04:AMPARAMS|DCode=159|XSize=47.37mil|YSize=49.34mil|CornerRadius=0mil|HoleSize=0mil|Usage=FLASHONLY|Rotation=11.250|XOffset=0mil|YOffset=0mil|HoleType=Round|Shape=Rectangle|*
%AMROTATEDRECTD159*
4,1,4,-0.01842,-0.02882,-0.02804,0.01958,0.01842,0.02882,0.02804,-0.01958,-0.01842,-0.02882,0.0*
%
%ADD159ROTATEDRECTD159*%

G04:AMPARAMS|DCode=160|XSize=90.68mil|YSize=126.11mil|CornerRadius=0mil|HoleSize=0mil|Usage=FLASHONLY|Rotation=11.250|XOffset=0mil|YOffset=0mil|HoleType=Round|Shape=Rectangle|*
%AMROTATEDRECTD160*
4,1,4,-0.03217,-0.07069,-0.05677,0.05300,0.03217,0.07069,0.05677,-0.05300,-0.03217,-0.07069,0.0*
%
%ADD160ROTATEDRECTD160*%

G04:AMPARAMS|DCode=161|XSize=47.37mil|YSize=49.34mil|CornerRadius=0mil|HoleSize=0mil|Usage=FLASHONLY|Rotation=123.750|XOffset=0mil|YOffset=0mil|HoleType=Round|Shape=Rectangle|*
%AMROTATEDRECTD161*
4,1,4,0.03367,-0.00599,-0.00735,-0.03340,-0.03367,0.00599,0.00735,0.03340,0.03367,-0.00599,0.0*
%
%ADD161ROTATEDRECTD161*%

G04:AMPARAMS|DCode=162|XSize=29.65mil|YSize=69.02mil|CornerRadius=0mil|HoleSize=0mil|Usage=FLASHONLY|Rotation=303.750|XOffset=0mil|YOffset=0mil|HoleType=Round|Shape=Rectangle|*
%AMROTATEDRECTD162*
4,1,4,-0.03693,-0.00685,0.02046,0.03150,0.03693,0.00685,-0.02046,-0.03150,-0.03693,-0.00685,0.0*
%
%ADD162ROTATEDRECTD162*%

G04:AMPARAMS|DCode=163|XSize=47.37mil|YSize=49.34mil|CornerRadius=0mil|HoleSize=0mil|Usage=FLASHONLY|Rotation=213.750|XOffset=0mil|YOffset=0mil|HoleType=Round|Shape=Rectangle|*
%AMROTATEDRECTD163*
4,1,4,0.00599,0.03367,0.03340,-0.00735,-0.00599,-0.03367,-0.03340,0.00735,0.00599,0.03367,0.0*
%
%ADD163ROTATEDRECTD163*%

G04:AMPARAMS|DCode=164|XSize=90.68mil|YSize=126.11mil|CornerRadius=0mil|HoleSize=0mil|Usage=FLASHONLY|Rotation=33.750|XOffset=0mil|YOffset=0mil|HoleType=Round|Shape=Rectangle|*
%AMROTATEDRECTD164*
4,1,4,-0.00267,-0.07762,-0.07273,0.02724,0.00267,0.07762,0.07273,-0.02724,-0.00267,-0.07762,0.0*
%
%ADD164ROTATEDRECTD164*%

G04:AMPARAMS|DCode=165|XSize=18.95mil|YSize=60.24mil|CornerRadius=0mil|HoleSize=0mil|Usage=FLASHONLY|Rotation=236.250|XOffset=0mil|YOffset=0mil|HoleType=Round|Shape=Round|*
%AMOVALD165*
21,1,0.04129,0.01895,0.00000,0.00000,326.3*
1,1,0.01895,-0.01716,0.01147*
1,1,0.01895,0.01716,-0.01147*
%
%ADD165OVALD165*%

G04:AMPARAMS|DCode=166|XSize=47.37mil|YSize=49.34mil|CornerRadius=0mil|HoleSize=0mil|Usage=FLASHONLY|Rotation=168.750|XOffset=0mil|YOffset=0mil|HoleType=Round|Shape=Rectangle|*
%AMROTATEDRECTD166*
4,1,4,0.02804,0.01958,0.01842,-0.02882,-0.02804,-0.01958,-0.01842,0.02882,0.02804,0.01958,0.0*
%
%ADD166ROTATEDRECTD166*%

G04:AMPARAMS|DCode=167|XSize=29.65mil|YSize=69.02mil|CornerRadius=0mil|HoleSize=0mil|Usage=FLASHONLY|Rotation=326.250|XOffset=0mil|YOffset=0mil|HoleType=Round|Shape=Rectangle|*
%AMROTATEDRECTD167*
4,1,4,-0.03150,-0.02046,0.00685,0.03693,0.03150,0.02046,-0.00685,-0.03693,-0.03150,-0.02046,0.0*
%
%ADD167ROTATEDRECTD167*%

G04:AMPARAMS|DCode=168|XSize=90.68mil|YSize=126.11mil|CornerRadius=0mil|HoleSize=0mil|Usage=FLASHONLY|Rotation=56.250|XOffset=0mil|YOffset=0mil|HoleType=Round|Shape=Rectangle|*
%AMROTATEDRECTD168*
4,1,4,0.02724,-0.07273,-0.07762,-0.00267,-0.02724,0.07273,0.07762,0.00267,0.02724,-0.07273,0.0*
%
%ADD168ROTATEDRECTD168*%

G04:AMPARAMS|DCode=169|XSize=47.37mil|YSize=49.34mil|CornerRadius=0mil|HoleSize=0mil|Usage=FLASHONLY|Rotation=56.250|XOffset=0mil|YOffset=0mil|HoleType=Round|Shape=Rectangle|*
%AMROTATEDRECTD169*
4,1,4,0.00735,-0.03340,-0.03367,-0.00599,-0.00735,0.03340,0.03367,0.00599,0.00735,-0.03340,0.0*
%
%ADD169ROTATEDRECTD169*%

G04:AMPARAMS|DCode=170|XSize=15.75mil|YSize=42.91mil|CornerRadius=0mil|HoleSize=0mil|Usage=FLASHONLY|Rotation=67.500|XOffset=0mil|YOffset=0mil|HoleType=Round|Shape=Rectangle|*
%AMROTATEDRECTD170*
4,1,4,0.01681,-0.01549,-0.02284,0.00094,-0.01681,0.01549,0.02284,-0.00094,0.01681,-0.01549,0.0*
%
%ADD170ROTATEDRECTD170*%

G04:AMPARAMS|DCode=171|XSize=61.15mil|YSize=55.24mil|CornerRadius=0mil|HoleSize=0mil|Usage=FLASHONLY|Rotation=247.500|XOffset=0mil|YOffset=0mil|HoleType=Round|Shape=Rectangle|*
%AMROTATEDRECTD171*
4,1,4,-0.01382,0.03882,0.03722,0.01768,0.01382,-0.03882,-0.03722,-0.01768,-0.01382,0.03882,0.0*
%
%ADD171ROTATEDRECTD171*%

G04:AMPARAMS|DCode=172|XSize=29.65mil|YSize=69.02mil|CornerRadius=0mil|HoleSize=0mil|Usage=FLASHONLY|Rotation=348.750|XOffset=0mil|YOffset=0mil|HoleType=Round|Shape=Rectangle|*
%AMROTATEDRECTD172*
4,1,4,-0.02128,-0.03096,-0.00781,0.03674,0.02128,0.03096,0.00781,-0.03674,-0.02128,-0.03096,0.0*
%
%ADD172ROTATEDRECTD172*%

G04:AMPARAMS|DCode=173|XSize=90.68mil|YSize=126.11mil|CornerRadius=0mil|HoleSize=0mil|Usage=FLASHONLY|Rotation=78.750|XOffset=0mil|YOffset=0mil|HoleType=Round|Shape=Rectangle|*
%AMROTATEDRECTD173*
4,1,4,0.05300,-0.05677,-0.07069,-0.03217,-0.05300,0.05677,0.07069,0.03217,0.05300,-0.05677,0.0*
%
%ADD173ROTATEDRECTD173*%

G04:AMPARAMS|DCode=174|XSize=47.37mil|YSize=49.34mil|CornerRadius=0mil|HoleSize=0mil|Usage=FLASHONLY|Rotation=78.750|XOffset=0mil|YOffset=0mil|HoleType=Round|Shape=Rectangle|*
%AMROTATEDRECTD174*
4,1,4,0.01958,-0.02804,-0.02882,-0.01842,-0.01958,0.02804,0.02882,0.01842,0.01958,-0.02804,0.0*
%
%ADD174ROTATEDRECTD174*%

G04:AMPARAMS|DCode=175|XSize=18.95mil|YSize=60.24mil|CornerRadius=0mil|HoleSize=0mil|Usage=FLASHONLY|Rotation=258.750|XOffset=0mil|YOffset=0mil|HoleType=Round|Shape=Round|*
%AMOVALD175*
21,1,0.04129,0.01895,0.00000,0.00000,348.8*
1,1,0.01895,-0.02025,0.00403*
1,1,0.01895,0.02025,-0.00403*
%
%ADD175OVALD175*%

%ADD176R,0.06902X0.02965*%
%ADD177R,0.05524X0.06115*%
G04:AMPARAMS|DCode=178|XSize=29.65mil|YSize=69.02mil|CornerRadius=0mil|HoleSize=0mil|Usage=FLASHONLY|Rotation=11.250|XOffset=0mil|YOffset=0mil|HoleType=Round|Shape=Rectangle|*
%AMROTATEDRECTD178*
4,1,4,-0.00781,-0.03674,-0.02128,0.03096,0.00781,0.03674,0.02128,-0.03096,-0.00781,-0.03674,0.0*
%
%ADD178ROTATEDRECTD178*%

G04:AMPARAMS|DCode=179|XSize=90.68mil|YSize=126.11mil|CornerRadius=0mil|HoleSize=0mil|Usage=FLASHONLY|Rotation=101.250|XOffset=0mil|YOffset=0mil|HoleType=Round|Shape=Rectangle|*
%AMROTATEDRECTD179*
4,1,4,0.07069,-0.03217,-0.05300,-0.05677,-0.07069,0.03217,0.05300,0.05677,0.07069,-0.03217,0.0*
%
%ADD179ROTATEDRECTD179*%

G04:AMPARAMS|DCode=180|XSize=29.65mil|YSize=69.02mil|CornerRadius=0mil|HoleSize=0mil|Usage=FLASHONLY|Rotation=56.250|XOffset=0mil|YOffset=0mil|HoleType=Round|Shape=Rectangle|*
%AMROTATEDRECTD180*
4,1,4,0.02046,-0.03150,-0.03693,0.00685,-0.02046,0.03150,0.03693,-0.00685,0.02046,-0.03150,0.0*
%
%ADD180ROTATEDRECTD180*%

G04:AMPARAMS|DCode=181|XSize=90.68mil|YSize=126.11mil|CornerRadius=0mil|HoleSize=0mil|Usage=FLASHONLY|Rotation=123.750|XOffset=0mil|YOffset=0mil|HoleType=Round|Shape=Rectangle|*
%AMROTATEDRECTD181*
4,1,4,0.07762,-0.00267,-0.02724,-0.07273,-0.07762,0.00267,0.02724,0.07273,0.07762,-0.00267,0.0*
%
%ADD181ROTATEDRECTD181*%

G04:AMPARAMS|DCode=182|XSize=90.68mil|YSize=126.11mil|CornerRadius=0mil|HoleSize=0mil|Usage=FLASHONLY|Rotation=146.250|XOffset=0mil|YOffset=0mil|HoleType=Round|Shape=Rectangle|*
%AMROTATEDRECTD182*
4,1,4,0.07273,0.02724,0.00267,-0.07762,-0.07273,-0.02724,-0.00267,0.07762,0.07273,0.02724,0.0*
%
%ADD182ROTATEDRECTD182*%

%ADD183R,0.04337X0.04534*%
G04:AMPARAMS|DCode=184|XSize=90.68mil|YSize=126.11mil|CornerRadius=0mil|HoleSize=0mil|Usage=FLASHONLY|Rotation=168.750|XOffset=0mil|YOffset=0mil|HoleType=Round|Shape=Rectangle|*
%AMROTATEDRECTD184*
4,1,4,0.05677,0.05300,0.03217,-0.07069,-0.05677,-0.05300,-0.03217,0.07069,0.05677,0.05300,0.0*
%
%ADD184ROTATEDRECTD184*%

G04:AMPARAMS|DCode=185|XSize=18.95mil|YSize=60.24mil|CornerRadius=0mil|HoleSize=0mil|Usage=FLASHONLY|Rotation=348.750|XOffset=0mil|YOffset=0mil|HoleType=Round|Shape=Round|*
%AMOVALD185*
21,1,0.04129,0.01895,0.00000,0.00000,78.8*
1,1,0.01895,-0.00403,-0.02025*
1,1,0.01895,0.00403,0.02025*
%
%ADD185OVALD185*%

G04:AMPARAMS|DCode=186|XSize=18.95mil|YSize=60.24mil|CornerRadius=0mil|HoleSize=0mil|Usage=FLASHONLY|Rotation=123.750|XOffset=0mil|YOffset=0mil|HoleType=Round|Shape=Round|*
%AMOVALD186*
21,1,0.04129,0.01895,0.00000,0.00000,213.8*
1,1,0.01895,0.01716,0.01147*
1,1,0.01895,-0.01716,-0.01147*
%
%ADD186OVALD186*%

G04:AMPARAMS|DCode=187|XSize=18.95mil|YSize=60.24mil|CornerRadius=0mil|HoleSize=0mil|Usage=FLASHONLY|Rotation=191.250|XOffset=0mil|YOffset=0mil|HoleType=Round|Shape=Round|*
%AMOVALD187*
21,1,0.04129,0.01895,0.00000,0.00000,281.3*
1,1,0.01895,-0.00403,0.02025*
1,1,0.01895,0.00403,-0.02025*
%
%ADD187OVALD187*%

G04:AMPARAMS|DCode=188|XSize=18.95mil|YSize=60.24mil|CornerRadius=0mil|HoleSize=0mil|Usage=FLASHONLY|Rotation=326.250|XOffset=0mil|YOffset=0mil|HoleType=Round|Shape=Round|*
%AMOVALD188*
21,1,0.04129,0.01895,0.00000,0.00000,56.3*
1,1,0.01895,-0.01147,-0.01716*
1,1,0.01895,0.01147,0.01716*
%
%ADD188OVALD188*%

G04:AMPARAMS|DCode=189|XSize=18.95mil|YSize=60.24mil|CornerRadius=0mil|HoleSize=0mil|Usage=FLASHONLY|Rotation=33.750|XOffset=0mil|YOffset=0mil|HoleType=Round|Shape=Round|*
%AMOVALD189*
21,1,0.04129,0.01895,0.00000,0.00000,123.8*
1,1,0.01895,0.01147,-0.01716*
1,1,0.01895,-0.01147,0.01716*
%
%ADD189OVALD189*%

G04:AMPARAMS|DCode=190|XSize=18.95mil|YSize=60.24mil|CornerRadius=0mil|HoleSize=0mil|Usage=FLASHONLY|Rotation=101.250|XOffset=0mil|YOffset=0mil|HoleType=Round|Shape=Round|*
%AMOVALD190*
21,1,0.04129,0.01895,0.00000,0.00000,191.3*
1,1,0.01895,0.02025,0.00403*
1,1,0.01895,-0.02025,-0.00403*
%
%ADD190OVALD190*%

G04:AMPARAMS|DCode=191|XSize=61.15mil|YSize=55.24mil|CornerRadius=0mil|HoleSize=0mil|Usage=FLASHONLY|Rotation=123.750|XOffset=0mil|YOffset=0mil|HoleType=Round|Shape=Rectangle|*
%AMROTATEDRECTD191*
4,1,4,0.03995,-0.01008,-0.00598,-0.04077,-0.03995,0.01008,0.00598,0.04077,0.03995,-0.01008,0.0*
%
%ADD191ROTATEDRECTD191*%

%ADD192R,0.09068X0.12611*%
G04:AMPARAMS|DCode=193|XSize=78.87mil|YSize=65.09mil|CornerRadius=0mil|HoleSize=0mil|Usage=FLASHONLY|Rotation=146.250|XOffset=0mil|YOffset=0mil|HoleType=Round|Shape=Rectangle|*
%AMROTATEDRECTD193*
4,1,4,0.05087,0.00515,0.01471,-0.04897,-0.05087,-0.00515,-0.01471,0.04897,0.05087,0.00515,0.0*
%
%ADD193ROTATEDRECTD193*%

%ADD194R,0.12611X0.09068*%
G04:AMPARAMS|DCode=195|XSize=90.68mil|YSize=126.11mil|CornerRadius=0mil|HoleSize=0mil|Usage=FLASHONLY|Rotation=292.500|XOffset=0mil|YOffset=0mil|HoleType=Round|Shape=Rectangle|*
%AMROTATEDRECTD195*
4,1,4,-0.07561,0.01776,0.04091,0.06602,0.07561,-0.01776,-0.04091,-0.06602,-0.07561,0.01776,0.0*
%
%ADD195ROTATEDRECTD195*%

%ADD196R,0.09068X0.15367*%
G04:AMPARAMS|DCode=197|XSize=61.15mil|YSize=55.24mil|CornerRadius=0mil|HoleSize=0mil|Usage=FLASHONLY|Rotation=135.000|XOffset=0mil|YOffset=0mil|HoleType=Round|Shape=Rectangle|*
%AMROTATEDRECTD197*
4,1,4,0.04115,-0.00209,0.00209,-0.04115,-0.04115,0.00209,-0.00209,0.04115,0.04115,-0.00209,0.0*
%
%ADD197ROTATEDRECTD197*%

G04:AMPARAMS|DCode=198|XSize=61.15mil|YSize=55.24mil|CornerRadius=0mil|HoleSize=0mil|Usage=FLASHONLY|Rotation=157.500|XOffset=0mil|YOffset=0mil|HoleType=Round|Shape=Rectangle|*
%AMROTATEDRECTD198*
4,1,4,0.03882,0.01382,0.01768,-0.03722,-0.03882,-0.01382,-0.01768,0.03722,0.03882,0.01382,0.0*
%
%ADD198ROTATEDRECTD198*%

G04:AMPARAMS|DCode=199|XSize=78.87mil|YSize=98.55mil|CornerRadius=0mil|HoleSize=0mil|Usage=FLASHONLY|Rotation=292.500|XOffset=0mil|YOffset=0mil|HoleType=Round|Shape=Rectangle|*
%AMROTATEDRECTD199*
4,1,4,-0.06062,0.01758,0.03043,0.05529,0.06062,-0.01758,-0.03043,-0.05529,-0.06062,0.01758,0.0*
%
%ADD199ROTATEDRECTD199*%

%ADD200R,0.07887X0.09855*%
G04:AMPARAMS|DCode=201|XSize=118.11mil|YSize=118.11mil|CornerRadius=59.06mil|HoleSize=0mil|Usage=FLASHONLY|Rotation=270.000|XOffset=0mil|YOffset=0mil|HoleType=Round|Shape=RoundedRectangle|*
%AMROUNDEDRECTD201*
21,1,0.11811,0.00000,0,0,270.0*
21,1,0.00000,0.11811,0,0,270.0*
1,1,0.11811,0.00000,0.00000*
1,1,0.11811,0.00000,0.00000*
1,1,0.11811,0.00000,0.00000*
1,1,0.11811,0.00000,0.00000*
%
%ADD201ROUNDEDRECTD201*%
G04:AMPARAMS|DCode=202|XSize=118.11mil|YSize=118.11mil|CornerRadius=59.06mil|HoleSize=0mil|Usage=FLASHONLY|Rotation=180.000|XOffset=0mil|YOffset=0mil|HoleType=Round|Shape=RoundedRectangle|*
%AMROUNDEDRECTD202*
21,1,0.11811,0.00000,0,0,180.0*
21,1,0.00000,0.11811,0,0,180.0*
1,1,0.11811,0.00000,0.00000*
1,1,0.11811,0.00000,0.00000*
1,1,0.11811,0.00000,0.00000*
1,1,0.11811,0.00000,0.00000*
%
%ADD202ROUNDEDRECTD202*%
%ADD203R,0.21843X0.04449*%
G04:AMPARAMS|DCode=204|XSize=94.61mil|YSize=43.43mil|CornerRadius=0mil|HoleSize=0mil|Usage=FLASHONLY|Rotation=146.250|XOffset=0mil|YOffset=0mil|HoleType=Round|Shape=Rectangle|*
%AMROTATEDRECTD204*
4,1,4,0.05140,-0.00823,0.02727,-0.04434,-0.05140,0.00823,-0.02727,0.04434,0.05140,-0.00823,0.0*
%
%ADD204ROTATEDRECTD204*%

G04:AMPARAMS|DCode=205|XSize=94.61mil|YSize=43.43mil|CornerRadius=0mil|HoleSize=0mil|Usage=FLASHONLY|Rotation=191.250|XOffset=0mil|YOffset=0mil|HoleType=Round|Shape=Rectangle|*
%AMROTATEDRECTD205*
4,1,4,0.04216,0.03053,0.05064,-0.01207,-0.04216,-0.03053,-0.05064,0.01207,0.04216,0.03053,0.0*
%
%ADD205ROTATEDRECTD205*%

G04:AMPARAMS|DCode=206|XSize=29.65mil|YSize=69.02mil|CornerRadius=0mil|HoleSize=0mil|Usage=FLASHONLY|Rotation=135.000|XOffset=0mil|YOffset=0mil|HoleType=Round|Shape=Rectangle|*
%AMROTATEDRECTD206*
4,1,4,0.03489,0.01392,-0.01392,-0.03489,-0.03489,-0.01392,0.01392,0.03489,0.03489,0.01392,0.0*
%
%ADD206ROTATEDRECTD206*%

G04:AMPARAMS|DCode=207|XSize=29.65mil|YSize=69.02mil|CornerRadius=0mil|HoleSize=0mil|Usage=FLASHONLY|Rotation=157.500|XOffset=0mil|YOffset=0mil|HoleType=Round|Shape=Rectangle|*
%AMROTATEDRECTD207*
4,1,4,0.02691,0.02621,0.00049,-0.03756,-0.02691,-0.02621,-0.00049,0.03756,0.02691,0.02621,0.0*
%
%ADD207ROTATEDRECTD207*%

G04:AMPARAMS|DCode=208|XSize=47.37mil|YSize=49.34mil|CornerRadius=0mil|HoleSize=0mil|Usage=FLASHONLY|Rotation=337.500|XOffset=0mil|YOffset=0mil|HoleType=Round|Shape=Rectangle|*
%AMROTATEDRECTD208*
4,1,4,-0.03132,-0.01373,-0.01244,0.03186,0.03132,0.01373,0.01244,-0.03186,-0.03132,-0.01373,0.0*
%
%ADD208ROTATEDRECTD208*%

G04:AMPARAMS|DCode=209|XSize=47.37mil|YSize=49.34mil|CornerRadius=0mil|HoleSize=0mil|Usage=FLASHONLY|Rotation=315.000|XOffset=0mil|YOffset=0mil|HoleType=Round|Shape=Rectangle|*
%AMROTATEDRECTD209*
4,1,4,-0.03419,-0.00070,0.00070,0.03419,0.03419,0.00070,-0.00070,-0.03419,-0.03419,-0.00070,0.0*
%
%ADD209ROTATEDRECTD209*%

G04:AMPARAMS|DCode=210|XSize=47.37mil|YSize=49.34mil|CornerRadius=0mil|HoleSize=0mil|Usage=FLASHONLY|Rotation=225.000|XOffset=0mil|YOffset=0mil|HoleType=Round|Shape=Rectangle|*
%AMROTATEDRECTD210*
4,1,4,-0.00070,0.03419,0.03419,-0.00070,0.00070,-0.03419,-0.03419,0.00070,-0.00070,0.03419,0.0*
%
%ADD210ROTATEDRECTD210*%

G04:AMPARAMS|DCode=211|XSize=60.63mil|YSize=70.47mil|CornerRadius=0mil|HoleSize=0mil|Usage=FLASHONLY|Rotation=123.750|XOffset=0mil|YOffset=0mil|HoleType=Round|Shape=Rectangle|*
%AMROTATEDRECTD211*
4,1,4,0.04614,-0.00563,-0.01246,-0.04478,-0.04614,0.00563,0.01246,0.04478,0.04614,-0.00563,0.0*
%
%ADD211ROTATEDRECTD211*%

G04:AMPARAMS|DCode=212|XSize=29.65mil|YSize=69.02mil|CornerRadius=0mil|HoleSize=0mil|Usage=FLASHONLY|Rotation=22.500|XOffset=0mil|YOffset=0mil|HoleType=Round|Shape=Rectangle|*
%AMROTATEDRECTD212*
4,1,4,-0.00049,-0.03756,-0.02691,0.02621,0.00049,0.03756,0.02691,-0.02621,-0.00049,-0.03756,0.0*
%
%ADD212ROTATEDRECTD212*%

%ADD213R,0.01496X0.05827*%
%ADD214R,0.03110X0.06654*%
G04:AMPARAMS|DCode=215|XSize=39.5mil|YSize=25.72mil|CornerRadius=0mil|HoleSize=0mil|Usage=FLASHONLY|Rotation=326.250|XOffset=0mil|YOffset=0mil|HoleType=Round|Shape=Rectangle|*
%AMROTATEDRECTD215*
4,1,4,-0.02356,0.00028,-0.00928,0.02166,0.02356,-0.00028,0.00928,-0.02166,-0.02356,0.00028,0.0*
%
%ADD215ROTATEDRECTD215*%

%ADD216P,0.03080X4X371.3*%
G04:AMPARAMS|DCode=217|XSize=33.59mil|YSize=51.31mil|CornerRadius=0mil|HoleSize=0mil|Usage=FLASHONLY|Rotation=11.250|XOffset=0mil|YOffset=0mil|HoleType=Round|Shape=Rectangle|*
%AMROTATEDRECTD217*
4,1,4,-0.01147,-0.02844,-0.02148,0.02188,0.01147,0.02844,0.02148,-0.02188,-0.01147,-0.02844,0.0*
%
%ADD217ROTATEDRECTD217*%

%ADD218R,0.02965X0.06902*%
G04:AMPARAMS|DCode=219|XSize=16.54mil|YSize=77.56mil|CornerRadius=5.32mil|HoleSize=0mil|Usage=FLASHONLY|Rotation=180.000|XOffset=0mil|YOffset=0mil|HoleType=Round|Shape=RoundedRectangle|*
%AMROUNDEDRECTD219*
21,1,0.01654,0.06693,0,0,180.0*
21,1,0.00591,0.07756,0,0,180.0*
1,1,0.01063,-0.00295,0.03347*
1,1,0.01063,0.00295,0.03347*
1,1,0.01063,0.00295,-0.03347*
1,1,0.01063,-0.00295,-0.03347*
%
%ADD219ROUNDEDRECTD219*%
G04:AMPARAMS|DCode=220|XSize=16.54mil|YSize=77.56mil|CornerRadius=5.32mil|HoleSize=0mil|Usage=FLASHONLY|Rotation=90.000|XOffset=0mil|YOffset=0mil|HoleType=Round|Shape=RoundedRectangle|*
%AMROUNDEDRECTD220*
21,1,0.01654,0.06693,0,0,90.0*
21,1,0.00591,0.07756,0,0,90.0*
1,1,0.01063,0.03347,0.00295*
1,1,0.01063,0.03347,-0.00295*
1,1,0.01063,-0.03347,-0.00295*
1,1,0.01063,-0.03347,0.00295*
%
%ADD220ROUNDEDRECTD220*%
G04:AMPARAMS|DCode=221|XSize=90.68mil|YSize=153.67mil|CornerRadius=0mil|HoleSize=0mil|Usage=FLASHONLY|Rotation=45.000|XOffset=0mil|YOffset=0mil|HoleType=Round|Shape=Rectangle|*
%AMROTATEDRECTD221*
4,1,4,0.02227,-0.08639,-0.08639,0.02227,-0.02227,0.08639,0.08639,-0.02227,0.02227,-0.08639,0.0*
%
%ADD221ROTATEDRECTD221*%

G04:AMPARAMS|DCode=222|XSize=88.19mil|YSize=119.69mil|CornerRadius=0mil|HoleSize=0mil|Usage=FLASHONLY|Rotation=22.500|XOffset=0mil|YOffset=0mil|HoleType=Round|Shape=Rectangle|*
%AMROTATEDRECTD222*
4,1,4,-0.01784,-0.07216,-0.06364,0.03841,0.01784,0.07216,0.06364,-0.03841,-0.01784,-0.07216,0.0*
%
%ADD222ROTATEDRECTD222*%

%ADD223P,0.16926X4X67.5*%
G04:AMPARAMS|DCode=224|XSize=96.06mil|YSize=119.69mil|CornerRadius=0mil|HoleSize=0mil|Usage=FLASHONLY|Rotation=22.500|XOffset=0mil|YOffset=0mil|HoleType=Round|Shape=Rectangle|*
%AMROTATEDRECTD224*
4,1,4,-0.02148,-0.07367,-0.06728,0.03691,0.02148,0.07367,0.06728,-0.03691,-0.02148,-0.07367,0.0*
%
%ADD224ROTATEDRECTD224*%

G04:AMPARAMS|DCode=225|XSize=88.19mil|YSize=119.69mil|CornerRadius=0mil|HoleSize=0mil|Usage=FLASHONLY|Rotation=337.500|XOffset=0mil|YOffset=0mil|HoleType=Round|Shape=Rectangle|*
%AMROTATEDRECTD225*
4,1,4,-0.06364,-0.03841,-0.01784,0.07216,0.06364,0.03841,0.01784,-0.07216,-0.06364,-0.03841,0.0*
%
%ADD225ROTATEDRECTD225*%

%ADD226P,0.16926X4X382.5*%
G04:AMPARAMS|DCode=227|XSize=96.06mil|YSize=119.69mil|CornerRadius=0mil|HoleSize=0mil|Usage=FLASHONLY|Rotation=337.500|XOffset=0mil|YOffset=0mil|HoleType=Round|Shape=Rectangle|*
%AMROTATEDRECTD227*
4,1,4,-0.06728,-0.03691,-0.02148,0.07367,0.06728,0.03691,0.02148,-0.07367,-0.06728,-0.03691,0.0*
%
%ADD227ROTATEDRECTD227*%

%ADD228R,0.06509X0.07887*%
G04:AMPARAMS|DCode=229|XSize=47.37mil|YSize=49.34mil|CornerRadius=0mil|HoleSize=0mil|Usage=FLASHONLY|Rotation=112.500|XOffset=0mil|YOffset=0mil|HoleType=Round|Shape=Rectangle|*
%AMROTATEDRECTD229*
4,1,4,0.03186,-0.01244,-0.01373,-0.03132,-0.03186,0.01244,0.01373,0.03132,0.03186,-0.01244,0.0*
%
%ADD229ROTATEDRECTD229*%

%ADD230R,0.07887X0.06509*%
%ADD231C,0.08300*%
%ADD232C,0.09445*%
%ADD233P,0.09822X4X146.3*%
%ADD234C,0.06945*%
%ADD235C,0.16445*%
%ADD236P,0.09822X4X168.8*%
%ADD237P,0.09822X4X191.3*%
%ADD238P,0.09822X4X213.8*%
%ADD239P,0.09822X4X236.3*%
%ADD240P,0.09822X4X258.8*%
%ADD241P,0.09822X4X281.3*%
%ADD242P,0.09822X4X303.8*%
%ADD243C,0.16693*%
G04:AMPARAMS|DCode=244|XSize=206.3mil|YSize=206.3mil|CornerRadius=53.94mil|HoleSize=0mil|Usage=FLASHONLY|Rotation=90.000|XOffset=0mil|YOffset=0mil|HoleType=Round|Shape=RoundedRectangle|*
%AMROUNDEDRECTD244*
21,1,0.20630,0.09843,0,0,90.0*
21,1,0.09843,0.20630,0,0,90.0*
1,1,0.10787,0.04921,0.04921*
1,1,0.10787,0.04921,-0.04921*
1,1,0.10787,-0.04921,-0.04921*
1,1,0.10787,-0.04921,0.04921*
%
%ADD244ROUNDEDRECTD244*%
G04:AMPARAMS|DCode=245|XSize=251.57mil|YSize=251.57mil|CornerRadius=125.79mil|HoleSize=0mil|Usage=FLASHONLY|Rotation=78.750|XOffset=0mil|YOffset=0mil|HoleType=Round|Shape=RoundedRectangle|*
%AMROUNDEDRECTD245*
21,1,0.25157,0.00000,0,0,78.8*
21,1,0.00000,0.25157,0,0,78.8*
1,1,0.25157,0.00000,0.00000*
1,1,0.25157,0.00000,0.00000*
1,1,0.25157,0.00000,0.00000*
1,1,0.25157,0.00000,0.00000*
%
%ADD245ROUNDEDRECTD245*%
G04:AMPARAMS|DCode=246|XSize=251.57mil|YSize=251.57mil|CornerRadius=125.79mil|HoleSize=0mil|Usage=FLASHONLY|Rotation=11.250|XOffset=0mil|YOffset=0mil|HoleType=Round|Shape=RoundedRectangle|*
%AMROUNDEDRECTD246*
21,1,0.25157,0.00000,0,0,11.3*
21,1,0.00000,0.25157,0,0,11.3*
1,1,0.25157,0.00000,0.00000*
1,1,0.25157,0.00000,0.00000*
1,1,0.25157,0.00000,0.00000*
1,1,0.25157,0.00000,0.00000*
%
%ADD246ROUNDEDRECTD246*%
G04:AMPARAMS|DCode=247|XSize=86.58mil|YSize=86.58mil|CornerRadius=43.29mil|HoleSize=0mil|Usage=FLASHONLY|Rotation=22.500|XOffset=0mil|YOffset=0mil|HoleType=Round|Shape=RoundedRectangle|*
%AMROUNDEDRECTD247*
21,1,0.08658,0.00000,0,0,22.5*
21,1,0.00000,0.08658,0,0,22.5*
1,1,0.08658,0.00000,0.00000*
1,1,0.08658,0.00000,0.00000*
1,1,0.08658,0.00000,0.00000*
1,1,0.08658,0.00000,0.00000*
%
%ADD247ROUNDEDRECTD247*%
G04:AMPARAMS|DCode=248|XSize=88.19mil|YSize=88.19mil|CornerRadius=44.09mil|HoleSize=0mil|Usage=FLASHONLY|Rotation=22.500|XOffset=0mil|YOffset=0mil|HoleType=Round|Shape=RoundedRectangle|*
%AMROUNDEDRECTD248*
21,1,0.08819,0.00000,0,0,22.5*
21,1,0.00000,0.08819,0,0,22.5*
1,1,0.08819,0.00000,0.00000*
1,1,0.08819,0.00000,0.00000*
1,1,0.08819,0.00000,0.00000*
1,1,0.08819,0.00000,0.00000*
%
%ADD248ROUNDEDRECTD248*%
G04:AMPARAMS|DCode=249|XSize=86.58mil|YSize=86.58mil|CornerRadius=43.29mil|HoleSize=0mil|Usage=FLASHONLY|Rotation=337.500|XOffset=0mil|YOffset=0mil|HoleType=Round|Shape=RoundedRectangle|*
%AMROUNDEDRECTD249*
21,1,0.08658,0.00000,0,0,337.5*
21,1,0.00000,0.08658,0,0,337.5*
1,1,0.08658,0.00000,0.00000*
1,1,0.08658,0.00000,0.00000*
1,1,0.08658,0.00000,0.00000*
1,1,0.08658,0.00000,0.00000*
%
%ADD249ROUNDEDRECTD249*%
G04:AMPARAMS|DCode=250|XSize=88.19mil|YSize=88.19mil|CornerRadius=44.09mil|HoleSize=0mil|Usage=FLASHONLY|Rotation=337.500|XOffset=0mil|YOffset=0mil|HoleType=Round|Shape=RoundedRectangle|*
%AMROUNDEDRECTD250*
21,1,0.08819,0.00000,0,0,337.5*
21,1,0.00000,0.08819,0,0,337.5*
1,1,0.08819,0.00000,0.00000*
1,1,0.08819,0.00000,0.00000*
1,1,0.08819,0.00000,0.00000*
1,1,0.08819,0.00000,0.00000*
%
%ADD250ROUNDEDRECTD250*%
%ADD251C,0.01800*%
G36*
X135443Y-56877D02*
X129974Y-65061D01*
X125064Y-61780D01*
X129986Y-54414D01*
X131351Y-54143D01*
X135443Y-56877D01*
D02*
G37*
G36*
X110803Y-98768D02*
X105335Y-106952D01*
X100425Y-103671D01*
X105346Y-96305D01*
X106711Y-96034D01*
X110803Y-98768D01*
D02*
G37*
D103*
X101500Y-108000D02*
X102078Y-107047D01*
X125500Y-66000D02*
X126130Y-65090D01*
D131*
X109000Y-129000D02*
D03*
X115500Y-103000D02*
D03*
X27500Y-113500D02*
D03*
X-23000Y-103000D02*
D03*
X-38500Y-14000D02*
D03*
X-38250Y-24750D02*
D03*
X33500Y-60000D02*
D03*
X38500Y-67500D02*
D03*
X36000Y-65000D02*
D03*
X22000Y-54500D02*
D03*
X-3500Y-37000D02*
D03*
X-15500Y-39500D02*
D03*
X173000Y50000D02*
D03*
X57000Y137000D02*
D03*
X65000Y145000D02*
D03*
X82361Y123361D02*
D03*
X84000Y135000D02*
D03*
X105000Y105000D02*
D03*
X109000Y116000D02*
D03*
X136000Y91000D02*
D03*
X80000Y-124000D02*
D03*
X69500Y-107500D02*
D03*
X82000Y-99500D02*
D03*
X83000Y-120500D02*
D03*
X-42500Y-47500D02*
D03*
X-40000Y-40000D02*
D03*
X-67000Y-130000D02*
D03*
X52250Y-72250D02*
D03*
X-96500Y-130000D02*
D03*
X-116500D02*
D03*
X-96500Y-110000D02*
D03*
X-116500D02*
D03*
X-65000Y-109500D02*
D03*
X-60500Y-97500D02*
D03*
X-52500Y-57500D02*
D03*
Y-67500D02*
D03*
Y-62500D02*
D03*
X-55000Y-65000D02*
D03*
Y-60000D02*
D03*
X-59000Y-28000D02*
D03*
X-55000Y-23000D02*
D03*
X-41500Y-22500D02*
D03*
X-62500Y-112500D02*
D03*
X-57500Y-100000D02*
D03*
X-60000Y-115000D02*
D03*
X-47500Y-107500D02*
D03*
X-32500Y-90000D02*
D03*
X-40000Y-92500D02*
D03*
X57500Y-57500D02*
D03*
X272500Y112500D02*
D03*
X-4000Y-68000D02*
D03*
X-7500Y139000D02*
D03*
X-3500Y143000D02*
D03*
X232000Y-94500D02*
D03*
X5000Y-74500D02*
D03*
X43500Y-70000D02*
D03*
X46500Y-57500D02*
D03*
X-26500Y-60000D02*
D03*
Y-65000D02*
D03*
Y-70000D02*
D03*
X-29000Y-67500D02*
D03*
Y-62500D02*
D03*
Y-57500D02*
D03*
X-37500Y5500D02*
D03*
Y-30000D02*
D03*
X-42500Y-28500D02*
D03*
X-3500Y92000D02*
D03*
X26000Y110000D02*
D03*
X28500Y107500D02*
D03*
X31000Y105000D02*
D03*
X-3083Y-108417D02*
D03*
X0Y-110000D02*
D03*
X-5500Y-106000D02*
D03*
X-23500Y110000D02*
D03*
X-6500Y115000D02*
D03*
X-208602Y-4398D02*
D03*
X-188543Y-14457D02*
D03*
X-30000Y112500D02*
D03*
X0Y35500D02*
D03*
X-7500Y38500D02*
D03*
X11500D02*
D03*
X-35000Y35500D02*
D03*
X-10000Y-37500D02*
D03*
X11000Y-38500D02*
D03*
X36000Y-24000D02*
D03*
X3937Y-24563D02*
D03*
X46500Y-24000D02*
D03*
X77500Y-65000D02*
D03*
X-157500Y-70000D02*
D03*
Y-57500D02*
D03*
X-183500Y-58500D02*
D03*
X-190500Y-65500D02*
D03*
X41500Y-42500D02*
D03*
X39000Y-40000D02*
D03*
X41500Y-30000D02*
D03*
X39000Y-32500D02*
D03*
X122500Y-54000D02*
D03*
X127000Y-23000D02*
D03*
Y-13500D02*
D03*
X100500Y-89000D02*
D03*
X108000Y-91500D02*
D03*
X149500Y-31000D02*
D03*
X209500Y3500D02*
D03*
X-40000Y-67500D02*
D03*
Y-62500D02*
D03*
X-37500Y-60000D02*
D03*
Y-65000D02*
D03*
X22500Y-70000D02*
D03*
X47500D02*
D03*
X20000Y-67500D02*
D03*
X22500Y-65000D02*
D03*
X17500Y-57500D02*
D03*
X20000Y-60000D02*
D03*
X72500Y5000D02*
D03*
X77500D02*
D03*
Y15000D02*
D03*
X80000Y25000D02*
D03*
X82500Y27500D02*
D03*
X93000Y42500D02*
D03*
X-47500Y-145000D02*
D03*
X-52500D02*
D03*
X-50000Y-160000D02*
D03*
X-45000D02*
D03*
X22500Y102500D02*
D03*
X14000Y94000D02*
D03*
X0Y40000D02*
D03*
X41000Y-13000D02*
D03*
X20000Y-37500D02*
D03*
X-245000Y62500D02*
D03*
X-262500D02*
D03*
X-202500Y150000D02*
D03*
X-217500Y157500D02*
D03*
X-130000Y217500D02*
D03*
X-140000Y227500D02*
D03*
X-35000Y250000D02*
D03*
X-42500Y265000D02*
D03*
X62500Y242500D02*
D03*
Y260000D02*
D03*
X152500Y202500D02*
D03*
X157500Y217500D02*
D03*
X217500Y130000D02*
D03*
X230000Y140000D02*
D03*
X247500Y35000D02*
D03*
X267500Y42500D02*
D03*
X-140000Y62500D02*
D03*
X-132500Y50000D02*
D03*
X-152500Y-70000D02*
D03*
Y-57500D02*
D03*
X-60000Y-242500D02*
D03*
X-62500Y-260000D02*
D03*
X-150000Y-200000D02*
D03*
X-157500Y-217500D02*
D03*
X-217500Y-130000D02*
D03*
X-230000Y-142500D02*
D03*
X-250000Y-37500D02*
D03*
X-267500Y-42500D02*
D03*
X42500Y-265000D02*
D03*
X130000Y-217500D02*
D03*
X142500Y-230000D02*
D03*
X202500Y-150000D02*
D03*
X217500Y-157500D02*
D03*
X235000Y-87500D02*
D03*
Y-92500D02*
D03*
X227600Y-102500D02*
D03*
X230000Y-97500D02*
D03*
X242500Y-62500D02*
D03*
X262500D02*
D03*
X37500Y-247500D02*
D03*
X-27500Y107500D02*
D03*
X5000Y112500D02*
D03*
X2500Y110000D02*
D03*
X0Y107500D02*
D03*
X-7500Y120000D02*
D03*
X-30000Y105000D02*
D03*
X2500Y-112500D02*
D03*
X5000Y-115000D02*
D03*
X15000Y-92500D02*
D03*
Y-100000D02*
D03*
X20000Y-97500D02*
D03*
X67500Y45000D02*
D03*
X70000Y42500D02*
D03*
X77500Y47500D02*
D03*
X20000Y20000D02*
D03*
X-5000Y-5000D02*
D03*
X5000D02*
D03*
Y5000D02*
D03*
X-5000D02*
D03*
X57500Y52500D02*
D03*
X50000Y42500D02*
D03*
X55000Y22500D02*
D03*
X52500Y45000D02*
D03*
X27500Y-105000D02*
D03*
X75000Y-67500D02*
D03*
X-12500Y-57500D02*
D03*
X-14976Y-60000D02*
D03*
X-136000Y-28000D02*
D03*
X-131000Y-23000D02*
D03*
X-129000Y-6000D02*
D03*
X-123500Y-7500D02*
D03*
X-42500Y0D02*
D03*
X-40000Y2500D02*
D03*
X-20000D02*
D03*
X-17500Y0D02*
D03*
X-12500Y-62500D02*
D03*
X-10000Y-65000D02*
D03*
X-7500Y-67500D02*
D03*
X-147500Y-12500D02*
D03*
Y-17500D02*
D03*
X-40000Y-2500D02*
D03*
X-42500Y-5000D02*
D03*
X-20000Y-2500D02*
D03*
X-17500Y-5000D02*
D03*
X-35000Y-40000D02*
D03*
X-20000Y-7500D02*
D03*
X-17500Y-10000D02*
D03*
X-40000Y-7500D02*
D03*
X-42500Y-10000D02*
D03*
X-30000Y-35000D02*
D03*
X20000Y-7500D02*
D03*
X22500Y-5000D02*
D03*
X37500D02*
D03*
X40000Y-2500D02*
D03*
X-72500Y112500D02*
D03*
X-80000D02*
D03*
X-72500Y127500D02*
D03*
X-77500Y130000D02*
D03*
X45000Y157500D02*
D03*
X47500Y155000D02*
D03*
X20000Y150000D02*
D03*
X25000D02*
D03*
X50000Y-117500D02*
D03*
X46464Y-113964D02*
D03*
X35000Y-137500D02*
D03*
X40000D02*
D03*
X-17500Y39500D02*
D03*
X-39000Y10000D02*
D03*
X-27000Y-40000D02*
D03*
X32500Y72500D02*
D03*
X-197500Y-984D02*
D03*
X-147500Y-2500D02*
D03*
X-82500Y-80000D02*
D03*
X-57500Y-75000D02*
D03*
X-36250Y-76949D02*
D03*
X-10000Y-90551D02*
D03*
X5000Y-90000D02*
D03*
X112500Y35571D02*
D03*
X97500Y120000D02*
D03*
X71069Y134822D02*
D03*
X160000Y-53073D02*
D03*
X-17000Y-52000D02*
D03*
X-9500Y-54500D02*
D03*
X-3000D02*
D03*
X3500D02*
D03*
X9500D02*
D03*
X-21000Y-77000D02*
D03*
X24000Y-107500D02*
D03*
X44500D02*
D03*
X41500Y-96500D02*
D03*
X-24000Y-113500D02*
D03*
X-6890Y-123110D02*
D03*
X-4500Y-141500D02*
D03*
X5000D02*
D03*
X8000Y-123500D02*
D03*
X-26250Y-165551D02*
D03*
X0Y-200000D02*
D03*
X-30000Y-187000D02*
D03*
X-38000Y-217500D02*
D03*
X-42529Y-230959D02*
D03*
X-78000Y-263000D02*
D03*
X-28500Y-273000D02*
D03*
X33750Y-175551D02*
D03*
X44000Y-183500D02*
D03*
X48500Y-215000D02*
D03*
X49478Y-230077D02*
D03*
X29000Y-272000D02*
D03*
X78000Y-263000D02*
D03*
X131000Y-240500D02*
D03*
X172500Y-213000D02*
D03*
X134000Y-193749D02*
D03*
X127500Y-179500D02*
D03*
X106000Y-155000D02*
D03*
X159000Y-99000D02*
D03*
X186500Y-28000D02*
D03*
X186000Y36500D02*
D03*
X151000Y111000D02*
D03*
X98000Y161000D02*
D03*
X31000Y185500D02*
D03*
X-42000Y183500D02*
D03*
X-109000Y153000D02*
D03*
X-157500Y102500D02*
D03*
X-185000Y27500D02*
D03*
X-183500Y-44500D02*
D03*
X-151000Y-111000D02*
D03*
X-99000Y-155500D02*
D03*
X-118000Y-186500D02*
D03*
X-181000Y-127000D02*
D03*
X-216000Y-48000D02*
D03*
X-218000Y38000D02*
D03*
X-186500Y118000D02*
D03*
X-127000Y180500D02*
D03*
X-48500Y215500D02*
D03*
X38500Y218000D02*
D03*
X118500Y187000D02*
D03*
X181000Y127500D02*
D03*
X215500Y48500D02*
D03*
X218000Y-38000D02*
D03*
X186500Y-118500D02*
D03*
X197500Y-128386D02*
D03*
X231564Y-42000D02*
D03*
X230000Y49865D02*
D03*
X193500Y134373D02*
D03*
X127500Y197592D02*
D03*
X42500Y231465D02*
D03*
X-49500Y230073D02*
D03*
X-133000Y194083D02*
D03*
X-197926Y127000D02*
D03*
X-231500Y42000D02*
D03*
X-230073Y-49500D02*
D03*
X-193749Y-134000D02*
D03*
X-127000Y-197926D02*
D03*
X-172000Y-212500D02*
D03*
X-130500Y-240500D02*
D03*
X-240500Y-130500D02*
D03*
X-212500Y-172000D02*
D03*
X-272000Y-28500D02*
D03*
X-262500Y-77500D02*
D03*
X-272500Y29000D02*
D03*
X-262000Y78000D02*
D03*
X-213000Y172500D02*
D03*
X-241000Y131000D02*
D03*
X-173000Y213500D02*
D03*
X-131000Y241000D02*
D03*
X-77500Y263000D02*
D03*
X-29000Y272500D02*
D03*
X29000Y272000D02*
D03*
X77500Y263000D02*
D03*
X131000Y240500D02*
D03*
X172000Y212500D02*
D03*
X240500Y130500D02*
D03*
X213000Y172500D02*
D03*
X272500Y29000D02*
D03*
X262500Y78000D02*
D03*
X263000Y-78000D02*
D03*
X272500Y-28500D02*
D03*
X264500Y-85500D02*
D03*
X290500Y-96500D02*
D03*
X247500Y-126500D02*
D03*
X273500Y-137500D02*
D03*
X213000Y-172500D02*
D03*
X241000Y-131000D02*
D03*
X-224000Y-92624D02*
D03*
X-188500Y-80000D02*
D03*
X-185000Y-70000D02*
D03*
X-147500Y-95000D02*
D03*
X-102500Y-73760D02*
D03*
X-82500D02*
D03*
X-97500Y-35000D02*
D03*
X-115500D02*
D03*
Y-15000D02*
D03*
X-97500D02*
D03*
Y5000D02*
D03*
X-115500D02*
D03*
X-97500Y25000D02*
D03*
X-115500D02*
D03*
Y45000D02*
D03*
X-97500D02*
D03*
X-152500Y-35000D02*
D03*
X-127500Y63000D02*
D03*
X-129000Y50000D02*
D03*
X-164500Y35861D02*
D03*
X-138000Y42500D02*
D03*
X-132500Y61000D02*
D03*
X-224000Y92500D02*
D03*
X-188431Y80082D02*
D03*
X-292000Y100500D02*
D03*
X-288500Y108000D02*
D03*
X-26500Y165500D02*
D03*
X-34000D02*
D03*
X0Y195500D02*
D03*
Y182000D02*
D03*
X26500Y165500D02*
D03*
X-93000Y93000D02*
D03*
X-102500Y102500D02*
D03*
X-44000Y95000D02*
D03*
X-48760Y72500D02*
D03*
X-35000Y56000D02*
D03*
X-19000Y54000D02*
D03*
X2500Y54500D02*
D03*
X10000D02*
D03*
X22500D02*
D03*
X-7000D02*
D03*
X53051Y13750D02*
D03*
Y6250D02*
D03*
Y-16250D02*
D03*
X53000Y-24000D02*
D03*
X120500Y84500D02*
D03*
X100500Y89500D02*
D03*
X80000Y106000D02*
D03*
X58000Y119000D02*
D03*
X1500Y125000D02*
D03*
X8500Y140000D02*
D03*
X9000Y118500D02*
D03*
X19500Y101000D02*
D03*
X7500Y92500D02*
D03*
X3500D02*
D03*
X-7000Y90500D02*
D03*
X-165610Y-8610D02*
D03*
X-158043Y-16043D02*
D03*
X-196000Y2500D02*
D03*
X-130500Y-2500D02*
D03*
Y-10000D02*
D03*
X-134500Y11500D02*
D03*
X-280000Y-127500D02*
D03*
X-277500Y-135500D02*
D03*
X75000Y-156000D02*
D03*
X97000Y-95500D02*
D03*
X101500Y-108000D02*
D03*
X106000Y-77500D02*
D03*
X107000Y-74500D02*
D03*
X125500Y-66000D02*
D03*
X146000Y-62000D02*
D03*
X159555Y-82537D02*
D03*
X166000Y-71500D02*
D03*
X137500Y-52000D02*
D03*
X124000Y-28671D02*
D03*
X251500Y-97000D02*
D03*
X213500Y-100500D02*
D03*
X212500Y-10000D02*
D03*
X186500Y-11500D02*
D03*
X193500D02*
D03*
Y-15500D02*
D03*
X186500D02*
D03*
X190000Y-18000D02*
D03*
X164000D02*
D03*
X171000D02*
D03*
X167500Y-8000D02*
D03*
X143500Y9000D02*
D03*
X117500Y14000D02*
D03*
X147500Y15500D02*
D03*
X159000Y31500D02*
D03*
X132500Y36260D02*
D03*
X117500Y47000D02*
D03*
X102500Y50000D02*
D03*
X99500Y62500D02*
D03*
X109500D02*
D03*
X90000Y37000D02*
D03*
X-5000Y73000D02*
D03*
X21250Y76949D02*
D03*
X-57500Y-15000D02*
D03*
X-53000Y11000D02*
D03*
X-53051Y18750D02*
D03*
X-24300Y13398D02*
D03*
X252500Y15000D02*
D03*
X250000Y101000D02*
D03*
X248000Y105500D02*
D03*
X241500Y102500D02*
D03*
X243500Y98000D02*
D03*
X207000Y86000D02*
D03*
X217500Y90000D02*
D03*
X265000Y109500D02*
D03*
X-282500Y42500D02*
D03*
X-270000Y-72500D02*
D03*
X-222500Y-170000D02*
D03*
X-140000Y-242500D02*
D03*
X-35000Y-277500D02*
D03*
X72500Y-270000D02*
D03*
X170000Y-220000D02*
D03*
X242500Y-137500D02*
D03*
X277500Y-35000D02*
D03*
X270000Y75000D02*
D03*
X220000Y170000D02*
D03*
X137500Y242500D02*
D03*
X35000Y277500D02*
D03*
X-72500Y270000D02*
D03*
X-170000Y222500D02*
D03*
X-242500Y140000D02*
D03*
X-225000Y27500D02*
D03*
X-187500Y42500D02*
D03*
X-198000Y111000D02*
D03*
X-157000Y114000D02*
D03*
X-140000Y179000D02*
D03*
X-102000Y165000D02*
D03*
X-61000Y218000D02*
D03*
X-32000Y191000D02*
D03*
X27000Y225000D02*
D03*
X43000Y189000D02*
D03*
X111000Y197000D02*
D03*
X112000Y158000D02*
D03*
X178000Y140000D02*
D03*
X164000Y103000D02*
D03*
X218166Y61000D02*
D03*
X195000Y30000D02*
D03*
X225000Y-27000D02*
D03*
X189000Y-43000D02*
D03*
X198000Y-111000D02*
D03*
X157000Y-113000D02*
D03*
X61000Y-218000D02*
D03*
X140000Y-178000D02*
D03*
X101000Y-166000D02*
D03*
X31000Y-192000D02*
D03*
X-28106Y-225106D02*
D03*
X-111000Y-198000D02*
D03*
X-113000Y-157000D02*
D03*
X-45000Y-189000D02*
D03*
X-178698Y-140000D02*
D03*
X-218000Y-61000D02*
D03*
X-163000Y-103000D02*
D03*
X-189000Y-32000D02*
D03*
X-144000Y-101000D02*
D03*
X-178000Y-82000D02*
D03*
X16000Y68000D02*
D03*
X19000Y65000D02*
D03*
X24500Y38500D02*
D03*
X21500Y37000D02*
D03*
Y62000D02*
D03*
X22500Y70000D02*
D03*
X25000Y67500D02*
D03*
X27500Y65000D02*
D03*
X40000Y70000D02*
D03*
X42500Y67500D02*
D03*
X45000Y65000D02*
D03*
X97500Y52500D02*
D03*
X75000Y82500D02*
D03*
X72500Y85000D02*
D03*
X70000Y87500D02*
D03*
X151000Y96500D02*
D03*
X-173500Y8500D02*
D03*
X-164500Y28760D02*
D03*
X-149000Y54500D02*
D03*
X-135500Y77500D02*
D03*
X-185000Y68500D02*
D03*
Y57000D02*
D03*
X184000Y68500D02*
D03*
X176000Y60500D02*
D03*
X-35000Y100500D02*
D03*
X51500Y97500D02*
D03*
X127500Y49500D02*
D03*
Y12500D02*
D03*
X65000Y25000D02*
D03*
X62500Y27500D02*
D03*
X39500Y16000D02*
D03*
X40000Y10000D02*
D03*
Y5000D02*
D03*
D132*
X196568Y83000D02*
D03*
X-21250Y-83051D02*
D03*
D133*
X-9000Y-278000D02*
D03*
X10000Y277500D02*
D03*
X-280000Y-10000D02*
D03*
D134*
X0Y0D02*
D03*
D142*
X221181Y-87832D02*
D03*
X226819Y-90168D02*
D03*
X246099Y-91561D02*
D03*
X240461Y-89226D02*
D03*
X52819Y111332D02*
D03*
X47181Y113668D02*
D03*
X-219681Y86332D02*
D03*
X-225319Y88668D02*
D03*
X-217181Y93832D02*
D03*
X-222819Y96168D02*
D03*
X-204681Y81332D02*
D03*
X-210319Y83668D02*
D03*
X-189681Y76332D02*
D03*
X-195319Y78668D02*
D03*
X-202181Y88832D02*
D03*
X-207819Y91168D02*
D03*
X-187181Y83832D02*
D03*
X-192819Y86168D02*
D03*
D143*
X133695Y-116463D02*
D03*
X130305Y-121537D02*
D03*
X127695Y-112463D02*
D03*
X124305Y-117537D02*
D03*
X148305Y-75037D02*
D03*
X151695Y-69963D02*
D03*
X131695Y-94963D02*
D03*
X128305Y-100037D02*
D03*
X166695Y-79963D02*
D03*
X163305Y-85037D02*
D03*
X159195Y-74963D02*
D03*
X155805Y-80037D02*
D03*
X160345Y-124517D02*
D03*
X156955Y-129591D02*
D03*
X188872Y-108823D02*
D03*
X192262Y-103749D02*
D03*
X176400Y-100489D02*
D03*
X179790Y-95415D02*
D03*
X172817Y-132850D02*
D03*
X169427Y-137924D02*
D03*
X182636Y-104656D02*
D03*
X186026Y-99582D02*
D03*
X166581Y-128683D02*
D03*
X163191Y-133757D02*
D03*
X137810Y206247D02*
D03*
X134420Y201173D02*
D03*
X144046Y202080D02*
D03*
X140656Y197006D02*
D03*
X128183Y205340D02*
D03*
X131574Y210414D02*
D03*
X163472Y213154D02*
D03*
X160082Y208080D02*
D03*
X128288Y236995D02*
D03*
X124897Y231921D02*
D03*
X169708Y208987D02*
D03*
X166318Y203913D02*
D03*
X134524Y232828D02*
D03*
X131133Y227754D02*
D03*
X-152305Y111537D02*
D03*
X-155695Y106463D02*
D03*
X-166581Y128683D02*
D03*
X-163191Y133757D02*
D03*
X-182636Y104656D02*
D03*
X-186026Y99582D02*
D03*
X-172817Y132850D02*
D03*
X-169427Y137924D02*
D03*
X-176400Y100489D02*
D03*
X-179790Y95415D02*
D03*
X-188872Y108823D02*
D03*
X-192262Y103749D02*
D03*
X-160345Y124517D02*
D03*
X-156955Y129591D02*
D03*
X153305Y-107537D02*
D03*
X156695Y-102463D02*
D03*
X-137810Y-206247D02*
D03*
X-134420Y-201173D02*
D03*
X236901Y-149935D02*
D03*
X240292Y-144861D02*
D03*
X145000Y-45000D02*
D03*
X141610Y-50074D02*
D03*
X79195Y137537D02*
D03*
X75805Y132463D02*
D03*
X109195Y-39963D02*
D03*
X105805Y-45037D02*
D03*
X114805Y-34537D02*
D03*
X118195Y-29463D02*
D03*
X113305Y-90037D02*
D03*
X116695Y-84963D02*
D03*
X139695Y-120463D02*
D03*
X136305Y-125537D02*
D03*
X105805Y-85037D02*
D03*
X109195Y-79963D02*
D03*
X81695Y-82463D02*
D03*
X78305Y-87537D02*
D03*
X164195Y-57463D02*
D03*
X160805Y-62537D02*
D03*
X-236903Y149934D02*
D03*
X-240293Y144861D02*
D03*
X173195Y-83463D02*
D03*
X169805Y-88537D02*
D03*
X88805Y-72537D02*
D03*
X92195Y-67463D02*
D03*
X-134524Y-232828D02*
D03*
X-131133Y-227754D02*
D03*
X-169708Y-208987D02*
D03*
X-166318Y-203913D02*
D03*
X-128288Y-236995D02*
D03*
X-124897Y-231921D02*
D03*
X-163472Y-213154D02*
D03*
X-160082Y-208080D02*
D03*
X-128183Y-205340D02*
D03*
X-131574Y-210414D02*
D03*
X-144046Y-202080D02*
D03*
X-140656Y-197006D02*
D03*
D144*
X259060Y-100488D02*
D03*
X257855Y-103398D02*
D03*
X256649Y-106308D02*
D03*
X254239Y-112127D02*
D03*
X255444Y-109218D02*
D03*
D145*
X286357Y-98371D02*
D03*
X272044Y-132926D02*
D03*
X266352Y-90085D02*
D03*
X252039Y-124639D02*
D03*
D146*
X30315Y-2362D02*
D03*
Y-3937D02*
D03*
X-30315Y-24409D02*
D03*
Y-22835D02*
D03*
Y-21260D02*
D03*
Y-19685D02*
D03*
Y-18110D02*
D03*
Y-16535D02*
D03*
Y-14961D02*
D03*
Y-13386D02*
D03*
Y-11811D02*
D03*
Y-10236D02*
D03*
Y-8661D02*
D03*
Y-7087D02*
D03*
Y-5512D02*
D03*
Y-3937D02*
D03*
Y-2362D02*
D03*
Y-787D02*
D03*
Y787D02*
D03*
Y2362D02*
D03*
Y3937D02*
D03*
Y5512D02*
D03*
Y7087D02*
D03*
Y8661D02*
D03*
Y10236D02*
D03*
Y11811D02*
D03*
Y13386D02*
D03*
Y14961D02*
D03*
Y16535D02*
D03*
Y18110D02*
D03*
Y19685D02*
D03*
Y21260D02*
D03*
Y22835D02*
D03*
Y24409D02*
D03*
X30315D02*
D03*
Y22835D02*
D03*
Y21260D02*
D03*
Y19685D02*
D03*
Y18110D02*
D03*
Y16535D02*
D03*
Y14961D02*
D03*
Y13386D02*
D03*
Y11811D02*
D03*
Y10236D02*
D03*
Y8661D02*
D03*
Y7087D02*
D03*
Y5512D02*
D03*
Y3937D02*
D03*
Y2362D02*
D03*
Y787D02*
D03*
Y-787D02*
D03*
Y-5512D02*
D03*
Y-7087D02*
D03*
Y-8661D02*
D03*
Y-10236D02*
D03*
Y-11811D02*
D03*
Y-13386D02*
D03*
Y-14961D02*
D03*
Y-16535D02*
D03*
Y-18110D02*
D03*
Y-19685D02*
D03*
Y-21260D02*
D03*
Y-22835D02*
D03*
Y-24409D02*
D03*
D147*
X0Y0D02*
D03*
D148*
X-24409Y30315D02*
D03*
X-22835D02*
D03*
X-21260D02*
D03*
X-19685D02*
D03*
X-18110D02*
D03*
X-16535D02*
D03*
X-14961D02*
D03*
X-13386D02*
D03*
X-11811D02*
D03*
X-10236D02*
D03*
X-8661D02*
D03*
X-7087D02*
D03*
X-5512D02*
D03*
X-3937D02*
D03*
X-2362D02*
D03*
X-787D02*
D03*
X787D02*
D03*
X2362D02*
D03*
X3937D02*
D03*
X5512D02*
D03*
X7087D02*
D03*
X8661D02*
D03*
X10236D02*
D03*
X11811D02*
D03*
X13386D02*
D03*
X14961D02*
D03*
X16535D02*
D03*
X18110D02*
D03*
X19685D02*
D03*
X21260D02*
D03*
X22835D02*
D03*
X24409D02*
D03*
Y-30315D02*
D03*
X22835D02*
D03*
X21260D02*
D03*
X19685D02*
D03*
X18110D02*
D03*
X16535D02*
D03*
X14961D02*
D03*
X13386D02*
D03*
X11811D02*
D03*
X10236D02*
D03*
X8661D02*
D03*
X7087D02*
D03*
X5512D02*
D03*
X3937D02*
D03*
X2362D02*
D03*
X787D02*
D03*
X-787D02*
D03*
X-2362D02*
D03*
X-3937D02*
D03*
X-5512D02*
D03*
X-7087D02*
D03*
X-8661D02*
D03*
X-10236D02*
D03*
X-11811D02*
D03*
X-13386D02*
D03*
X-14961D02*
D03*
X-16535D02*
D03*
X-18110D02*
D03*
X-19685D02*
D03*
X-21260D02*
D03*
X-22835D02*
D03*
X-24409D02*
D03*
D149*
X163007Y50405D02*
D03*
X168993Y51595D02*
D03*
X55140Y-203146D02*
D03*
X61125Y-201956D02*
D03*
X53677Y-195790D02*
D03*
X59662Y-194600D02*
D03*
X56603Y-210502D02*
D03*
X62588Y-209312D02*
D03*
X26798Y-208784D02*
D03*
X20813Y-209974D02*
D03*
X28261Y-216140D02*
D03*
X22276Y-217330D02*
D03*
X25335Y-201428D02*
D03*
X19350Y-202618D02*
D03*
X267778Y27775D02*
D03*
X261793Y26584D02*
D03*
X266315Y35131D02*
D03*
X260330Y33940D02*
D03*
X235837Y54558D02*
D03*
X241822Y55748D02*
D03*
X244748Y41036D02*
D03*
X238763Y39846D02*
D03*
X243285Y48392D02*
D03*
X237300Y47202D02*
D03*
X258294Y76868D02*
D03*
X252309Y75677D02*
D03*
X259757Y69512D02*
D03*
X253772Y68321D02*
D03*
X-32008Y185595D02*
D03*
X-37993Y184405D02*
D03*
X-26798Y208784D02*
D03*
X-20813Y209974D02*
D03*
X-55140Y203146D02*
D03*
X-61125Y201956D02*
D03*
X-28261Y216140D02*
D03*
X-22276Y217330D02*
D03*
X-53677Y195790D02*
D03*
X-59662Y194600D02*
D03*
X-56603Y210502D02*
D03*
X-62589Y209312D02*
D03*
X-25335Y201428D02*
D03*
X-19350Y202618D02*
D03*
X34007Y-185595D02*
D03*
X39993Y-184405D02*
D03*
X61494Y-273534D02*
D03*
X67479Y-272344D02*
D03*
X-259757Y-69512D02*
D03*
X-253772Y-68321D02*
D03*
X-267778Y-27775D02*
D03*
X-261793Y-26584D02*
D03*
X-258294Y-76868D02*
D03*
X-252309Y-75677D02*
D03*
X-266315Y-35130D02*
D03*
X-260330Y-33940D02*
D03*
X-243285Y-48392D02*
D03*
X-237300Y-47202D02*
D03*
X-244748Y-41036D02*
D03*
X-238763Y-39846D02*
D03*
X-235837Y-54558D02*
D03*
X-241822Y-55748D02*
D03*
X-61494Y273535D02*
D03*
X-67479Y272344D02*
D03*
D150*
X175944Y42580D02*
D03*
X160056Y39420D02*
D03*
D151*
X137500Y43740D02*
D03*
Y36260D02*
D03*
X127500Y43740D02*
D03*
X127500Y36260D02*
D03*
X147500Y36260D02*
D03*
Y43740D02*
D03*
X-159000Y28760D02*
D03*
Y36240D02*
D03*
X117500Y26240D02*
D03*
Y18760D02*
D03*
X22500Y-168760D02*
D03*
Y-176240D02*
D03*
X-77500Y-81240D02*
D03*
Y-73760D02*
D03*
X-107500Y-81240D02*
D03*
Y-73760D02*
D03*
X-22500Y166240D02*
D03*
Y158760D02*
D03*
D152*
X117500Y36949D02*
D03*
Y43051D02*
D03*
X105000Y20551D02*
D03*
Y14449D02*
D03*
X97500Y20551D02*
D03*
Y14449D02*
D03*
X90000Y20551D02*
D03*
Y14449D02*
D03*
Y949D02*
D03*
Y7051D02*
D03*
X92500Y56949D02*
D03*
Y63051D02*
D03*
X16000Y-50551D02*
D03*
Y-44449D02*
D03*
X-184000Y38051D02*
D03*
X-184000Y31949D02*
D03*
X-169000Y29449D02*
D03*
Y35551D02*
D03*
X236439Y1417D02*
D03*
X125000Y19449D02*
D03*
X125000Y25551D02*
D03*
X-22500Y-159449D02*
D03*
Y-165551D02*
D03*
X30000Y-169449D02*
D03*
Y-175551D02*
D03*
X37500Y-169449D02*
D03*
Y-175551D02*
D03*
X-30000Y-159449D02*
D03*
Y-165551D02*
D03*
X140000Y25551D02*
D03*
X140000Y19449D02*
D03*
X147500Y25551D02*
D03*
Y19449D02*
D03*
X-52500Y-76949D02*
D03*
Y-83051D02*
D03*
X132500Y25551D02*
D03*
Y19449D02*
D03*
X20000Y-83051D02*
D03*
Y-76949D02*
D03*
X-20000Y76949D02*
D03*
Y83051D02*
D03*
X-12500Y76949D02*
D03*
Y83051D02*
D03*
X-35000Y-96949D02*
D03*
Y-103051D02*
D03*
X-52500Y-96949D02*
D03*
Y-103051D02*
D03*
X-30000Y76949D02*
D03*
Y83051D02*
D03*
X90000Y-6949D02*
D03*
Y-13051D02*
D03*
X-10000Y-83051D02*
D03*
Y-76949D02*
D03*
X12500Y-83051D02*
D03*
Y-76949D02*
D03*
X-2500Y-83051D02*
D03*
Y-76949D02*
D03*
X-40000D02*
D03*
Y-83051D02*
D03*
X-32500Y-76949D02*
D03*
Y-83051D02*
D03*
X-25000D02*
D03*
Y-76949D02*
D03*
X-17500Y-83051D02*
D03*
Y-76949D02*
D03*
X5000Y-83051D02*
D03*
Y-76949D02*
D03*
X-27500Y-44449D02*
D03*
Y-50551D02*
D03*
X9500Y-44449D02*
D03*
Y-50551D02*
D03*
X3500Y-44449D02*
D03*
Y-50551D02*
D03*
X-9500Y-44449D02*
D03*
Y-50551D02*
D03*
X-16500Y-44449D02*
D03*
Y-50551D02*
D03*
X-3000Y-44449D02*
D03*
Y-50551D02*
D03*
X22500Y-44449D02*
D03*
Y-50551D02*
D03*
X30000Y165551D02*
D03*
Y159449D02*
D03*
X-37500Y165551D02*
D03*
Y159449D02*
D03*
X-30000Y165551D02*
D03*
Y159449D02*
D03*
X22500Y165551D02*
D03*
Y159449D02*
D03*
X-37500Y76949D02*
D03*
Y83051D02*
D03*
X10000Y76949D02*
D03*
Y83051D02*
D03*
X2500Y76949D02*
D03*
Y83051D02*
D03*
X32500D02*
D03*
Y76949D02*
D03*
X25000D02*
D03*
Y83051D02*
D03*
X17500Y76949D02*
D03*
Y83051D02*
D03*
X-5000Y76949D02*
D03*
Y83051D02*
D03*
X-22500Y59449D02*
D03*
Y65551D02*
D03*
X-17500Y44449D02*
D03*
Y50551D02*
D03*
X2500Y44449D02*
D03*
Y50551D02*
D03*
X22500Y44449D02*
D03*
Y50551D02*
D03*
X10000Y44449D02*
D03*
Y50551D02*
D03*
X-7000Y44449D02*
D03*
Y50551D02*
D03*
X-35000Y44949D02*
D03*
Y51051D02*
D03*
D153*
X140422Y-70610D02*
D03*
X144578Y-64390D02*
D03*
X120422Y-95610D02*
D03*
X124578Y-89390D02*
D03*
X116008Y-112663D02*
D03*
X120164Y-106443D02*
D03*
X84534Y126514D02*
D03*
X88690Y132734D02*
D03*
X132922Y-45610D02*
D03*
X137078Y-39390D02*
D03*
D154*
X50551Y55000D02*
D03*
X44449D02*
D03*
X50551Y32500D02*
D03*
X44449D02*
D03*
X46949Y-12500D02*
D03*
X53051D02*
D03*
X46949Y10000D02*
D03*
X53051D02*
D03*
X46949Y17500D02*
D03*
X53051D02*
D03*
X46949Y-20000D02*
D03*
X53051D02*
D03*
X46949Y-27500D02*
D03*
X53051D02*
D03*
X46949Y2500D02*
D03*
X53051D02*
D03*
Y-5000D02*
D03*
X46949D02*
D03*
X-46949Y-14500D02*
D03*
X-53051D02*
D03*
X-46949Y-24500D02*
D03*
X-53051D02*
D03*
X-46949Y22500D02*
D03*
X-53051D02*
D03*
X-46949Y15000D02*
D03*
X-53051D02*
D03*
X-46949Y7500D02*
D03*
X-53051D02*
D03*
X-46949Y30000D02*
D03*
X-53051D02*
D03*
Y45000D02*
D03*
X-46949D02*
D03*
X-53051Y52500D02*
D03*
X-46949D02*
D03*
X34449Y-132500D02*
D03*
X40551D02*
D03*
X34449Y-157500D02*
D03*
X40551Y-157500D02*
D03*
X34449Y-145000D02*
D03*
X40551Y-145000D02*
D03*
X34449Y-120000D02*
D03*
X40551Y-120000D02*
D03*
X34449Y-107500D02*
D03*
X40551D02*
D03*
X245860Y-9968D02*
D03*
X251963D02*
D03*
X33051Y137500D02*
D03*
X26949Y137500D02*
D03*
X-49449Y115000D02*
D03*
X-55551Y115000D02*
D03*
X-31949Y-125000D02*
D03*
X-38051D02*
D03*
X25551Y145000D02*
D03*
X19449Y145000D02*
D03*
X-49449Y140000D02*
D03*
X-55551Y140000D02*
D03*
X-46949Y-115000D02*
D03*
X-53051Y-115000D02*
D03*
X-46949Y-135000D02*
D03*
X-53051Y-135000D02*
D03*
X-49449Y152500D02*
D03*
X-55551Y152500D02*
D03*
Y127500D02*
D03*
X-49449Y127500D02*
D03*
X-38051Y-145000D02*
D03*
X-31949Y-145000D02*
D03*
X56949Y90000D02*
D03*
X63051Y90000D02*
D03*
X38051Y127500D02*
D03*
X31949D02*
D03*
X-140551Y15000D02*
D03*
X-134449D02*
D03*
X-163051Y-35000D02*
D03*
X-156949D02*
D03*
X-202500Y0D02*
D03*
X-208602D02*
D03*
X-140551Y-2500D02*
D03*
X-134449D02*
D03*
X-140551Y-10000D02*
D03*
X-134449D02*
D03*
X-49449Y102500D02*
D03*
X-55551D02*
D03*
X50551Y40000D02*
D03*
X44449D02*
D03*
X50551Y47500D02*
D03*
X44449D02*
D03*
D155*
X77015Y-118506D02*
D03*
X80125Y-116428D02*
D03*
X83235Y-114350D02*
D03*
X77985Y-106494D02*
D03*
X71765Y-110650D02*
D03*
D156*
X63913Y-127606D02*
D03*
X70133Y-123450D02*
D03*
X62977Y-119472D02*
D03*
X188158Y139123D02*
D03*
X181938Y134967D02*
D03*
X189094Y130989D02*
D03*
X196491Y126651D02*
D03*
X190272Y122495D02*
D03*
X197428Y118517D02*
D03*
X-196491Y-126651D02*
D03*
X-190272Y-122495D02*
D03*
X-197428Y-118517D02*
D03*
X-188158Y-139123D02*
D03*
X-181938Y-134967D02*
D03*
X-189094Y-130989D02*
D03*
D157*
X-49385Y-228496D02*
D03*
X-47925Y-221160D02*
D03*
X-55799Y-223407D02*
D03*
X-34673Y-231422D02*
D03*
X-33213Y-224086D02*
D03*
X-41087Y-226333D02*
D03*
X49385Y228496D02*
D03*
X47925Y221160D02*
D03*
X55798Y223407D02*
D03*
X34673Y231423D02*
D03*
X33213Y224086D02*
D03*
X41087Y226333D02*
D03*
X-144658Y43121D02*
D03*
X-143199Y50458D02*
D03*
X-151072Y48210D02*
D03*
D158*
X56528Y-227075D02*
D03*
X55069Y-219739D02*
D03*
X48655Y-224828D02*
D03*
X41816Y-230002D02*
D03*
X40357Y-222665D02*
D03*
X33943Y-227754D02*
D03*
X-41816Y230002D02*
D03*
X-40357Y222665D02*
D03*
X-33943Y227754D02*
D03*
X-56528Y227075D02*
D03*
X-55069Y219739D02*
D03*
X-48655Y224828D02*
D03*
X-179301Y-69542D02*
D03*
X-177842Y-76879D02*
D03*
X-171428Y-71789D02*
D03*
D159*
X54558Y-235837D02*
D03*
X55748Y-241822D02*
D03*
X41036Y-244748D02*
D03*
X39846Y-238763D02*
D03*
X48392Y-243285D02*
D03*
X47202Y-237300D02*
D03*
X35130Y-266315D02*
D03*
X33940Y-260330D02*
D03*
X27775Y-267778D02*
D03*
X26584Y-261793D02*
D03*
X76868Y-258294D02*
D03*
X75677Y-252309D02*
D03*
X69512Y-259757D02*
D03*
X68321Y-253772D02*
D03*
X210502Y56603D02*
D03*
X209311Y62589D02*
D03*
X208784Y26798D02*
D03*
X209974Y20813D02*
D03*
X203146Y55140D02*
D03*
X201956Y61125D02*
D03*
X216140Y28261D02*
D03*
X217330Y22276D02*
D03*
X195790Y53677D02*
D03*
X194600Y59662D02*
D03*
X201428Y25335D02*
D03*
X202618Y19350D02*
D03*
X-183095Y-34508D02*
D03*
X-181905Y-40493D02*
D03*
X189000Y27000D02*
D03*
X187810Y32985D02*
D03*
X-273534Y-61494D02*
D03*
X-272344Y-67479D02*
D03*
X144405Y60493D02*
D03*
X145595Y54507D02*
D03*
X273535Y61496D02*
D03*
X272345Y67481D02*
D03*
X156309Y63485D02*
D03*
X157500Y57500D02*
D03*
X-203146Y-55140D02*
D03*
X-201956Y-61125D02*
D03*
X-195790Y-53677D02*
D03*
X-194600Y-59662D02*
D03*
X-209312Y-62588D02*
D03*
X-210502Y-56603D02*
D03*
X-202618Y-19350D02*
D03*
X-201428Y-25335D02*
D03*
X-216140Y-28261D02*
D03*
X-217330Y-22276D02*
D03*
X-208784Y-26798D02*
D03*
X-209974Y-20813D02*
D03*
X-35131Y266315D02*
D03*
X-33940Y260330D02*
D03*
X-69512Y259757D02*
D03*
X-68321Y253772D02*
D03*
X-27775Y267778D02*
D03*
X-26584Y261793D02*
D03*
X-76868Y258294D02*
D03*
X-75677Y252309D02*
D03*
X-54558Y235837D02*
D03*
X-55748Y241822D02*
D03*
X-41036Y244748D02*
D03*
X-39846Y238763D02*
D03*
X-48392Y243285D02*
D03*
X-47202Y237300D02*
D03*
D160*
X20278Y-230091D02*
D03*
X23350Y-245536D02*
D03*
X69317Y-220337D02*
D03*
X72390Y-235782D02*
D03*
X-20278Y230091D02*
D03*
X-23350Y245536D02*
D03*
X-69318Y220337D02*
D03*
X-72390Y235782D02*
D03*
D161*
X97463Y-160695D02*
D03*
X102537Y-157305D02*
D03*
X104656Y-182636D02*
D03*
X99582Y-186026D02*
D03*
X128683Y-166581D02*
D03*
X133757Y-163191D02*
D03*
X108823Y-188872D02*
D03*
X103749Y-192262D02*
D03*
X124517Y-160345D02*
D03*
X129591Y-156955D02*
D03*
X132850Y-172817D02*
D03*
X137924Y-169427D02*
D03*
X100489Y-176400D02*
D03*
X95415Y-179790D02*
D03*
X206247Y137810D02*
D03*
X201173Y134420D02*
D03*
X210414Y131574D02*
D03*
X205340Y128183D02*
D03*
X197006Y140656D02*
D03*
X202080Y144046D02*
D03*
X209216Y169861D02*
D03*
X204142Y166471D02*
D03*
X213383Y163625D02*
D03*
X208309Y160235D02*
D03*
X232599Y134371D02*
D03*
X227525Y130980D02*
D03*
X236766Y128135D02*
D03*
X231692Y124744D02*
D03*
X-100463Y158695D02*
D03*
X-105537Y155305D02*
D03*
X-104656Y182636D02*
D03*
X-99582Y186026D02*
D03*
X-128683Y166581D02*
D03*
X-133757Y163191D02*
D03*
X-108823Y188872D02*
D03*
X-103749Y192262D02*
D03*
X-124517Y160345D02*
D03*
X-129591Y156955D02*
D03*
X-132850Y172817D02*
D03*
X-137924Y169427D02*
D03*
X-100489Y176400D02*
D03*
X-95415Y179790D02*
D03*
X-206247Y-137810D02*
D03*
X-201173Y-134420D02*
D03*
X-210414Y-131574D02*
D03*
X-205340Y-128183D02*
D03*
X-197006Y-140656D02*
D03*
X-202080Y-144046D02*
D03*
X161490Y-229180D02*
D03*
X166564Y-225790D02*
D03*
X139963Y93305D02*
D03*
X145037Y96695D02*
D03*
X-213383Y-163625D02*
D03*
X-208309Y-160235D02*
D03*
X-236766Y-128135D02*
D03*
X-231692Y-124744D02*
D03*
X-209216Y-169861D02*
D03*
X-204142Y-166471D02*
D03*
X-232599Y-134371D02*
D03*
X-227525Y-130980D02*
D03*
X-161490Y229180D02*
D03*
X-166565Y225790D02*
D03*
D162*
X126651Y-196491D02*
D03*
X122495Y-190272D02*
D03*
X118517Y-197428D02*
D03*
X139123Y-188158D02*
D03*
X134967Y-181938D02*
D03*
X130989Y-189094D02*
D03*
X-142606Y-91413D02*
D03*
X-138450Y-97633D02*
D03*
X-134472Y-90477D02*
D03*
X-139123Y188158D02*
D03*
X-134967Y181938D02*
D03*
X-130989Y189094D02*
D03*
X-126651Y196491D02*
D03*
X-122495Y190272D02*
D03*
X-118517Y197428D02*
D03*
D163*
X137810Y-206247D02*
D03*
X134420Y-201173D02*
D03*
X131574Y-210414D02*
D03*
X128183Y-205340D02*
D03*
X140656Y-197006D02*
D03*
X144046Y-202080D02*
D03*
X128135Y-236766D02*
D03*
X124744Y-231692D02*
D03*
X134371Y-232599D02*
D03*
X130980Y-227525D02*
D03*
X163625Y-213383D02*
D03*
X160235Y-208309D02*
D03*
X169861Y-209216D02*
D03*
X166471Y-204142D02*
D03*
X182636Y104656D02*
D03*
X186026Y99582D02*
D03*
X166581Y128683D02*
D03*
X163191Y133757D02*
D03*
X188872Y108823D02*
D03*
X192262Y103749D02*
D03*
X160345Y124517D02*
D03*
X156955Y129591D02*
D03*
X172817Y132850D02*
D03*
X169427Y137924D02*
D03*
X176400Y100489D02*
D03*
X179790Y95415D02*
D03*
X-156695Y-102463D02*
D03*
X-153305Y-107537D02*
D03*
X-229180Y-161490D02*
D03*
X-225790Y-166564D02*
D03*
X229180Y161490D02*
D03*
X225790Y166565D02*
D03*
X89195Y-107537D02*
D03*
X85805Y-102463D02*
D03*
X156695Y102463D02*
D03*
X153305Y107537D02*
D03*
X53305Y-127463D02*
D03*
X56695Y-132537D02*
D03*
X-172817Y-132850D02*
D03*
X-169427Y-137924D02*
D03*
X-160345Y-124517D02*
D03*
X-156955Y-129591D02*
D03*
X-166581Y-128683D02*
D03*
X-163191Y-133757D02*
D03*
X-182636Y-104656D02*
D03*
X-186026Y-99582D02*
D03*
X-188872Y-108823D02*
D03*
X-192262Y-103749D02*
D03*
X-176400Y-100489D02*
D03*
X-179790Y-95415D02*
D03*
X-134371Y232599D02*
D03*
X-130980Y227525D02*
D03*
X-163625Y213383D02*
D03*
X-160235Y208309D02*
D03*
X-128135Y236766D02*
D03*
X-124744Y231692D02*
D03*
X-169861Y209216D02*
D03*
X-166471Y204142D02*
D03*
X-137810Y206247D02*
D03*
X-134420Y201173D02*
D03*
X-131574Y210414D02*
D03*
X-128184Y205340D02*
D03*
X-140656Y197006D02*
D03*
X-144046Y202080D02*
D03*
D164*
X148360Y-177038D02*
D03*
X157109Y-190132D02*
D03*
X106787Y-204816D02*
D03*
X115536Y-217910D02*
D03*
X-106787Y204816D02*
D03*
X-115536Y217910D02*
D03*
X-148360Y177038D02*
D03*
X-157109Y190132D02*
D03*
D165*
X177599Y-123284D02*
D03*
X179021Y-121157D02*
D03*
X180443Y-119029D02*
D03*
X181864Y-116901D02*
D03*
X163196Y-113660D02*
D03*
X164617Y-111533D02*
D03*
X166039Y-109405D02*
D03*
X167461Y-107277D02*
D03*
X-177599Y123284D02*
D03*
X-179021Y121157D02*
D03*
X-180443Y119029D02*
D03*
X-181864Y116901D02*
D03*
X-163196Y113661D02*
D03*
X-164617Y111533D02*
D03*
X-166039Y109405D02*
D03*
X-167461Y107277D02*
D03*
D166*
X216140Y-28261D02*
D03*
X217330Y-22276D02*
D03*
X201428Y-25335D02*
D03*
X202618Y-19350D02*
D03*
X208784Y-26798D02*
D03*
X209974Y-20813D02*
D03*
X195790Y-53677D02*
D03*
X194600Y-59662D02*
D03*
X210502Y-56603D02*
D03*
X209311Y-62588D02*
D03*
X203146Y-55140D02*
D03*
X201956Y-61125D02*
D03*
X-203146Y55140D02*
D03*
X-201956Y61125D02*
D03*
X-208784Y26798D02*
D03*
X-209974Y20813D02*
D03*
X-210502Y56603D02*
D03*
X-209312Y62589D02*
D03*
X-201428Y25335D02*
D03*
X-202618Y19350D02*
D03*
X-216140Y28261D02*
D03*
X-217330Y22276D02*
D03*
X-195790Y53677D02*
D03*
X-194600Y59662D02*
D03*
X184405Y-37993D02*
D03*
X185595Y-32007D02*
D03*
X276246Y-47864D02*
D03*
X277436Y-41879D02*
D03*
X-276246Y47864D02*
D03*
X-277436Y41879D02*
D03*
X-35184Y-266585D02*
D03*
X-33994Y-260600D02*
D03*
X-69458Y-259487D02*
D03*
X-68267Y-253501D02*
D03*
X-48392Y-243285D02*
D03*
X-47202Y-237300D02*
D03*
X-27828Y-268048D02*
D03*
X-26638Y-262063D02*
D03*
X-76814Y-258023D02*
D03*
X-75623Y-252038D02*
D03*
X-55748Y-241822D02*
D03*
X-54558Y-235837D02*
D03*
X-39846Y-238763D02*
D03*
X-41036Y-244748D02*
D03*
X35184Y266585D02*
D03*
X33994Y260600D02*
D03*
X76814Y258023D02*
D03*
X75623Y252038D02*
D03*
X27828Y268048D02*
D03*
X26638Y262063D02*
D03*
X69458Y259487D02*
D03*
X68267Y253502D02*
D03*
X48392Y243285D02*
D03*
X47202Y237300D02*
D03*
X55748Y241822D02*
D03*
X54558Y235837D02*
D03*
X39846Y238763D02*
D03*
X41036Y244748D02*
D03*
D167*
X192204Y-133067D02*
D03*
X185985Y-128911D02*
D03*
X185048Y-137045D02*
D03*
X200538Y-120595D02*
D03*
X194318Y-116439D02*
D03*
X193382Y-124573D02*
D03*
X70000Y112500D02*
D03*
X76220Y108344D02*
D03*
X77156Y116478D02*
D03*
X-200538Y120595D02*
D03*
X-194318Y116439D02*
D03*
X-193382Y124573D02*
D03*
X-192204Y133067D02*
D03*
X-185985Y128911D02*
D03*
X-185048Y137045D02*
D03*
D168*
X177038Y-148360D02*
D03*
X190132Y-157109D02*
D03*
X204816Y-106787D02*
D03*
X217910Y-115536D02*
D03*
X-177038Y148360D02*
D03*
X-190132Y157109D02*
D03*
X-204816Y106787D02*
D03*
X-217910Y115536D02*
D03*
X-164047Y89375D02*
D03*
X-150953Y80625D02*
D03*
D169*
X205340Y-128183D02*
D03*
X210414Y-131574D02*
D03*
X202080Y-144046D02*
D03*
X197006Y-140656D02*
D03*
X206247Y-137810D02*
D03*
X201173Y-134420D02*
D03*
X232828Y-134524D02*
D03*
X227754Y-131133D02*
D03*
X236995Y-128288D02*
D03*
X231921Y-124897D02*
D03*
X208987Y-169708D02*
D03*
X203913Y-166318D02*
D03*
X213154Y-163472D02*
D03*
X208080Y-160082D02*
D03*
X128683Y166581D02*
D03*
X133757Y163191D02*
D03*
X132850Y172817D02*
D03*
X137924Y169427D02*
D03*
X124517Y160345D02*
D03*
X129591Y156955D02*
D03*
X108823Y188872D02*
D03*
X103749Y192262D02*
D03*
X100489Y176400D02*
D03*
X95415Y179790D02*
D03*
X104656Y182636D02*
D03*
X99582Y186026D02*
D03*
X106537Y155305D02*
D03*
X101463Y158695D02*
D03*
X-106537Y-155305D02*
D03*
X-101463Y-158695D02*
D03*
X-149935Y-236901D02*
D03*
X-144861Y-240292D02*
D03*
X70037Y100805D02*
D03*
X64963Y104195D02*
D03*
X149934Y236903D02*
D03*
X144861Y240293D02*
D03*
X-128683Y-166581D02*
D03*
X-133757Y-163191D02*
D03*
X-104656Y-182636D02*
D03*
X-99582Y-186026D02*
D03*
X-132850Y-172817D02*
D03*
X-137924Y-169427D02*
D03*
X-100489Y-176400D02*
D03*
X-95415Y-179790D02*
D03*
X-108823Y-188872D02*
D03*
X-103749Y-192262D02*
D03*
X-124517Y-160345D02*
D03*
X-129591Y-156955D02*
D03*
X-236995Y128288D02*
D03*
X-231921Y124897D02*
D03*
X-232828Y134524D02*
D03*
X-227754Y131133D02*
D03*
X-208987Y169708D02*
D03*
X-203913Y166318D02*
D03*
X-213154Y163472D02*
D03*
X-208080Y160082D02*
D03*
X-206247Y137810D02*
D03*
X-201173Y134420D02*
D03*
X-202080Y144046D02*
D03*
X-197006Y140656D02*
D03*
X-205340Y128184D02*
D03*
X-210414Y131574D02*
D03*
D170*
X243681Y-99394D02*
D03*
X242928Y-101213D02*
D03*
X242175Y-103032D02*
D03*
X236319Y-100606D02*
D03*
X237072Y-98787D02*
D03*
X237825Y-96969D02*
D03*
D171*
X223456Y-98931D02*
D03*
X216545Y-96069D02*
D03*
X234045Y-108569D02*
D03*
X240955Y-111431D02*
D03*
D172*
X231422Y-34673D02*
D03*
X224086Y-33213D02*
D03*
X226333Y-41087D02*
D03*
X228496Y-49385D02*
D03*
X221160Y-47925D02*
D03*
X223407Y-55798D02*
D03*
X-231423Y34673D02*
D03*
X-224086Y33213D02*
D03*
X-226333Y41087D02*
D03*
X-228496Y49385D02*
D03*
X-221160Y47925D02*
D03*
X-223407Y55799D02*
D03*
D173*
X220337Y-69317D02*
D03*
X235782Y-72390D02*
D03*
X230091Y-20278D02*
D03*
X245536Y-23350D02*
D03*
X-180223Y54036D02*
D03*
X-164777Y50964D02*
D03*
X-230091Y20278D02*
D03*
X-245536Y23350D02*
D03*
X-220337Y69318D02*
D03*
X-235782Y72390D02*
D03*
D174*
X238763Y-39846D02*
D03*
X244748Y-41036D02*
D03*
X241822Y-55748D02*
D03*
X235837Y-54558D02*
D03*
X243285Y-48392D02*
D03*
X237300Y-47202D02*
D03*
X259487Y-69458D02*
D03*
X253501Y-68267D02*
D03*
X268048Y-27828D02*
D03*
X262063Y-26638D02*
D03*
X258023Y-76814D02*
D03*
X252038Y-75623D02*
D03*
X266585Y-35184D02*
D03*
X260600Y-33994D02*
D03*
X40993Y183405D02*
D03*
X35008Y184595D02*
D03*
X47864Y276246D02*
D03*
X41879Y277436D02*
D03*
X-47864Y-276246D02*
D03*
X-41879Y-277436D02*
D03*
X-53677Y-195790D02*
D03*
X-59662Y-194600D02*
D03*
X-28261Y-216140D02*
D03*
X-22276Y-217330D02*
D03*
X-25335Y-201428D02*
D03*
X-19350Y-202618D02*
D03*
X-56603Y-210502D02*
D03*
X-62589Y-209311D02*
D03*
X-26798Y-208784D02*
D03*
X-20813Y-209974D02*
D03*
X-55140Y-203146D02*
D03*
X-61125Y-201956D02*
D03*
X-40492Y-184405D02*
D03*
X-34507Y-185595D02*
D03*
X-268076Y27755D02*
D03*
X-262091Y26565D02*
D03*
X-266585Y35183D02*
D03*
X-260600Y33993D02*
D03*
X-258023Y76814D02*
D03*
X-252038Y75623D02*
D03*
X-259487Y69458D02*
D03*
X-253502Y68267D02*
D03*
X-238763Y39846D02*
D03*
X-244748Y41036D02*
D03*
X-241822Y55748D02*
D03*
X-235837Y54558D02*
D03*
X-243285Y48392D02*
D03*
X-237300Y47202D02*
D03*
X26798Y208784D02*
D03*
X20813Y209974D02*
D03*
X25335Y201428D02*
D03*
X19350Y202618D02*
D03*
X28261Y216140D02*
D03*
X22276Y217330D02*
D03*
X53677Y195790D02*
D03*
X59662Y194600D02*
D03*
X56603Y210502D02*
D03*
X62588Y209312D02*
D03*
X55140Y203146D02*
D03*
X61125Y201956D02*
D03*
D175*
X211259Y-45936D02*
D03*
X211758Y-43426D02*
D03*
X212258Y-40916D02*
D03*
X212757Y-38406D02*
D03*
X194269Y-42556D02*
D03*
X194768Y-40046D02*
D03*
X195268Y-37536D02*
D03*
X195767Y-35027D02*
D03*
X-211259Y45936D02*
D03*
X-211758Y43426D02*
D03*
X-212258Y40916D02*
D03*
X-212757Y38406D02*
D03*
X-194269Y42556D02*
D03*
X-194768Y40046D02*
D03*
X-195268Y37537D02*
D03*
X-195767Y35027D02*
D03*
D176*
X220316Y-2314D02*
D03*
X227600Y1426D02*
D03*
Y-6055D02*
D03*
X202288Y-2296D02*
D03*
X209572Y1445D02*
D03*
X209572Y-6036D02*
D03*
X-48858Y-49240D02*
D03*
Y-41760D02*
D03*
X-56142Y-45500D02*
D03*
X-96142Y-73760D02*
D03*
Y-81240D02*
D03*
X-88858Y-77500D02*
D03*
D177*
X210524Y10176D02*
D03*
X218004Y10177D02*
D03*
X245190Y8060D02*
D03*
X252670D02*
D03*
X252661Y-954D02*
D03*
X245181Y-954D02*
D03*
X56240Y-65000D02*
D03*
X48760D02*
D03*
X53740Y-95000D02*
D03*
X46260D02*
D03*
X150955Y4035D02*
D03*
X143475Y4035D02*
D03*
X150946Y-4979D02*
D03*
X143465D02*
D03*
X150936Y-13993D02*
D03*
X143456D02*
D03*
X-141240Y7500D02*
D03*
X-133760D02*
D03*
X-48760Y95000D02*
D03*
X-56240D02*
D03*
X-48760Y67500D02*
D03*
X-56240D02*
D03*
D178*
X227075Y56528D02*
D03*
X219739Y55069D02*
D03*
X224828Y48655D02*
D03*
X230002Y41816D02*
D03*
X222665Y40357D02*
D03*
X227754Y33943D02*
D03*
X-227075Y-56528D02*
D03*
X-219739Y-55069D02*
D03*
X-224828Y-48655D02*
D03*
X-230002Y-41816D02*
D03*
X-222665Y-40357D02*
D03*
X-227754Y-33943D02*
D03*
D179*
X230091Y20278D02*
D03*
X245536Y23350D02*
D03*
X220337Y69317D02*
D03*
X235782Y72390D02*
D03*
X-220337Y-69317D02*
D03*
X-235782Y-72390D02*
D03*
X-180223Y-54036D02*
D03*
X-164777Y-50964D02*
D03*
X-230091Y-20278D02*
D03*
X-245536Y-23350D02*
D03*
D180*
X120595Y200538D02*
D03*
X116439Y194318D02*
D03*
X124573Y193382D02*
D03*
X133067Y192204D02*
D03*
X128911Y185985D02*
D03*
X137045Y185048D02*
D03*
X-133067Y-192204D02*
D03*
X-128911Y-185985D02*
D03*
X-137045Y-185048D02*
D03*
X-120595Y-200538D02*
D03*
X-116439Y-194318D02*
D03*
X-124573Y-193382D02*
D03*
X-134050Y64867D02*
D03*
X-129894Y71087D02*
D03*
X-138028Y72023D02*
D03*
D181*
X204816Y106787D02*
D03*
X217910Y115536D02*
D03*
X177038Y148360D02*
D03*
X190132Y157109D02*
D03*
X-177038Y-148360D02*
D03*
X-190132Y-157109D02*
D03*
X-164047Y-89375D02*
D03*
X-150953Y-80625D02*
D03*
X-204816Y-106787D02*
D03*
X-217910Y-115536D02*
D03*
D182*
X106787Y204816D02*
D03*
X115536Y217910D02*
D03*
X148360Y177038D02*
D03*
X157109Y190132D02*
D03*
X-106787Y-204816D02*
D03*
X-115536Y-217910D02*
D03*
X-148360Y-177038D02*
D03*
X-157109Y-190132D02*
D03*
D183*
X236439Y-4685D02*
D03*
D184*
X69317Y220337D02*
D03*
X72390Y235782D02*
D03*
X-69318Y-220337D02*
D03*
X-72390Y-235782D02*
D03*
X20278Y230091D02*
D03*
X23350Y245536D02*
D03*
X-20278Y-230091D02*
D03*
X-23350Y-245536D02*
D03*
D185*
X45936Y211259D02*
D03*
X43426Y211758D02*
D03*
X40916Y212258D02*
D03*
X38406Y212757D02*
D03*
X42556Y194269D02*
D03*
X40046Y194768D02*
D03*
X37536Y195268D02*
D03*
X35027Y195767D02*
D03*
X-45936Y-211259D02*
D03*
X-43426Y-211758D02*
D03*
X-40916Y-212258D02*
D03*
X-38406Y-212757D02*
D03*
X-42556Y-194269D02*
D03*
X-40046Y-194768D02*
D03*
X-37537Y-195268D02*
D03*
X-35027Y-195767D02*
D03*
D186*
X-181864Y-116901D02*
D03*
X-180443Y-119029D02*
D03*
X-179021Y-121157D02*
D03*
X-177599Y-123284D02*
D03*
X-167461Y-107277D02*
D03*
X-166039Y-109405D02*
D03*
X-164617Y-111533D02*
D03*
X-163196Y-113660D02*
D03*
X181864Y116901D02*
D03*
X180443Y119029D02*
D03*
X179021Y121157D02*
D03*
X177599Y123284D02*
D03*
X167461Y107277D02*
D03*
X166039Y109405D02*
D03*
X164617Y111533D02*
D03*
X163196Y113661D02*
D03*
D187*
X38406Y-212757D02*
D03*
X40916Y-212258D02*
D03*
X43426Y-211758D02*
D03*
X45936Y-211259D02*
D03*
X35027Y-195767D02*
D03*
X37536Y-195268D02*
D03*
X40046Y-194768D02*
D03*
X42556Y-194269D02*
D03*
X-38406Y212757D02*
D03*
X-40916Y212258D02*
D03*
X-43426Y211758D02*
D03*
X-45936Y211259D02*
D03*
X-35027Y195767D02*
D03*
X-37537Y195268D02*
D03*
X-40046Y194768D02*
D03*
X-42556Y194269D02*
D03*
D188*
X123284Y177599D02*
D03*
X121157Y179021D02*
D03*
X119029Y180443D02*
D03*
X116901Y181864D02*
D03*
X113660Y163196D02*
D03*
X111533Y164617D02*
D03*
X109405Y166039D02*
D03*
X107277Y167461D02*
D03*
X-123284Y-177599D02*
D03*
X-121157Y-179021D02*
D03*
X-119029Y-180443D02*
D03*
X-116901Y-181864D02*
D03*
X-113661Y-163196D02*
D03*
X-111533Y-164617D02*
D03*
X-109405Y-166039D02*
D03*
X-107277Y-167461D02*
D03*
D189*
X-116901Y181864D02*
D03*
X-119029Y180443D02*
D03*
X-121157Y179021D02*
D03*
X-123284Y177599D02*
D03*
X-107277Y167461D02*
D03*
X-109405Y166039D02*
D03*
X-111533Y164617D02*
D03*
X-113661Y163196D02*
D03*
X116901Y-181864D02*
D03*
X119029Y-180443D02*
D03*
X121157Y-179021D02*
D03*
X123284Y-177599D02*
D03*
X107277Y-167461D02*
D03*
X109405Y-166039D02*
D03*
X111533Y-164617D02*
D03*
X113660Y-163196D02*
D03*
D190*
X-212757Y-38406D02*
D03*
X-212258Y-40916D02*
D03*
X-211758Y-43426D02*
D03*
X-211259Y-45936D02*
D03*
X-195767Y-35027D02*
D03*
X-195268Y-37536D02*
D03*
X-194768Y-40046D02*
D03*
X-194269Y-42556D02*
D03*
X212757Y38406D02*
D03*
X212258Y40916D02*
D03*
X211758Y43426D02*
D03*
X211259Y45936D02*
D03*
X195767Y35027D02*
D03*
X195268Y37537D02*
D03*
X194768Y40047D02*
D03*
X194269Y42556D02*
D03*
D191*
X188390Y83922D02*
D03*
X194610Y88078D02*
D03*
X126514Y84534D02*
D03*
X132734Y88690D02*
D03*
D192*
X167500Y-12874D02*
D03*
Y2874D02*
D03*
D193*
X124383Y-39665D02*
D03*
X130617Y-30335D02*
D03*
X96883Y-79665D02*
D03*
X103117Y-70335D02*
D03*
X173117Y-60335D02*
D03*
X166883Y-69665D02*
D03*
D194*
X104626Y62500D02*
D03*
X120374Y62500D02*
D03*
D195*
X212436Y87995D02*
D03*
X226985Y94021D02*
D03*
D196*
X0Y-188189D02*
D03*
Y-161811D02*
D03*
Y161811D02*
D03*
Y188189D02*
D03*
D197*
X107591Y107591D02*
D03*
X112881Y112881D02*
D03*
D198*
X58228Y140575D02*
D03*
X61091Y147486D02*
D03*
D199*
X245762Y101798D02*
D03*
X261221Y108202D02*
D03*
D200*
X190000Y-13366D02*
D03*
X190000Y3366D02*
D03*
D201*
X0Y293000D02*
D03*
X-293000Y0D02*
D03*
D202*
X0Y-293000D02*
D03*
D203*
X-78705Y45000D02*
D03*
X-106295D02*
D03*
Y35000D02*
D03*
Y25000D02*
D03*
Y5000D02*
D03*
X-78705Y15000D02*
D03*
X-106295D02*
D03*
X-78705Y5000D02*
D03*
Y25000D02*
D03*
Y35000D02*
D03*
Y-5000D02*
D03*
Y-15000D02*
D03*
Y-45000D02*
D03*
Y-35000D02*
D03*
X-106295Y-25000D02*
D03*
X-78705D02*
D03*
X-106295Y-35000D02*
D03*
Y-45000D02*
D03*
Y-15000D02*
D03*
Y-5000D02*
D03*
Y-130000D02*
D03*
Y-120000D02*
D03*
X-78705Y-110000D02*
D03*
X-106295D02*
D03*
X-78705Y-120000D02*
D03*
Y-130000D02*
D03*
D204*
X150203Y-55937D02*
D03*
X154797Y-49063D02*
D03*
X117797Y-45563D02*
D03*
X113203Y-52437D02*
D03*
X93360Y-88060D02*
D03*
X88766Y-94934D02*
D03*
D205*
X135807Y51864D02*
D03*
X134194Y59973D02*
D03*
X173830Y21692D02*
D03*
X172217Y29801D02*
D03*
D206*
X92211Y97789D02*
D03*
X97500Y92500D02*
D03*
X100005Y100295D02*
D03*
D207*
X47651Y123067D02*
D03*
X54562Y120204D02*
D03*
X53894Y128365D02*
D03*
D208*
X68668Y142819D02*
D03*
X66332Y137181D02*
D03*
D209*
X105000Y120000D02*
D03*
X100685Y115685D02*
D03*
D210*
X89657Y85343D02*
D03*
X85343Y89657D02*
D03*
D211*
X95927Y-120747D02*
D03*
X69902Y-138136D02*
D03*
X105770Y-135478D02*
D03*
X79745Y-152867D02*
D03*
D212*
X199562Y78796D02*
D03*
X192651Y75933D02*
D03*
X198894Y70635D02*
D03*
D213*
X93937Y31142D02*
D03*
X91969D02*
D03*
X90000D02*
D03*
X88032D02*
D03*
X86063D02*
D03*
Y48858D02*
D03*
X88032D02*
D03*
X90000D02*
D03*
X91969D02*
D03*
X93937D02*
D03*
D214*
X108248Y35571D02*
D03*
Y44429D02*
D03*
X101752D02*
D03*
Y35571D02*
D03*
D215*
X127585Y-53047D02*
D03*
X125507Y-56157D02*
D03*
X123429Y-59267D02*
D03*
X132922Y-65610D02*
D03*
X135000Y-62500D02*
D03*
X137078Y-59390D02*
D03*
X102945Y-94938D02*
D03*
X100867Y-98048D02*
D03*
X98789Y-101157D02*
D03*
X108282Y-107501D02*
D03*
X110360Y-104391D02*
D03*
X112438Y-101281D02*
D03*
D216*
X130253Y-59328D02*
D03*
X105614Y-101219D02*
D03*
D217*
X165505Y18740D02*
D03*
X158168Y17281D02*
D03*
X156325Y26548D02*
D03*
X159993Y27278D02*
D03*
X163661Y28008D02*
D03*
D218*
X46260Y-86142D02*
D03*
X53740D02*
D03*
X50000Y-78858D02*
D03*
X-52500Y78858D02*
D03*
X-56240Y86142D02*
D03*
X-48760D02*
D03*
D219*
X-10827Y-131653D02*
D03*
X-8858D02*
D03*
X-6890D02*
D03*
X-4921D02*
D03*
X-2953D02*
D03*
X-984D02*
D03*
X984D02*
D03*
X2953D02*
D03*
X4921D02*
D03*
X6890D02*
D03*
X8858D02*
D03*
X10827D02*
D03*
Y-99567D02*
D03*
X8858D02*
D03*
X6890D02*
D03*
X4921D02*
D03*
X2953D02*
D03*
X984D02*
D03*
X-984D02*
D03*
X-2953D02*
D03*
X-4921D02*
D03*
X-6890D02*
D03*
X-8858D02*
D03*
X-10827D02*
D03*
X-183327Y-16043D02*
D03*
X-181358D02*
D03*
X-179390D02*
D03*
X-177421D02*
D03*
X-175453D02*
D03*
X-173484D02*
D03*
X-171516D02*
D03*
X-169547D02*
D03*
X-167579D02*
D03*
X-165610D02*
D03*
X-163642D02*
D03*
X-161673D02*
D03*
Y16043D02*
D03*
X-163642D02*
D03*
X-165610D02*
D03*
X-167579D02*
D03*
X-169547D02*
D03*
X-171516D02*
D03*
X-173484D02*
D03*
X-175453D02*
D03*
X-177421D02*
D03*
X-179390D02*
D03*
X-181358D02*
D03*
X-183327D02*
D03*
X10827Y99567D02*
D03*
X8858D02*
D03*
X6890D02*
D03*
X4921D02*
D03*
X2953D02*
D03*
X984D02*
D03*
X-984D02*
D03*
X-2953D02*
D03*
X-4921D02*
D03*
X-6890D02*
D03*
X-8858D02*
D03*
X-10827D02*
D03*
Y131653D02*
D03*
X-8858D02*
D03*
X-6890D02*
D03*
X-4921D02*
D03*
X-2953D02*
D03*
X-984D02*
D03*
X984D02*
D03*
X2953D02*
D03*
X4921D02*
D03*
X6890D02*
D03*
X8858D02*
D03*
X10827D02*
D03*
D220*
X16043Y-126437D02*
D03*
Y-124469D02*
D03*
Y-122500D02*
D03*
Y-120531D02*
D03*
Y-118563D02*
D03*
Y-116595D02*
D03*
Y-114626D02*
D03*
Y-112657D02*
D03*
Y-110689D02*
D03*
Y-108721D02*
D03*
Y-106752D02*
D03*
Y-104783D02*
D03*
X-16043D02*
D03*
Y-106752D02*
D03*
Y-108721D02*
D03*
Y-110689D02*
D03*
Y-112657D02*
D03*
Y-114626D02*
D03*
Y-116595D02*
D03*
Y-118563D02*
D03*
Y-120531D02*
D03*
Y-122500D02*
D03*
Y-124469D02*
D03*
Y-126437D02*
D03*
X-156457Y-10827D02*
D03*
Y-8858D02*
D03*
Y-6890D02*
D03*
Y-4921D02*
D03*
Y-2953D02*
D03*
Y-984D02*
D03*
Y984D02*
D03*
Y2953D02*
D03*
Y4921D02*
D03*
Y6890D02*
D03*
Y8858D02*
D03*
Y10827D02*
D03*
X-188543D02*
D03*
Y8858D02*
D03*
Y6890D02*
D03*
Y4921D02*
D03*
Y2953D02*
D03*
Y984D02*
D03*
Y-984D02*
D03*
Y-2953D02*
D03*
Y-4921D02*
D03*
Y-6890D02*
D03*
Y-8858D02*
D03*
Y-10827D02*
D03*
X16043Y126437D02*
D03*
Y124469D02*
D03*
Y122500D02*
D03*
Y120531D02*
D03*
Y118563D02*
D03*
Y116595D02*
D03*
Y114626D02*
D03*
Y112657D02*
D03*
Y110689D02*
D03*
Y108721D02*
D03*
Y106752D02*
D03*
Y104783D02*
D03*
X-16043D02*
D03*
Y106752D02*
D03*
Y108721D02*
D03*
Y110689D02*
D03*
Y112657D02*
D03*
Y114626D02*
D03*
Y116595D02*
D03*
Y118563D02*
D03*
Y120531D02*
D03*
Y122500D02*
D03*
Y124469D02*
D03*
Y126437D02*
D03*
D221*
X-98174Y98174D02*
D03*
X-116826Y116826D02*
D03*
D222*
X-286127Y-102884D02*
D03*
D223*
X-239490Y-96137D02*
D03*
X-247698Y-118500D02*
D03*
D224*
X-281889Y-132662D02*
D03*
D225*
X-274977Y129799D02*
D03*
D226*
X-237228Y101592D02*
D03*
X-258846Y91583D02*
D03*
D227*
X-293037Y105746D02*
D03*
D228*
X-280610Y0D02*
D03*
X-269390D02*
D03*
D229*
X274681Y113832D02*
D03*
X280319Y116168D02*
D03*
X-217181Y-93832D02*
D03*
X-222819Y-96168D02*
D03*
X-219681Y-86332D02*
D03*
X-225319Y-88668D02*
D03*
X-202181Y-88832D02*
D03*
X-207819Y-91168D02*
D03*
X-187181Y-83832D02*
D03*
X-192819Y-86168D02*
D03*
X-204681Y-81332D02*
D03*
X-210319Y-83668D02*
D03*
X-189681Y-76332D02*
D03*
X-195319Y-78668D02*
D03*
D230*
X0Y278110D02*
D03*
Y266890D02*
D03*
Y-278110D02*
D03*
Y-266890D02*
D03*
D231*
X271603Y-103127D02*
D03*
X264974Y-119131D02*
D03*
D232*
X-306648Y-33459D02*
D03*
X-296110Y-86437D02*
D03*
X-270502Y-148261D02*
D03*
X-240492Y-193174D02*
D03*
X-193174Y-240492D02*
D03*
X-148261Y-270502D02*
D03*
X-86437Y-296110D02*
D03*
X-33459Y-306648D02*
D03*
X33459Y-306648D02*
D03*
X86437Y-296110D02*
D03*
X148261Y-270502D02*
D03*
X193174Y-240492D02*
D03*
X240492Y-193174D02*
D03*
X270502Y-148261D02*
D03*
X296110Y-86437D02*
D03*
X306648Y-33459D02*
D03*
X193174Y240492D02*
D03*
X148261Y270502D02*
D03*
X270502Y148261D02*
D03*
X240492Y193174D02*
D03*
X306648Y33459D02*
D03*
X296110Y86437D02*
D03*
X-296110Y86437D02*
D03*
X-306648Y33459D02*
D03*
X-240492Y193174D02*
D03*
X-270502Y148261D02*
D03*
X-148262Y270502D02*
D03*
X-193175Y240492D02*
D03*
X-33459Y306648D02*
D03*
X-86437Y296110D02*
D03*
X86437Y296110D02*
D03*
X33459Y306648D02*
D03*
D233*
X-263619Y-60084D02*
D03*
X263619Y60084D02*
D03*
D234*
X-254787Y-53229D02*
D03*
X-265570Y-50276D02*
D03*
X-256738Y-43421D02*
D03*
X-215022Y-146680D02*
D03*
X-226115Y-148078D02*
D03*
X-220578Y-138365D02*
D03*
X-142523Y-217800D02*
D03*
X-152236Y-223337D02*
D03*
X-150837Y-212245D02*
D03*
X-48325Y-255762D02*
D03*
X-55180Y-264595D02*
D03*
X-58133Y-253811D02*
D03*
X53229Y-254787D02*
D03*
X50276Y-265570D02*
D03*
X43421Y-256738D02*
D03*
X146680Y-215022D02*
D03*
X148078Y-226115D02*
D03*
X138365Y-220578D02*
D03*
X217800Y-142523D02*
D03*
X223337Y-152236D02*
D03*
X212245Y-150837D02*
D03*
X255762Y-48325D02*
D03*
X264595Y-55180D02*
D03*
X253811Y-58133D02*
D03*
X142523Y217800D02*
D03*
X152236Y223337D02*
D03*
X150837Y212245D02*
D03*
X215022Y146680D02*
D03*
X226115Y148078D02*
D03*
X220578Y138365D02*
D03*
X254787Y53229D02*
D03*
X265570Y50276D02*
D03*
X256738Y43421D02*
D03*
X-255762Y48325D02*
D03*
X-264595Y55180D02*
D03*
X-253811Y58133D02*
D03*
X-217800Y142523D02*
D03*
X-223337Y152236D02*
D03*
X-212245Y150837D02*
D03*
X-146681Y215022D02*
D03*
X-148079Y226115D02*
D03*
X-138366Y220578D02*
D03*
X-53229Y254787D02*
D03*
X-50276Y265570D02*
D03*
X-43421Y256738D02*
D03*
X48325Y255762D02*
D03*
X55180Y264595D02*
D03*
X58133Y253811D02*
D03*
D235*
X-293504Y-37990D02*
D03*
X-285700Y-77221D02*
D03*
X-256624Y-147417D02*
D03*
X-234401Y-180676D02*
D03*
X-180676Y-234401D02*
D03*
X-147417Y-256624D02*
D03*
X-77221Y-285700D02*
D03*
X-37990Y-293504D02*
D03*
X37990D02*
D03*
X77221Y-285700D02*
D03*
X147417Y-256624D02*
D03*
X180676Y-234401D02*
D03*
X234401Y-180676D02*
D03*
X256624Y-147417D02*
D03*
X285700Y-77221D02*
D03*
X293504Y-37990D02*
D03*
X180676Y234401D02*
D03*
X147417Y256624D02*
D03*
X256624Y147417D02*
D03*
X234401Y180676D02*
D03*
X293504Y37990D02*
D03*
X285700Y77221D02*
D03*
X-285700Y77221D02*
D03*
X-293504Y37990D02*
D03*
X-234401Y180676D02*
D03*
X-256624Y147417D02*
D03*
X-147418Y256624D02*
D03*
X-180677Y234401D02*
D03*
X-37990Y293504D02*
D03*
X-77221Y285700D02*
D03*
X77221Y285700D02*
D03*
X37990Y293504D02*
D03*
D236*
X-220559Y-156393D02*
D03*
X220559Y156393D02*
D03*
D237*
X-143921Y-228893D02*
D03*
X143921Y228893D02*
D03*
D238*
X-45372Y-266546D02*
D03*
X45372Y266546D02*
D03*
D239*
X60084Y-263619D02*
D03*
X-60084Y263619D02*
D03*
D240*
X156393Y-220559D02*
D03*
X-156394Y220559D02*
D03*
D241*
X228893Y-143921D02*
D03*
X-228893Y143921D02*
D03*
D242*
X266546Y-45372D02*
D03*
X-266546Y45372D02*
D03*
D243*
X284205Y18898D02*
D03*
X297000Y0D02*
D03*
D244*
X272394Y0D02*
D03*
D245*
X210000Y210000D02*
D03*
Y-210000D02*
D03*
X-210000D02*
D03*
D246*
Y210000D02*
D03*
D247*
X-258001Y-107001D02*
D03*
D248*
X-283463Y-117547D02*
D03*
D249*
X-258000Y107000D02*
D03*
D250*
X-283461Y117546D02*
D03*
D251*
X141000Y-114000D02*
D03*
X109000Y-115000D02*
D03*
X136000Y-113000D02*
D03*
X124500Y-103000D02*
D03*
X228000Y-81000D02*
D03*
M02*
