G04 Layer_Color=2752767*
%FSLAX25Y25*%
%MOIN*%
G70*
G01*
G75*
%ADD139C,0.00500*%
%ADD141C,0.00400*%
%ADD262C,0.00667*%
D139*
X269603Y-105127D02*
Y-101127D01*
X273603D01*
Y-105127D01*
X269603D01*
X262974Y-121131D02*
Y-117131D01*
X266974D01*
Y-121131D01*
X262974D01*
X-263619Y-62084D02*
X-265619Y-58084D01*
X-261619D01*
X-263619Y-62084D01*
X-254787Y-55229D02*
X-256787Y-51229D01*
X-252787D01*
X-254787Y-55229D01*
X-265570Y-52276D02*
X-267570Y-48276D01*
X-263570D01*
X-265570Y-52276D01*
X-256738Y-45421D02*
X-258738Y-41421D01*
X-254738D01*
X-256738Y-45421D01*
X-293504Y-39990D02*
X-292504Y-38990D01*
X-291504D01*
X-292504Y-37990D01*
X-291504Y-36990D01*
X-292504D01*
X-293504Y-35990D01*
X-294504Y-36990D01*
X-295504D01*
X-294504Y-37990D01*
X-295504Y-38990D01*
X-294504D01*
X-293504Y-39990D01*
X-285700Y-79221D02*
X-284700Y-78221D01*
X-283700D01*
X-284700Y-77221D01*
X-283700Y-76221D01*
X-284700D01*
X-285700Y-75221D01*
X-286700Y-76221D01*
X-287700D01*
X-286700Y-77221D01*
X-287700Y-78221D01*
X-286700D01*
X-285700Y-79221D01*
X-220559Y-158393D02*
X-222559Y-154393D01*
X-218559D01*
X-220559Y-158393D01*
X-215022Y-148680D02*
X-217022Y-144680D01*
X-213022D01*
X-215022Y-148680D01*
X-226115Y-150078D02*
X-228115Y-146078D01*
X-224115D01*
X-226115Y-150078D01*
X-220578Y-140365D02*
X-222578Y-136365D01*
X-218578D01*
X-220578Y-140365D01*
X-256624Y-149417D02*
X-255624Y-148417D01*
X-254624D01*
X-255624Y-147417D01*
X-254624Y-146417D01*
X-255624D01*
X-256624Y-145417D01*
X-257624Y-146417D01*
X-258624D01*
X-257624Y-147417D01*
X-258624Y-148417D01*
X-257624D01*
X-256624Y-149417D01*
X-234401Y-182676D02*
X-233401Y-181676D01*
X-232401D01*
X-233401Y-180676D01*
X-232401Y-179676D01*
X-233401D01*
X-234401Y-178676D01*
X-235401Y-179676D01*
X-236401D01*
X-235401Y-180676D01*
X-236401Y-181676D01*
X-235401D01*
X-234401Y-182676D01*
X-143921Y-230893D02*
X-145921Y-226893D01*
X-141921D01*
X-143921Y-230893D01*
X-142523Y-219800D02*
X-144523Y-215800D01*
X-140523D01*
X-142523Y-219800D01*
X-152236Y-225337D02*
X-154236Y-221337D01*
X-150236D01*
X-152236Y-225337D01*
X-150837Y-214245D02*
X-152837Y-210244D01*
X-148837D01*
X-150837Y-214245D01*
X-180676Y-236401D02*
X-179676Y-235401D01*
X-178676D01*
X-179676Y-234401D01*
X-178676Y-233401D01*
X-179676D01*
X-180676Y-232401D01*
X-181676Y-233401D01*
X-182676D01*
X-181676Y-234401D01*
X-182676Y-235401D01*
X-181676D01*
X-180676Y-236401D01*
X-147417Y-258624D02*
X-146417Y-257624D01*
X-145417D01*
X-146417Y-256624D01*
X-145417Y-255624D01*
X-146417D01*
X-147417Y-254624D01*
X-148417Y-255624D01*
X-149417D01*
X-148417Y-256624D01*
X-149417Y-257624D01*
X-148417D01*
X-147417Y-258624D01*
X-45372Y-268546D02*
X-47372Y-264545D01*
X-43372D01*
X-45372Y-268546D01*
X-48325Y-257762D02*
X-50325Y-253762D01*
X-46325D01*
X-48325Y-257762D01*
X-55180Y-266595D02*
X-57180Y-262595D01*
X-53180D01*
X-55180Y-266595D01*
X-58133Y-255811D02*
X-60133Y-251811D01*
X-56133D01*
X-58133Y-255811D01*
X-77221Y-287700D02*
X-76221Y-286700D01*
X-75221D01*
X-76221Y-285700D01*
X-75221Y-284700D01*
X-76221D01*
X-77221Y-283700D01*
X-78221Y-284700D01*
X-79221D01*
X-78221Y-285700D01*
X-79221Y-286700D01*
X-78221D01*
X-77221Y-287700D01*
X-37990Y-295504D02*
X-36990Y-294504D01*
X-35990D01*
X-36990Y-293504D01*
X-35990Y-292504D01*
X-36990D01*
X-37990Y-291504D01*
X-38990Y-292504D01*
X-39990D01*
X-38990Y-293504D01*
X-39990Y-294504D01*
X-38990D01*
X-37990Y-295504D01*
X60084Y-265619D02*
X58084Y-261619D01*
X62084D01*
X60084Y-265619D01*
X53229Y-256787D02*
X51229Y-252787D01*
X55229D01*
X53229Y-256787D01*
X50276Y-267570D02*
X48276Y-263570D01*
X52276D01*
X50276Y-267570D01*
X43421Y-258738D02*
X41421Y-254738D01*
X45421D01*
X43421Y-258738D01*
X37990Y-295504D02*
X38990Y-294504D01*
X39990D01*
X38990Y-293504D01*
X39990Y-292504D01*
X38990D01*
X37990Y-291504D01*
X36990Y-292504D01*
X35990D01*
X36990Y-293504D01*
X35990Y-294504D01*
X36990D01*
X37990Y-295504D01*
X77221Y-287700D02*
X78221Y-286700D01*
X79221D01*
X78221Y-285700D01*
X79221Y-284700D01*
X78221D01*
X77221Y-283700D01*
X76221Y-284700D01*
X75221D01*
X76221Y-285700D01*
X75221Y-286700D01*
X76221D01*
X77221Y-287700D01*
X156393Y-222559D02*
X154393Y-218559D01*
X158393D01*
X156393Y-222559D01*
X146680Y-217022D02*
X144680Y-213022D01*
X148680D01*
X146680Y-217022D01*
X148078Y-228115D02*
X146078Y-224115D01*
X150078D01*
X148078Y-228115D01*
X138365Y-222578D02*
X136365Y-218578D01*
X140365D01*
X138365Y-222578D01*
X147417Y-258624D02*
X148417Y-257624D01*
X149417D01*
X148417Y-256624D01*
X149417Y-255624D01*
X148417D01*
X147417Y-254624D01*
X146417Y-255624D01*
X145417D01*
X146417Y-256624D01*
X145417Y-257624D01*
X146417D01*
X147417Y-258624D01*
X180676Y-236401D02*
X181676Y-235401D01*
X182676D01*
X181676Y-234401D01*
X182676Y-233401D01*
X181676D01*
X180676Y-232401D01*
X179676Y-233401D01*
X178676D01*
X179676Y-234401D01*
X178676Y-235401D01*
X179676D01*
X180676Y-236401D01*
X228893Y-145921D02*
X226893Y-141921D01*
X230893D01*
X228893Y-145921D01*
X217800Y-144523D02*
X215800Y-140523D01*
X219800D01*
X217800Y-144523D01*
X223337Y-154236D02*
X221337Y-150236D01*
X225337D01*
X223337Y-154236D01*
X212245Y-152837D02*
X210244Y-148837D01*
X214245D01*
X212245Y-152837D01*
X234401Y-182676D02*
X235401Y-181676D01*
X236401D01*
X235401Y-180676D01*
X236401Y-179676D01*
X235401D01*
X234401Y-178676D01*
X233401Y-179676D01*
X232401D01*
X233401Y-180676D01*
X232401Y-181676D01*
X233401D01*
X234401Y-182676D01*
X256624Y-149417D02*
X257624Y-148417D01*
X258624D01*
X257624Y-147417D01*
X258624Y-146417D01*
X257624D01*
X256624Y-145417D01*
X255624Y-146417D01*
X254624D01*
X255624Y-147417D01*
X254624Y-148417D01*
X255624D01*
X256624Y-149417D01*
X266546Y-47372D02*
X264545Y-43372D01*
X268546D01*
X266546Y-47372D01*
X255762Y-50325D02*
X253762Y-46325D01*
X257762D01*
X255762Y-50325D01*
X264595Y-57180D02*
X262595Y-53180D01*
X266595D01*
X264595Y-57180D01*
X253811Y-60133D02*
X251811Y-56133D01*
X255811D01*
X253811Y-60133D01*
X285700Y-79221D02*
X286700Y-78221D01*
X287700D01*
X286700Y-77221D01*
X287700Y-76221D01*
X286700D01*
X285700Y-75221D01*
X284700Y-76221D01*
X283700D01*
X284700Y-77221D01*
X283700Y-78221D01*
X284700D01*
X285700Y-79221D01*
X293504Y-39990D02*
X294504Y-38990D01*
X295504D01*
X294504Y-37990D01*
X295504Y-36990D01*
X294504D01*
X293504Y-35990D01*
X292504Y-36990D01*
X291504D01*
X292504Y-37990D01*
X291504Y-38990D01*
X292504D01*
X293504Y-39990D01*
X143921Y226893D02*
X141921Y230893D01*
X145921D01*
X143921Y226893D01*
X142523Y215800D02*
X140523Y219800D01*
X144523D01*
X142523Y215800D01*
X152236Y221337D02*
X150236Y225337D01*
X154236D01*
X152236Y221337D01*
X150837Y210244D02*
X148837Y214245D01*
X152837D01*
X150837Y210244D01*
X180676Y232401D02*
X181676Y233401D01*
X182676D01*
X181676Y234401D01*
X182676Y235401D01*
X181676D01*
X180676Y236401D01*
X179676Y235401D01*
X178676D01*
X179676Y234401D01*
X178676Y233401D01*
X179676D01*
X180676Y232401D01*
X147417Y254624D02*
X148417Y255624D01*
X149417D01*
X148417Y256624D01*
X149417Y257624D01*
X148417D01*
X147417Y258624D01*
X146417Y257624D01*
X145417D01*
X146417Y256624D01*
X145417Y255624D01*
X146417D01*
X147417Y254624D01*
X220559Y154393D02*
X218559Y158393D01*
X222559D01*
X220559Y154393D01*
X215022Y144680D02*
X213022Y148680D01*
X217022D01*
X215022Y144680D01*
X226115Y146078D02*
X224115Y150078D01*
X228115D01*
X226115Y146078D01*
X220578Y136365D02*
X218578Y140365D01*
X222578D01*
X220578Y136365D01*
X256624Y145417D02*
X257624Y146417D01*
X258624D01*
X257624Y147417D01*
X258624Y148417D01*
X257624D01*
X256624Y149417D01*
X255624Y148417D01*
X254624D01*
X255624Y147417D01*
X254624Y146417D01*
X255624D01*
X256624Y145417D01*
X234401Y178676D02*
X235401Y179676D01*
X236401D01*
X235401Y180676D01*
X236401Y181676D01*
X235401D01*
X234401Y182676D01*
X233401Y181676D01*
X232401D01*
X233401Y180676D01*
X232401Y179676D01*
X233401D01*
X234401Y178676D01*
X263619Y58084D02*
X261619Y62084D01*
X265619D01*
X263619Y58084D01*
X254787Y51229D02*
X252787Y55229D01*
X256787D01*
X254787Y51229D01*
X265570Y48276D02*
X263570Y52276D01*
X267570D01*
X265570Y48276D01*
X256738Y41421D02*
X254738Y45421D01*
X258738D01*
X256738Y41421D01*
X293504Y35990D02*
X294504Y36990D01*
X295504D01*
X294504Y37990D01*
X295504Y38990D01*
X294504D01*
X293504Y39990D01*
X292504Y38990D01*
X291504D01*
X292504Y37990D01*
X291504Y36990D01*
X292504D01*
X293504Y35990D01*
X285700Y75221D02*
X286700Y76221D01*
X287700D01*
X286700Y77221D01*
X287700Y78221D01*
X286700D01*
X285700Y79221D01*
X284700Y78221D01*
X283700D01*
X284700Y77221D01*
X283700Y76221D01*
X284700D01*
X285700Y75221D01*
X-266546Y43372D02*
X-268546Y47372D01*
X-264545D01*
X-266546Y43372D01*
X-255762Y46325D02*
X-257762Y50325D01*
X-253762D01*
X-255762Y46325D01*
X-264595Y53180D02*
X-266595Y57180D01*
X-262595D01*
X-264595Y53180D01*
X-253811Y56133D02*
X-255811Y60133D01*
X-251811D01*
X-253811Y56133D01*
X-285700Y75221D02*
X-284700Y76221D01*
X-283700D01*
X-284700Y77221D01*
X-283700Y78221D01*
X-284700D01*
X-285700Y79221D01*
X-286700Y78221D01*
X-287700D01*
X-286700Y77221D01*
X-287700Y76221D01*
X-286700D01*
X-285700Y75221D01*
X-293504Y35990D02*
X-292504Y36990D01*
X-291504D01*
X-292504Y37990D01*
X-291504Y38990D01*
X-292504D01*
X-293504Y39990D01*
X-294504Y38990D01*
X-295504D01*
X-294504Y37990D01*
X-295504Y36990D01*
X-294504D01*
X-293504Y35990D01*
X-228893Y141921D02*
X-230893Y145921D01*
X-226893D01*
X-228893Y141921D01*
X-217800Y140523D02*
X-219800Y144523D01*
X-215800D01*
X-217800Y140523D01*
X-223337Y150236D02*
X-225337Y154236D01*
X-221337D01*
X-223337Y150236D01*
X-212245Y148837D02*
X-214245Y152837D01*
X-210244D01*
X-212245Y148837D01*
X-234401Y178676D02*
X-233401Y179676D01*
X-232401D01*
X-233401Y180676D01*
X-232401Y181676D01*
X-233401D01*
X-234401Y182676D01*
X-235401Y181676D01*
X-236401D01*
X-235401Y180676D01*
X-236401Y179676D01*
X-235401D01*
X-234401Y178676D01*
X-256624Y145417D02*
X-255624Y146417D01*
X-254624D01*
X-255624Y147417D01*
X-254624Y148417D01*
X-255624D01*
X-256624Y149417D01*
X-257624Y148417D01*
X-258624D01*
X-257624Y147417D01*
X-258624Y146417D01*
X-257624D01*
X-256624Y145417D01*
X-156394Y218559D02*
X-158394Y222559D01*
X-154394D01*
X-156394Y218559D01*
X-146681Y213022D02*
X-148681Y217022D01*
X-144681D01*
X-146681Y213022D01*
X-148079Y224115D02*
X-150079Y228115D01*
X-146079D01*
X-148079Y224115D01*
X-138366Y218578D02*
X-140366Y222578D01*
X-136366D01*
X-138366Y218578D01*
X-147418Y254624D02*
X-146418Y255624D01*
X-145418D01*
X-146418Y256624D01*
X-145418Y257624D01*
X-146418D01*
X-147418Y258624D01*
X-148418Y257624D01*
X-149418D01*
X-148418Y256624D01*
X-149418Y255624D01*
X-148418D01*
X-147418Y254624D01*
X-180677Y232401D02*
X-179677Y233401D01*
X-178677D01*
X-179677Y234401D01*
X-178677Y235401D01*
X-179677D01*
X-180677Y236401D01*
X-181677Y235401D01*
X-182677D01*
X-181677Y234401D01*
X-182677Y233401D01*
X-181677D01*
X-180677Y232401D01*
X-60084Y261619D02*
X-62084Y265619D01*
X-58084D01*
X-60084Y261619D01*
X-53229Y252787D02*
X-55229Y256787D01*
X-51229D01*
X-53229Y252787D01*
X-50276Y263570D02*
X-52276Y267570D01*
X-48276D01*
X-50276Y263570D01*
X-43421Y254738D02*
X-45421Y258738D01*
X-41421D01*
X-43421Y254738D01*
X-37990Y291504D02*
X-36990Y292504D01*
X-35990D01*
X-36990Y293504D01*
X-35990Y294504D01*
X-36990D01*
X-37990Y295504D01*
X-38990Y294504D01*
X-39990D01*
X-38990Y293504D01*
X-39990Y292504D01*
X-38990D01*
X-37990Y291504D01*
X-77221Y283700D02*
X-76221Y284700D01*
X-75221D01*
X-76221Y285700D01*
X-75221Y286700D01*
X-76221D01*
X-77221Y287700D01*
X-78221Y286700D01*
X-79221D01*
X-78221Y285700D01*
X-79221Y284700D01*
X-78221D01*
X-77221Y283700D01*
X45372Y264545D02*
X43372Y268546D01*
X47372D01*
X45372Y264545D01*
X48325Y253762D02*
X46325Y257762D01*
X50325D01*
X48325Y253762D01*
X55180Y262595D02*
X53180Y266595D01*
X57180D01*
X55180Y262595D01*
X58133Y251811D02*
X56133Y255811D01*
X60133D01*
X58133Y251811D01*
X77221Y283700D02*
X78221Y284700D01*
X79221D01*
X78221Y285700D01*
X79221Y286700D01*
X78221D01*
X77221Y287700D01*
X76221Y286700D01*
X75221D01*
X76221Y285700D01*
X75221Y284700D01*
X76221D01*
X77221Y283700D01*
X37990Y291504D02*
X38990Y292504D01*
X39990D01*
X38990Y293504D01*
X39990Y294504D01*
X38990D01*
X37990Y295504D01*
X36990Y294504D01*
X35990D01*
X36990Y293504D01*
X35990Y292504D01*
X36990D01*
X37990Y291504D01*
X282205Y16898D02*
X283205Y18898D01*
X282205Y20898D01*
X284205Y19898D01*
X286205Y20898D01*
X285205Y18898D01*
X286205Y16898D01*
X284205Y17898D01*
X282205Y16898D01*
X295000Y-2000D02*
X296000Y0D01*
X295000Y2000D01*
X297000Y1000D01*
X299000Y2000D01*
X298000Y0D01*
X299000Y-2000D01*
X297000Y-1000D01*
X295000Y-2000D01*
X271394Y-1000D02*
Y-2000D01*
X273394D01*
Y-1000D01*
X274394D01*
Y1000D01*
X273394D01*
Y2000D01*
X271394D01*
Y1000D01*
X270394D01*
Y-1000D01*
X271394D01*
X208000Y208000D02*
X209000D01*
X210000Y209000D01*
X211000Y208000D01*
X212000D01*
Y209000D01*
X211000Y210000D01*
X212000Y211000D01*
Y212000D01*
X211000D01*
X210000Y211000D01*
X209000Y212000D01*
X208000D01*
Y211000D01*
X209000Y210000D01*
X208000Y209000D01*
Y208000D01*
Y-212000D02*
X209000D01*
X210000Y-211000D01*
X211000Y-212000D01*
X212000D01*
Y-211000D01*
X211000Y-210000D01*
X212000Y-209000D01*
Y-208000D01*
X211000D01*
X210000Y-209000D01*
X209000Y-208000D01*
X208000D01*
Y-209000D01*
X209000Y-210000D01*
X208000Y-211000D01*
Y-212000D01*
X-212000D02*
X-211000D01*
X-210000Y-211000D01*
X-209000Y-212000D01*
X-208000D01*
Y-211000D01*
X-209000Y-210000D01*
X-208000Y-209000D01*
Y-208000D01*
X-209000D01*
X-210000Y-209000D01*
X-211000Y-208000D01*
X-212000D01*
Y-209000D01*
X-211000Y-210000D01*
X-212000Y-211000D01*
Y-212000D01*
Y208000D02*
X-211000D01*
X-210000Y209000D01*
X-209000Y208000D01*
X-208000D01*
Y209000D01*
X-209000Y210000D01*
X-208000Y211000D01*
Y212000D01*
X-209000D01*
X-210000Y211000D01*
X-211000Y212000D01*
X-212000D01*
Y211000D01*
X-211000Y210000D01*
X-212000Y209000D01*
Y208000D01*
X-260001Y-107001D02*
X-258001Y-105001D01*
X-256001Y-107001D01*
X-258001Y-109001D01*
X-260001Y-107001D01*
X-285463Y-117547D02*
X-283463Y-115547D01*
X-281463Y-117547D01*
X-283463Y-119547D01*
X-285463Y-117547D01*
X-260000Y107000D02*
X-258000Y109000D01*
X-256000Y107000D01*
X-258000Y105000D01*
X-260000Y107000D01*
X-285461Y117546D02*
X-283461Y119546D01*
X-281461Y117546D01*
X-283461Y115546D01*
X-285461Y117546D01*
X139000Y-116000D02*
Y-112000D01*
X143000D01*
Y-116000D01*
X139000D01*
X139800Y-115200D02*
Y-112800D01*
X142200D01*
Y-115200D01*
X139800D01*
X107000Y-117000D02*
Y-113000D01*
X111000D01*
Y-117000D01*
X107000D01*
X107800Y-116200D02*
Y-113800D01*
X110200D01*
Y-116200D01*
X107800D01*
X134000Y-115000D02*
Y-111000D01*
X138000D01*
Y-115000D01*
X134000D01*
X134800Y-114200D02*
Y-111800D01*
X137200D01*
Y-114200D01*
X134800D01*
X122500Y-105000D02*
Y-101000D01*
X126500D01*
Y-105000D01*
X122500D01*
X123300Y-104200D02*
Y-101800D01*
X125700D01*
Y-104200D01*
X123300D01*
X196568Y81000D02*
X194568Y85000D01*
X198568D01*
X196568Y81000D01*
Y81800D02*
X195368Y84200D01*
X197768D01*
X196568Y81800D01*
X-21250Y-85051D02*
X-23250Y-81051D01*
X-19250D01*
X-21250Y-85051D01*
Y-84251D02*
X-22450Y-81851D01*
X-20050D01*
X-21250Y-84251D01*
X-9000Y-280000D02*
X-8000Y-279000D01*
X-7000D01*
X-8000Y-278000D01*
X-7000Y-277000D01*
X-8000D01*
X-9000Y-276000D01*
X-10000Y-277000D01*
X-11000D01*
X-10000Y-278000D01*
X-11000Y-279000D01*
X-10000D01*
X-9000Y-280000D01*
Y-279200D02*
X-8400Y-278600D01*
X-7800D01*
X-8400Y-278000D01*
X-7800Y-277400D01*
X-8400D01*
X-9000Y-276800D01*
X-9600Y-277400D01*
X-10200D01*
X-9600Y-278000D01*
X-10200Y-278600D01*
X-9600D01*
X-9000Y-279200D01*
X10000Y275500D02*
X11000Y276500D01*
X12000D01*
X11000Y277500D01*
X12000Y278500D01*
X11000D01*
X10000Y279500D01*
X9000Y278500D01*
X8000D01*
X9000Y277500D01*
X8000Y276500D01*
X9000D01*
X10000Y275500D01*
Y276300D02*
X10600Y276900D01*
X11200D01*
X10600Y277500D01*
X11200Y278100D01*
X10600D01*
X10000Y278700D01*
X9400Y278100D01*
X8800D01*
X9400Y277500D01*
X8800Y276900D01*
X9400D01*
X10000Y276300D01*
X-280000Y-12000D02*
X-279000Y-11000D01*
X-278000D01*
X-279000Y-10000D01*
X-278000Y-9000D01*
X-279000D01*
X-280000Y-8000D01*
X-281000Y-9000D01*
X-282000D01*
X-281000Y-10000D01*
X-282000Y-11000D01*
X-281000D01*
X-280000Y-12000D01*
Y-11200D02*
X-279400Y-10600D01*
X-278800D01*
X-279400Y-10000D01*
X-278800Y-9400D01*
X-279400D01*
X-280000Y-8800D01*
X-280600Y-9400D01*
X-281200D01*
X-280600Y-10000D01*
X-281200Y-10600D01*
X-280600D01*
X-280000Y-11200D01*
X0Y-2000D02*
X-2000Y2000D01*
X2000D01*
X0Y-2000D01*
X226000Y-83000D02*
Y-79000D01*
X230000D01*
Y-83000D01*
X226000D01*
X226800Y-82200D02*
Y-79800D01*
X229200D01*
Y-82200D01*
X226800D01*
D141*
X110200Y-129000D02*
G03*
X110200Y-129000I-1200J0D01*
G01*
X116700Y-103000D02*
G03*
X116700Y-103000I-1200J0D01*
G01*
X28700Y-113500D02*
G03*
X28700Y-113500I-1200J0D01*
G01*
X-21800Y-103000D02*
G03*
X-21800Y-103000I-1200J0D01*
G01*
X-37300Y-14000D02*
G03*
X-37300Y-14000I-1200J0D01*
G01*
X-37050Y-24750D02*
G03*
X-37050Y-24750I-1200J0D01*
G01*
X34700Y-60000D02*
G03*
X34700Y-60000I-1200J0D01*
G01*
X39700Y-67500D02*
G03*
X39700Y-67500I-1200J0D01*
G01*
X37200Y-65000D02*
G03*
X37200Y-65000I-1200J0D01*
G01*
X23200Y-54500D02*
G03*
X23200Y-54500I-1200J0D01*
G01*
X-2300Y-37000D02*
G03*
X-2300Y-37000I-1200J0D01*
G01*
X-14300Y-39500D02*
G03*
X-14300Y-39500I-1200J0D01*
G01*
X174200Y50000D02*
G03*
X174200Y50000I-1200J0D01*
G01*
X58200Y137000D02*
G03*
X58200Y137000I-1200J0D01*
G01*
X66200Y145000D02*
G03*
X66200Y145000I-1200J0D01*
G01*
X83561Y123361D02*
G03*
X83561Y123361I-1200J0D01*
G01*
X85200Y135000D02*
G03*
X85200Y135000I-1200J0D01*
G01*
X106200Y105000D02*
G03*
X106200Y105000I-1200J0D01*
G01*
X110200Y116000D02*
G03*
X110200Y116000I-1200J0D01*
G01*
X137200Y91000D02*
G03*
X137200Y91000I-1200J0D01*
G01*
X81200Y-124000D02*
G03*
X81200Y-124000I-1200J0D01*
G01*
X70700Y-107500D02*
G03*
X70700Y-107500I-1200J0D01*
G01*
X83200Y-99500D02*
G03*
X83200Y-99500I-1200J0D01*
G01*
X84200Y-120500D02*
G03*
X84200Y-120500I-1200J0D01*
G01*
X-41300Y-47500D02*
G03*
X-41300Y-47500I-1200J0D01*
G01*
X-38800Y-40000D02*
G03*
X-38800Y-40000I-1200J0D01*
G01*
X-65800Y-130000D02*
G03*
X-65800Y-130000I-1200J0D01*
G01*
X53450Y-72250D02*
G03*
X53450Y-72250I-1200J0D01*
G01*
X-95300Y-130000D02*
G03*
X-95300Y-130000I-1200J0D01*
G01*
X-115300D02*
G03*
X-115300Y-130000I-1200J0D01*
G01*
X-95300Y-110000D02*
G03*
X-95300Y-110000I-1200J0D01*
G01*
X-115300D02*
G03*
X-115300Y-110000I-1200J0D01*
G01*
X-63800Y-109500D02*
G03*
X-63800Y-109500I-1200J0D01*
G01*
X-59300Y-97500D02*
G03*
X-59300Y-97500I-1200J0D01*
G01*
X-51300Y-57500D02*
G03*
X-51300Y-57500I-1200J0D01*
G01*
Y-67500D02*
G03*
X-51300Y-67500I-1200J0D01*
G01*
Y-62500D02*
G03*
X-51300Y-62500I-1200J0D01*
G01*
X-53800Y-65000D02*
G03*
X-53800Y-65000I-1200J0D01*
G01*
Y-60000D02*
G03*
X-53800Y-60000I-1200J0D01*
G01*
X-57800Y-28000D02*
G03*
X-57800Y-28000I-1200J0D01*
G01*
X-53800Y-23000D02*
G03*
X-53800Y-23000I-1200J0D01*
G01*
X-40300Y-22500D02*
G03*
X-40300Y-22500I-1200J0D01*
G01*
X-61300Y-112500D02*
G03*
X-61300Y-112500I-1200J0D01*
G01*
X-56300Y-100000D02*
G03*
X-56300Y-100000I-1200J0D01*
G01*
X-58800Y-115000D02*
G03*
X-58800Y-115000I-1200J0D01*
G01*
X-46300Y-107500D02*
G03*
X-46300Y-107500I-1200J0D01*
G01*
X-31300Y-90000D02*
G03*
X-31300Y-90000I-1200J0D01*
G01*
X-38800Y-92500D02*
G03*
X-38800Y-92500I-1200J0D01*
G01*
X58700Y-57500D02*
G03*
X58700Y-57500I-1200J0D01*
G01*
X273700Y112500D02*
G03*
X273700Y112500I-1200J0D01*
G01*
X-2800Y-68000D02*
G03*
X-2800Y-68000I-1200J0D01*
G01*
X-6300Y139000D02*
G03*
X-6300Y139000I-1200J0D01*
G01*
X-2300Y143000D02*
G03*
X-2300Y143000I-1200J0D01*
G01*
X233200Y-94500D02*
G03*
X233200Y-94500I-1200J0D01*
G01*
X6200Y-74500D02*
G03*
X6200Y-74500I-1200J0D01*
G01*
X44700Y-70000D02*
G03*
X44700Y-70000I-1200J0D01*
G01*
X47700Y-57500D02*
G03*
X47700Y-57500I-1200J0D01*
G01*
X-25300Y-60000D02*
G03*
X-25300Y-60000I-1200J0D01*
G01*
Y-65000D02*
G03*
X-25300Y-65000I-1200J0D01*
G01*
Y-70000D02*
G03*
X-25300Y-70000I-1200J0D01*
G01*
X-27800Y-67500D02*
G03*
X-27800Y-67500I-1200J0D01*
G01*
Y-62500D02*
G03*
X-27800Y-62500I-1200J0D01*
G01*
Y-57500D02*
G03*
X-27800Y-57500I-1200J0D01*
G01*
X-36300Y5500D02*
G03*
X-36300Y5500I-1200J0D01*
G01*
Y-30000D02*
G03*
X-36300Y-30000I-1200J0D01*
G01*
X-41300Y-28500D02*
G03*
X-41300Y-28500I-1200J0D01*
G01*
X-2300Y92000D02*
G03*
X-2300Y92000I-1200J0D01*
G01*
X27200Y110000D02*
G03*
X27200Y110000I-1200J0D01*
G01*
X29700Y107500D02*
G03*
X29700Y107500I-1200J0D01*
G01*
X32200Y105000D02*
G03*
X32200Y105000I-1200J0D01*
G01*
X-1883Y-108417D02*
G03*
X-1883Y-108417I-1200J0D01*
G01*
X1200Y-110000D02*
G03*
X1200Y-110000I-1200J0D01*
G01*
X-4300Y-106000D02*
G03*
X-4300Y-106000I-1200J0D01*
G01*
X-22300Y110000D02*
G03*
X-22300Y110000I-1200J0D01*
G01*
X-5300Y115000D02*
G03*
X-5300Y115000I-1200J0D01*
G01*
X-207402Y-4398D02*
G03*
X-207402Y-4398I-1200J0D01*
G01*
X-187343Y-14457D02*
G03*
X-187343Y-14457I-1200J0D01*
G01*
X-28800Y112500D02*
G03*
X-28800Y112500I-1200J0D01*
G01*
X1200Y35500D02*
G03*
X1200Y35500I-1200J0D01*
G01*
X-6300Y38500D02*
G03*
X-6300Y38500I-1200J0D01*
G01*
X12700D02*
G03*
X12700Y38500I-1200J0D01*
G01*
X-33800Y35500D02*
G03*
X-33800Y35500I-1200J0D01*
G01*
X-8800Y-37500D02*
G03*
X-8800Y-37500I-1200J0D01*
G01*
X12200Y-38500D02*
G03*
X12200Y-38500I-1200J0D01*
G01*
X37200Y-24000D02*
G03*
X37200Y-24000I-1200J0D01*
G01*
X5137Y-24563D02*
G03*
X5137Y-24563I-1200J0D01*
G01*
X47700Y-24000D02*
G03*
X47700Y-24000I-1200J0D01*
G01*
X78700Y-65000D02*
G03*
X78700Y-65000I-1200J0D01*
G01*
X-156300Y-70000D02*
G03*
X-156300Y-70000I-1200J0D01*
G01*
Y-57500D02*
G03*
X-156300Y-57500I-1200J0D01*
G01*
X-182300Y-58500D02*
G03*
X-182300Y-58500I-1200J0D01*
G01*
X-189300Y-65500D02*
G03*
X-189300Y-65500I-1200J0D01*
G01*
X42700Y-42500D02*
G03*
X42700Y-42500I-1200J0D01*
G01*
X40200Y-40000D02*
G03*
X40200Y-40000I-1200J0D01*
G01*
X42700Y-30000D02*
G03*
X42700Y-30000I-1200J0D01*
G01*
X40200Y-32500D02*
G03*
X40200Y-32500I-1200J0D01*
G01*
X123700Y-54000D02*
G03*
X123700Y-54000I-1200J0D01*
G01*
X128200Y-23000D02*
G03*
X128200Y-23000I-1200J0D01*
G01*
Y-13500D02*
G03*
X128200Y-13500I-1200J0D01*
G01*
X101700Y-89000D02*
G03*
X101700Y-89000I-1200J0D01*
G01*
X109200Y-91500D02*
G03*
X109200Y-91500I-1200J0D01*
G01*
X150700Y-31000D02*
G03*
X150700Y-31000I-1200J0D01*
G01*
X210700Y3500D02*
G03*
X210700Y3500I-1200J0D01*
G01*
X-38800Y-67500D02*
G03*
X-38800Y-67500I-1200J0D01*
G01*
Y-62500D02*
G03*
X-38800Y-62500I-1200J0D01*
G01*
X-36300Y-60000D02*
G03*
X-36300Y-60000I-1200J0D01*
G01*
Y-65000D02*
G03*
X-36300Y-65000I-1200J0D01*
G01*
X23700Y-70000D02*
G03*
X23700Y-70000I-1200J0D01*
G01*
X48700D02*
G03*
X48700Y-70000I-1200J0D01*
G01*
X21200Y-67500D02*
G03*
X21200Y-67500I-1200J0D01*
G01*
X23700Y-65000D02*
G03*
X23700Y-65000I-1200J0D01*
G01*
X18700Y-57500D02*
G03*
X18700Y-57500I-1200J0D01*
G01*
X21200Y-60000D02*
G03*
X21200Y-60000I-1200J0D01*
G01*
X73700Y5000D02*
G03*
X73700Y5000I-1200J0D01*
G01*
X78700D02*
G03*
X78700Y5000I-1200J0D01*
G01*
Y15000D02*
G03*
X78700Y15000I-1200J0D01*
G01*
X81200Y25000D02*
G03*
X81200Y25000I-1200J0D01*
G01*
X83700Y27500D02*
G03*
X83700Y27500I-1200J0D01*
G01*
X94200Y42500D02*
G03*
X94200Y42500I-1200J0D01*
G01*
X-46300Y-145000D02*
G03*
X-46300Y-145000I-1200J0D01*
G01*
X-51300D02*
G03*
X-51300Y-145000I-1200J0D01*
G01*
X-48800Y-160000D02*
G03*
X-48800Y-160000I-1200J0D01*
G01*
X-43800D02*
G03*
X-43800Y-160000I-1200J0D01*
G01*
X23700Y102500D02*
G03*
X23700Y102500I-1200J0D01*
G01*
X15200Y94000D02*
G03*
X15200Y94000I-1200J0D01*
G01*
X1200Y40000D02*
G03*
X1200Y40000I-1200J0D01*
G01*
X42200Y-13000D02*
G03*
X42200Y-13000I-1200J0D01*
G01*
X21200Y-37500D02*
G03*
X21200Y-37500I-1200J0D01*
G01*
X-243800Y62500D02*
G03*
X-243800Y62500I-1200J0D01*
G01*
X-261300D02*
G03*
X-261300Y62500I-1200J0D01*
G01*
X-201300Y150000D02*
G03*
X-201300Y150000I-1200J0D01*
G01*
X-216300Y157500D02*
G03*
X-216300Y157500I-1200J0D01*
G01*
X-128800Y217500D02*
G03*
X-128800Y217500I-1200J0D01*
G01*
X-138800Y227500D02*
G03*
X-138800Y227500I-1200J0D01*
G01*
X-33800Y250000D02*
G03*
X-33800Y250000I-1200J0D01*
G01*
X-41300Y265000D02*
G03*
X-41300Y265000I-1200J0D01*
G01*
X63700Y242500D02*
G03*
X63700Y242500I-1200J0D01*
G01*
Y260000D02*
G03*
X63700Y260000I-1200J0D01*
G01*
X153700Y202500D02*
G03*
X153700Y202500I-1200J0D01*
G01*
X158700Y217500D02*
G03*
X158700Y217500I-1200J0D01*
G01*
X218700Y130000D02*
G03*
X218700Y130000I-1200J0D01*
G01*
X231200Y140000D02*
G03*
X231200Y140000I-1200J0D01*
G01*
X248700Y35000D02*
G03*
X248700Y35000I-1200J0D01*
G01*
X268700Y42500D02*
G03*
X268700Y42500I-1200J0D01*
G01*
X-138800Y62500D02*
G03*
X-138800Y62500I-1200J0D01*
G01*
X-131300Y50000D02*
G03*
X-131300Y50000I-1200J0D01*
G01*
X-151300Y-70000D02*
G03*
X-151300Y-70000I-1200J0D01*
G01*
Y-57500D02*
G03*
X-151300Y-57500I-1200J0D01*
G01*
X-58800Y-242500D02*
G03*
X-58800Y-242500I-1200J0D01*
G01*
X-61300Y-260000D02*
G03*
X-61300Y-260000I-1200J0D01*
G01*
X-148800Y-200000D02*
G03*
X-148800Y-200000I-1200J0D01*
G01*
X-156300Y-217500D02*
G03*
X-156300Y-217500I-1200J0D01*
G01*
X-216300Y-130000D02*
G03*
X-216300Y-130000I-1200J0D01*
G01*
X-228800Y-142500D02*
G03*
X-228800Y-142500I-1200J0D01*
G01*
X-248800Y-37500D02*
G03*
X-248800Y-37500I-1200J0D01*
G01*
X-266300Y-42500D02*
G03*
X-266300Y-42500I-1200J0D01*
G01*
X43700Y-265000D02*
G03*
X43700Y-265000I-1200J0D01*
G01*
X131200Y-217500D02*
G03*
X131200Y-217500I-1200J0D01*
G01*
X143700Y-230000D02*
G03*
X143700Y-230000I-1200J0D01*
G01*
X203700Y-150000D02*
G03*
X203700Y-150000I-1200J0D01*
G01*
X218700Y-157500D02*
G03*
X218700Y-157500I-1200J0D01*
G01*
X236200Y-87500D02*
G03*
X236200Y-87500I-1200J0D01*
G01*
Y-92500D02*
G03*
X236200Y-92500I-1200J0D01*
G01*
X228800Y-102500D02*
G03*
X228800Y-102500I-1200J0D01*
G01*
X231200Y-97500D02*
G03*
X231200Y-97500I-1200J0D01*
G01*
X243700Y-62500D02*
G03*
X243700Y-62500I-1200J0D01*
G01*
X263700D02*
G03*
X263700Y-62500I-1200J0D01*
G01*
X38700Y-247500D02*
G03*
X38700Y-247500I-1200J0D01*
G01*
X-26300Y107500D02*
G03*
X-26300Y107500I-1200J0D01*
G01*
X6200Y112500D02*
G03*
X6200Y112500I-1200J0D01*
G01*
X3700Y110000D02*
G03*
X3700Y110000I-1200J0D01*
G01*
X1200Y107500D02*
G03*
X1200Y107500I-1200J0D01*
G01*
X-6300Y120000D02*
G03*
X-6300Y120000I-1200J0D01*
G01*
X-28800Y105000D02*
G03*
X-28800Y105000I-1200J0D01*
G01*
X3700Y-112500D02*
G03*
X3700Y-112500I-1200J0D01*
G01*
X6200Y-115000D02*
G03*
X6200Y-115000I-1200J0D01*
G01*
X16200Y-92500D02*
G03*
X16200Y-92500I-1200J0D01*
G01*
Y-100000D02*
G03*
X16200Y-100000I-1200J0D01*
G01*
X21200Y-97500D02*
G03*
X21200Y-97500I-1200J0D01*
G01*
X68700Y45000D02*
G03*
X68700Y45000I-1200J0D01*
G01*
X71200Y42500D02*
G03*
X71200Y42500I-1200J0D01*
G01*
X78700Y47500D02*
G03*
X78700Y47500I-1200J0D01*
G01*
X21200Y20000D02*
G03*
X21200Y20000I-1200J0D01*
G01*
X-3800Y-5000D02*
G03*
X-3800Y-5000I-1200J0D01*
G01*
X6200D02*
G03*
X6200Y-5000I-1200J0D01*
G01*
Y5000D02*
G03*
X6200Y5000I-1200J0D01*
G01*
X-3800D02*
G03*
X-3800Y5000I-1200J0D01*
G01*
X58700Y52500D02*
G03*
X58700Y52500I-1200J0D01*
G01*
X51200Y42500D02*
G03*
X51200Y42500I-1200J0D01*
G01*
X56200Y22500D02*
G03*
X56200Y22500I-1200J0D01*
G01*
X53700Y45000D02*
G03*
X53700Y45000I-1200J0D01*
G01*
X28700Y-105000D02*
G03*
X28700Y-105000I-1200J0D01*
G01*
X76200Y-67500D02*
G03*
X76200Y-67500I-1200J0D01*
G01*
X-11300Y-57500D02*
G03*
X-11300Y-57500I-1200J0D01*
G01*
X-13776Y-60000D02*
G03*
X-13776Y-60000I-1200J0D01*
G01*
X-134800Y-28000D02*
G03*
X-134800Y-28000I-1200J0D01*
G01*
X-129800Y-23000D02*
G03*
X-129800Y-23000I-1200J0D01*
G01*
X-127800Y-6000D02*
G03*
X-127800Y-6000I-1200J0D01*
G01*
X-122300Y-7500D02*
G03*
X-122300Y-7500I-1200J0D01*
G01*
X-41300Y0D02*
G03*
X-41300Y0I-1200J0D01*
G01*
X-38800Y2500D02*
G03*
X-38800Y2500I-1200J0D01*
G01*
X-18800D02*
G03*
X-18800Y2500I-1200J0D01*
G01*
X-16300Y0D02*
G03*
X-16300Y0I-1200J0D01*
G01*
X-11300Y-62500D02*
G03*
X-11300Y-62500I-1200J0D01*
G01*
X-8800Y-65000D02*
G03*
X-8800Y-65000I-1200J0D01*
G01*
X-6300Y-67500D02*
G03*
X-6300Y-67500I-1200J0D01*
G01*
X-146300Y-12500D02*
G03*
X-146300Y-12500I-1200J0D01*
G01*
Y-17500D02*
G03*
X-146300Y-17500I-1200J0D01*
G01*
X-38800Y-2500D02*
G03*
X-38800Y-2500I-1200J0D01*
G01*
X-41300Y-5000D02*
G03*
X-41300Y-5000I-1200J0D01*
G01*
X-18800Y-2500D02*
G03*
X-18800Y-2500I-1200J0D01*
G01*
X-16300Y-5000D02*
G03*
X-16300Y-5000I-1200J0D01*
G01*
X-33800Y-40000D02*
G03*
X-33800Y-40000I-1200J0D01*
G01*
X-18800Y-7500D02*
G03*
X-18800Y-7500I-1200J0D01*
G01*
X-16300Y-10000D02*
G03*
X-16300Y-10000I-1200J0D01*
G01*
X-38800Y-7500D02*
G03*
X-38800Y-7500I-1200J0D01*
G01*
X-41300Y-10000D02*
G03*
X-41300Y-10000I-1200J0D01*
G01*
X-28800Y-35000D02*
G03*
X-28800Y-35000I-1200J0D01*
G01*
X21200Y-7500D02*
G03*
X21200Y-7500I-1200J0D01*
G01*
X23700Y-5000D02*
G03*
X23700Y-5000I-1200J0D01*
G01*
X38700D02*
G03*
X38700Y-5000I-1200J0D01*
G01*
X41200Y-2500D02*
G03*
X41200Y-2500I-1200J0D01*
G01*
X-71300Y112500D02*
G03*
X-71300Y112500I-1200J0D01*
G01*
X-78800D02*
G03*
X-78800Y112500I-1200J0D01*
G01*
X-71300Y127500D02*
G03*
X-71300Y127500I-1200J0D01*
G01*
X-76300Y130000D02*
G03*
X-76300Y130000I-1200J0D01*
G01*
X46200Y157500D02*
G03*
X46200Y157500I-1200J0D01*
G01*
X48700Y155000D02*
G03*
X48700Y155000I-1200J0D01*
G01*
X21200Y150000D02*
G03*
X21200Y150000I-1200J0D01*
G01*
X26200D02*
G03*
X26200Y150000I-1200J0D01*
G01*
X51200Y-117500D02*
G03*
X51200Y-117500I-1200J0D01*
G01*
X47664Y-113964D02*
G03*
X47664Y-113964I-1200J0D01*
G01*
X36200Y-137500D02*
G03*
X36200Y-137500I-1200J0D01*
G01*
X41200D02*
G03*
X41200Y-137500I-1200J0D01*
G01*
X-16300Y39500D02*
G03*
X-16300Y39500I-1200J0D01*
G01*
X-37800Y10000D02*
G03*
X-37800Y10000I-1200J0D01*
G01*
X-25800Y-40000D02*
G03*
X-25800Y-40000I-1200J0D01*
G01*
X33700Y72500D02*
G03*
X33700Y72500I-1200J0D01*
G01*
X-196300Y-984D02*
G03*
X-196300Y-984I-1200J0D01*
G01*
X-146300Y-2500D02*
G03*
X-146300Y-2500I-1200J0D01*
G01*
X-81300Y-80000D02*
G03*
X-81300Y-80000I-1200J0D01*
G01*
X-56300Y-75000D02*
G03*
X-56300Y-75000I-1200J0D01*
G01*
X-35050Y-76949D02*
G03*
X-35050Y-76949I-1200J0D01*
G01*
X-8800Y-90551D02*
G03*
X-8800Y-90551I-1200J0D01*
G01*
X6200Y-90000D02*
G03*
X6200Y-90000I-1200J0D01*
G01*
X113700Y35571D02*
G03*
X113700Y35571I-1200J0D01*
G01*
X98700Y120000D02*
G03*
X98700Y120000I-1200J0D01*
G01*
X72269Y134822D02*
G03*
X72269Y134822I-1200J0D01*
G01*
X161200Y-53073D02*
G03*
X161200Y-53073I-1200J0D01*
G01*
X-15800Y-52000D02*
G03*
X-15800Y-52000I-1200J0D01*
G01*
X-8300Y-54500D02*
G03*
X-8300Y-54500I-1200J0D01*
G01*
X-1800D02*
G03*
X-1800Y-54500I-1200J0D01*
G01*
X4700D02*
G03*
X4700Y-54500I-1200J0D01*
G01*
X10700D02*
G03*
X10700Y-54500I-1200J0D01*
G01*
X-19800Y-77000D02*
G03*
X-19800Y-77000I-1200J0D01*
G01*
X25200Y-107500D02*
G03*
X25200Y-107500I-1200J0D01*
G01*
X45700D02*
G03*
X45700Y-107500I-1200J0D01*
G01*
X42700Y-96500D02*
G03*
X42700Y-96500I-1200J0D01*
G01*
X-22800Y-113500D02*
G03*
X-22800Y-113500I-1200J0D01*
G01*
X-5690Y-123110D02*
G03*
X-5690Y-123110I-1200J0D01*
G01*
X-3300Y-141500D02*
G03*
X-3300Y-141500I-1200J0D01*
G01*
X6200D02*
G03*
X6200Y-141500I-1200J0D01*
G01*
X9200Y-123500D02*
G03*
X9200Y-123500I-1200J0D01*
G01*
X-25050Y-165551D02*
G03*
X-25050Y-165551I-1200J0D01*
G01*
X1200Y-200000D02*
G03*
X1200Y-200000I-1200J0D01*
G01*
X-28800Y-187000D02*
G03*
X-28800Y-187000I-1200J0D01*
G01*
X-36800Y-217500D02*
G03*
X-36800Y-217500I-1200J0D01*
G01*
X-41329Y-230959D02*
G03*
X-41329Y-230959I-1200J0D01*
G01*
X-76800Y-263000D02*
G03*
X-76800Y-263000I-1200J0D01*
G01*
X-27300Y-273000D02*
G03*
X-27300Y-273000I-1200J0D01*
G01*
X34950Y-175551D02*
G03*
X34950Y-175551I-1200J0D01*
G01*
X45200Y-183500D02*
G03*
X45200Y-183500I-1200J0D01*
G01*
X49700Y-215000D02*
G03*
X49700Y-215000I-1200J0D01*
G01*
X50678Y-230077D02*
G03*
X50678Y-230077I-1200J0D01*
G01*
X30200Y-272000D02*
G03*
X30200Y-272000I-1200J0D01*
G01*
X79200Y-263000D02*
G03*
X79200Y-263000I-1200J0D01*
G01*
X132200Y-240500D02*
G03*
X132200Y-240500I-1200J0D01*
G01*
X173700Y-213000D02*
G03*
X173700Y-213000I-1200J0D01*
G01*
X135200Y-193749D02*
G03*
X135200Y-193749I-1200J0D01*
G01*
X128700Y-179500D02*
G03*
X128700Y-179500I-1200J0D01*
G01*
X107200Y-155000D02*
G03*
X107200Y-155000I-1200J0D01*
G01*
X160200Y-99000D02*
G03*
X160200Y-99000I-1200J0D01*
G01*
X187700Y-28000D02*
G03*
X187700Y-28000I-1200J0D01*
G01*
X187200Y36500D02*
G03*
X187200Y36500I-1200J0D01*
G01*
X152200Y111000D02*
G03*
X152200Y111000I-1200J0D01*
G01*
X99200Y161000D02*
G03*
X99200Y161000I-1200J0D01*
G01*
X32200Y185500D02*
G03*
X32200Y185500I-1200J0D01*
G01*
X-40800Y183500D02*
G03*
X-40800Y183500I-1200J0D01*
G01*
X-107800Y153000D02*
G03*
X-107800Y153000I-1200J0D01*
G01*
X-156300Y102500D02*
G03*
X-156300Y102500I-1200J0D01*
G01*
X-183800Y27500D02*
G03*
X-183800Y27500I-1200J0D01*
G01*
X-182300Y-44500D02*
G03*
X-182300Y-44500I-1200J0D01*
G01*
X-149800Y-111000D02*
G03*
X-149800Y-111000I-1200J0D01*
G01*
X-97800Y-155500D02*
G03*
X-97800Y-155500I-1200J0D01*
G01*
X-116800Y-186500D02*
G03*
X-116800Y-186500I-1200J0D01*
G01*
X-179800Y-127000D02*
G03*
X-179800Y-127000I-1200J0D01*
G01*
X-214800Y-48000D02*
G03*
X-214800Y-48000I-1200J0D01*
G01*
X-216800Y38000D02*
G03*
X-216800Y38000I-1200J0D01*
G01*
X-185300Y118000D02*
G03*
X-185300Y118000I-1200J0D01*
G01*
X-125800Y180500D02*
G03*
X-125800Y180500I-1200J0D01*
G01*
X-47300Y215500D02*
G03*
X-47300Y215500I-1200J0D01*
G01*
X39700Y218000D02*
G03*
X39700Y218000I-1200J0D01*
G01*
X119700Y187000D02*
G03*
X119700Y187000I-1200J0D01*
G01*
X182200Y127500D02*
G03*
X182200Y127500I-1200J0D01*
G01*
X216700Y48500D02*
G03*
X216700Y48500I-1200J0D01*
G01*
X219200Y-38000D02*
G03*
X219200Y-38000I-1200J0D01*
G01*
X187700Y-118500D02*
G03*
X187700Y-118500I-1200J0D01*
G01*
X198700Y-128386D02*
G03*
X198700Y-128386I-1200J0D01*
G01*
X232765Y-42000D02*
G03*
X232765Y-42000I-1200J0D01*
G01*
X231200Y49865D02*
G03*
X231200Y49865I-1200J0D01*
G01*
X194700Y134373D02*
G03*
X194700Y134373I-1200J0D01*
G01*
X128700Y197592D02*
G03*
X128700Y197592I-1200J0D01*
G01*
X43700Y231465D02*
G03*
X43700Y231465I-1200J0D01*
G01*
X-48300Y230073D02*
G03*
X-48300Y230073I-1200J0D01*
G01*
X-131800Y194083D02*
G03*
X-131800Y194083I-1200J0D01*
G01*
X-196726Y127000D02*
G03*
X-196726Y127000I-1200J0D01*
G01*
X-230300Y42000D02*
G03*
X-230300Y42000I-1200J0D01*
G01*
X-228873Y-49500D02*
G03*
X-228873Y-49500I-1200J0D01*
G01*
X-192549Y-134000D02*
G03*
X-192549Y-134000I-1200J0D01*
G01*
X-125800Y-197926D02*
G03*
X-125800Y-197926I-1200J0D01*
G01*
X-170800Y-212500D02*
G03*
X-170800Y-212500I-1200J0D01*
G01*
X-129300Y-240500D02*
G03*
X-129300Y-240500I-1200J0D01*
G01*
X-239300Y-130500D02*
G03*
X-239300Y-130500I-1200J0D01*
G01*
X-211300Y-172000D02*
G03*
X-211300Y-172000I-1200J0D01*
G01*
X-270800Y-28500D02*
G03*
X-270800Y-28500I-1200J0D01*
G01*
X-261300Y-77500D02*
G03*
X-261300Y-77500I-1200J0D01*
G01*
X-271300Y29000D02*
G03*
X-271300Y29000I-1200J0D01*
G01*
X-260800Y78000D02*
G03*
X-260800Y78000I-1200J0D01*
G01*
X-211800Y172500D02*
G03*
X-211800Y172500I-1200J0D01*
G01*
X-239800Y131000D02*
G03*
X-239800Y131000I-1200J0D01*
G01*
X-171800Y213500D02*
G03*
X-171800Y213500I-1200J0D01*
G01*
X-129800Y241000D02*
G03*
X-129800Y241000I-1200J0D01*
G01*
X-76300Y263000D02*
G03*
X-76300Y263000I-1200J0D01*
G01*
X-27800Y272500D02*
G03*
X-27800Y272500I-1200J0D01*
G01*
X30200Y272000D02*
G03*
X30200Y272000I-1200J0D01*
G01*
X78700Y263000D02*
G03*
X78700Y263000I-1200J0D01*
G01*
X132200Y240500D02*
G03*
X132200Y240500I-1200J0D01*
G01*
X173200Y212500D02*
G03*
X173200Y212500I-1200J0D01*
G01*
X241700Y130500D02*
G03*
X241700Y130500I-1200J0D01*
G01*
X214200Y172500D02*
G03*
X214200Y172500I-1200J0D01*
G01*
X273700Y29000D02*
G03*
X273700Y29000I-1200J0D01*
G01*
X263700Y78000D02*
G03*
X263700Y78000I-1200J0D01*
G01*
X264200Y-78000D02*
G03*
X264200Y-78000I-1200J0D01*
G01*
X273700Y-28500D02*
G03*
X273700Y-28500I-1200J0D01*
G01*
X265700Y-85500D02*
G03*
X265700Y-85500I-1200J0D01*
G01*
X291700Y-96500D02*
G03*
X291700Y-96500I-1200J0D01*
G01*
X248700Y-126500D02*
G03*
X248700Y-126500I-1200J0D01*
G01*
X274700Y-137500D02*
G03*
X274700Y-137500I-1200J0D01*
G01*
X214200Y-172500D02*
G03*
X214200Y-172500I-1200J0D01*
G01*
X242200Y-131000D02*
G03*
X242200Y-131000I-1200J0D01*
G01*
X-222800Y-92624D02*
G03*
X-222800Y-92624I-1200J0D01*
G01*
X-187300Y-80000D02*
G03*
X-187300Y-80000I-1200J0D01*
G01*
X-183800Y-70000D02*
G03*
X-183800Y-70000I-1200J0D01*
G01*
X-146300Y-95000D02*
G03*
X-146300Y-95000I-1200J0D01*
G01*
X-101300Y-73760D02*
G03*
X-101300Y-73760I-1200J0D01*
G01*
X-81300D02*
G03*
X-81300Y-73760I-1200J0D01*
G01*
X-96300Y-35000D02*
G03*
X-96300Y-35000I-1200J0D01*
G01*
X-114300D02*
G03*
X-114300Y-35000I-1200J0D01*
G01*
Y-15000D02*
G03*
X-114300Y-15000I-1200J0D01*
G01*
X-96300D02*
G03*
X-96300Y-15000I-1200J0D01*
G01*
Y5000D02*
G03*
X-96300Y5000I-1200J0D01*
G01*
X-114300D02*
G03*
X-114300Y5000I-1200J0D01*
G01*
X-96300Y25000D02*
G03*
X-96300Y25000I-1200J0D01*
G01*
X-114300D02*
G03*
X-114300Y25000I-1200J0D01*
G01*
Y45000D02*
G03*
X-114300Y45000I-1200J0D01*
G01*
X-96300D02*
G03*
X-96300Y45000I-1200J0D01*
G01*
X-151300Y-35000D02*
G03*
X-151300Y-35000I-1200J0D01*
G01*
X-126300Y63000D02*
G03*
X-126300Y63000I-1200J0D01*
G01*
X-127800Y50000D02*
G03*
X-127800Y50000I-1200J0D01*
G01*
X-163300Y35861D02*
G03*
X-163300Y35861I-1200J0D01*
G01*
X-136800Y42500D02*
G03*
X-136800Y42500I-1200J0D01*
G01*
X-131300Y61000D02*
G03*
X-131300Y61000I-1200J0D01*
G01*
X-222800Y92500D02*
G03*
X-222800Y92500I-1200J0D01*
G01*
X-187231Y80082D02*
G03*
X-187231Y80082I-1200J0D01*
G01*
X-290800Y100500D02*
G03*
X-290800Y100500I-1200J0D01*
G01*
X-287300Y108000D02*
G03*
X-287300Y108000I-1200J0D01*
G01*
X-25300Y165500D02*
G03*
X-25300Y165500I-1200J0D01*
G01*
X-32800D02*
G03*
X-32800Y165500I-1200J0D01*
G01*
X1200Y195500D02*
G03*
X1200Y195500I-1200J0D01*
G01*
Y182000D02*
G03*
X1200Y182000I-1200J0D01*
G01*
X27700Y165500D02*
G03*
X27700Y165500I-1200J0D01*
G01*
X-91800Y93000D02*
G03*
X-91800Y93000I-1200J0D01*
G01*
X-101300Y102500D02*
G03*
X-101300Y102500I-1200J0D01*
G01*
X-42800Y95000D02*
G03*
X-42800Y95000I-1200J0D01*
G01*
X-47560Y72500D02*
G03*
X-47560Y72500I-1200J0D01*
G01*
X-33800Y56000D02*
G03*
X-33800Y56000I-1200J0D01*
G01*
X-17800Y54000D02*
G03*
X-17800Y54000I-1200J0D01*
G01*
X3700Y54500D02*
G03*
X3700Y54500I-1200J0D01*
G01*
X11200D02*
G03*
X11200Y54500I-1200J0D01*
G01*
X23700D02*
G03*
X23700Y54500I-1200J0D01*
G01*
X-5800D02*
G03*
X-5800Y54500I-1200J0D01*
G01*
X54251Y13750D02*
G03*
X54251Y13750I-1200J0D01*
G01*
Y6250D02*
G03*
X54251Y6250I-1200J0D01*
G01*
Y-16250D02*
G03*
X54251Y-16250I-1200J0D01*
G01*
X54200Y-24000D02*
G03*
X54200Y-24000I-1200J0D01*
G01*
X121700Y84500D02*
G03*
X121700Y84500I-1200J0D01*
G01*
X101700Y89500D02*
G03*
X101700Y89500I-1200J0D01*
G01*
X81200Y106000D02*
G03*
X81200Y106000I-1200J0D01*
G01*
X59200Y119000D02*
G03*
X59200Y119000I-1200J0D01*
G01*
X2700Y125000D02*
G03*
X2700Y125000I-1200J0D01*
G01*
X9700Y140000D02*
G03*
X9700Y140000I-1200J0D01*
G01*
X10200Y118500D02*
G03*
X10200Y118500I-1200J0D01*
G01*
X20700Y101000D02*
G03*
X20700Y101000I-1200J0D01*
G01*
X8700Y92500D02*
G03*
X8700Y92500I-1200J0D01*
G01*
X4700D02*
G03*
X4700Y92500I-1200J0D01*
G01*
X-5800Y90500D02*
G03*
X-5800Y90500I-1200J0D01*
G01*
X-164410Y-8610D02*
G03*
X-164410Y-8610I-1200J0D01*
G01*
X-156843Y-16043D02*
G03*
X-156843Y-16043I-1200J0D01*
G01*
X-194800Y2500D02*
G03*
X-194800Y2500I-1200J0D01*
G01*
X-129300Y-2500D02*
G03*
X-129300Y-2500I-1200J0D01*
G01*
Y-10000D02*
G03*
X-129300Y-10000I-1200J0D01*
G01*
X-133300Y11500D02*
G03*
X-133300Y11500I-1200J0D01*
G01*
X-278800Y-127500D02*
G03*
X-278800Y-127500I-1200J0D01*
G01*
X-276300Y-135500D02*
G03*
X-276300Y-135500I-1200J0D01*
G01*
X76200Y-156000D02*
G03*
X76200Y-156000I-1200J0D01*
G01*
X98200Y-95500D02*
G03*
X98200Y-95500I-1200J0D01*
G01*
X102700Y-108000D02*
G03*
X102700Y-108000I-1200J0D01*
G01*
X107200Y-77500D02*
G03*
X107200Y-77500I-1200J0D01*
G01*
X108200Y-74500D02*
G03*
X108200Y-74500I-1200J0D01*
G01*
X126700Y-66000D02*
G03*
X126700Y-66000I-1200J0D01*
G01*
X147200Y-62000D02*
G03*
X147200Y-62000I-1200J0D01*
G01*
X160755Y-82537D02*
G03*
X160755Y-82537I-1200J0D01*
G01*
X167200Y-71500D02*
G03*
X167200Y-71500I-1200J0D01*
G01*
X138700Y-52000D02*
G03*
X138700Y-52000I-1200J0D01*
G01*
X125200Y-28671D02*
G03*
X125200Y-28671I-1200J0D01*
G01*
X252700Y-97000D02*
G03*
X252700Y-97000I-1200J0D01*
G01*
X214700Y-100500D02*
G03*
X214700Y-100500I-1200J0D01*
G01*
X213700Y-10000D02*
G03*
X213700Y-10000I-1200J0D01*
G01*
X187700Y-11500D02*
G03*
X187700Y-11500I-1200J0D01*
G01*
X194700D02*
G03*
X194700Y-11500I-1200J0D01*
G01*
Y-15500D02*
G03*
X194700Y-15500I-1200J0D01*
G01*
X187700D02*
G03*
X187700Y-15500I-1200J0D01*
G01*
X191200Y-18000D02*
G03*
X191200Y-18000I-1200J0D01*
G01*
X165200D02*
G03*
X165200Y-18000I-1200J0D01*
G01*
X172200D02*
G03*
X172200Y-18000I-1200J0D01*
G01*
X168700Y-8000D02*
G03*
X168700Y-8000I-1200J0D01*
G01*
X144700Y9000D02*
G03*
X144700Y9000I-1200J0D01*
G01*
X118700Y14000D02*
G03*
X118700Y14000I-1200J0D01*
G01*
X148700Y15500D02*
G03*
X148700Y15500I-1200J0D01*
G01*
X160200Y31500D02*
G03*
X160200Y31500I-1200J0D01*
G01*
X133700Y36260D02*
G03*
X133700Y36260I-1200J0D01*
G01*
X118700Y47000D02*
G03*
X118700Y47000I-1200J0D01*
G01*
X103700Y50000D02*
G03*
X103700Y50000I-1200J0D01*
G01*
X100700Y62500D02*
G03*
X100700Y62500I-1200J0D01*
G01*
X110700D02*
G03*
X110700Y62500I-1200J0D01*
G01*
X91200Y37000D02*
G03*
X91200Y37000I-1200J0D01*
G01*
X-3800Y73000D02*
G03*
X-3800Y73000I-1200J0D01*
G01*
X22450Y76949D02*
G03*
X22450Y76949I-1200J0D01*
G01*
X-56300Y-15000D02*
G03*
X-56300Y-15000I-1200J0D01*
G01*
X-51800Y11000D02*
G03*
X-51800Y11000I-1200J0D01*
G01*
X-51851Y18750D02*
G03*
X-51851Y18750I-1200J0D01*
G01*
X-23100Y13398D02*
G03*
X-23100Y13398I-1200J0D01*
G01*
X253700Y15000D02*
G03*
X253700Y15000I-1200J0D01*
G01*
X251200Y101000D02*
G03*
X251200Y101000I-1200J0D01*
G01*
X249200Y105500D02*
G03*
X249200Y105500I-1200J0D01*
G01*
X242700Y102500D02*
G03*
X242700Y102500I-1200J0D01*
G01*
X244700Y98000D02*
G03*
X244700Y98000I-1200J0D01*
G01*
X208200Y86000D02*
G03*
X208200Y86000I-1200J0D01*
G01*
X218700Y90000D02*
G03*
X218700Y90000I-1200J0D01*
G01*
X266200Y109500D02*
G03*
X266200Y109500I-1200J0D01*
G01*
X-281300Y42500D02*
G03*
X-281300Y42500I-1200J0D01*
G01*
X-268800Y-72500D02*
G03*
X-268800Y-72500I-1200J0D01*
G01*
X-221300Y-170000D02*
G03*
X-221300Y-170000I-1200J0D01*
G01*
X-138800Y-242500D02*
G03*
X-138800Y-242500I-1200J0D01*
G01*
X-33800Y-277500D02*
G03*
X-33800Y-277500I-1200J0D01*
G01*
X73700Y-270000D02*
G03*
X73700Y-270000I-1200J0D01*
G01*
X171200Y-220000D02*
G03*
X171200Y-220000I-1200J0D01*
G01*
X243700Y-137500D02*
G03*
X243700Y-137500I-1200J0D01*
G01*
X278700Y-35000D02*
G03*
X278700Y-35000I-1200J0D01*
G01*
X271200Y75000D02*
G03*
X271200Y75000I-1200J0D01*
G01*
X221200Y170000D02*
G03*
X221200Y170000I-1200J0D01*
G01*
X138700Y242500D02*
G03*
X138700Y242500I-1200J0D01*
G01*
X36200Y277500D02*
G03*
X36200Y277500I-1200J0D01*
G01*
X-71300Y270000D02*
G03*
X-71300Y270000I-1200J0D01*
G01*
X-168800Y222500D02*
G03*
X-168800Y222500I-1200J0D01*
G01*
X-241300Y140000D02*
G03*
X-241300Y140000I-1200J0D01*
G01*
X-223800Y27500D02*
G03*
X-223800Y27500I-1200J0D01*
G01*
X-186300Y42500D02*
G03*
X-186300Y42500I-1200J0D01*
G01*
X-196800Y111000D02*
G03*
X-196800Y111000I-1200J0D01*
G01*
X-155800Y114000D02*
G03*
X-155800Y114000I-1200J0D01*
G01*
X-138800Y179000D02*
G03*
X-138800Y179000I-1200J0D01*
G01*
X-100800Y165000D02*
G03*
X-100800Y165000I-1200J0D01*
G01*
X-59800Y218000D02*
G03*
X-59800Y218000I-1200J0D01*
G01*
X-30800Y191000D02*
G03*
X-30800Y191000I-1200J0D01*
G01*
X28200Y225000D02*
G03*
X28200Y225000I-1200J0D01*
G01*
X44200Y189000D02*
G03*
X44200Y189000I-1200J0D01*
G01*
X112200Y197000D02*
G03*
X112200Y197000I-1200J0D01*
G01*
X113200Y158000D02*
G03*
X113200Y158000I-1200J0D01*
G01*
X179200Y140000D02*
G03*
X179200Y140000I-1200J0D01*
G01*
X165200Y103000D02*
G03*
X165200Y103000I-1200J0D01*
G01*
X219366Y61000D02*
G03*
X219366Y61000I-1200J0D01*
G01*
X196200Y30000D02*
G03*
X196200Y30000I-1200J0D01*
G01*
X226200Y-27000D02*
G03*
X226200Y-27000I-1200J0D01*
G01*
X190200Y-43000D02*
G03*
X190200Y-43000I-1200J0D01*
G01*
X199200Y-111000D02*
G03*
X199200Y-111000I-1200J0D01*
G01*
X158200Y-113000D02*
G03*
X158200Y-113000I-1200J0D01*
G01*
X62200Y-218000D02*
G03*
X62200Y-218000I-1200J0D01*
G01*
X141200Y-178000D02*
G03*
X141200Y-178000I-1200J0D01*
G01*
X102200Y-166000D02*
G03*
X102200Y-166000I-1200J0D01*
G01*
X32200Y-192000D02*
G03*
X32200Y-192000I-1200J0D01*
G01*
X-26906Y-225106D02*
G03*
X-26906Y-225106I-1200J0D01*
G01*
X-109800Y-198000D02*
G03*
X-109800Y-198000I-1200J0D01*
G01*
X-111800Y-157000D02*
G03*
X-111800Y-157000I-1200J0D01*
G01*
X-43800Y-189000D02*
G03*
X-43800Y-189000I-1200J0D01*
G01*
X-177498Y-140000D02*
G03*
X-177498Y-140000I-1200J0D01*
G01*
X-216800Y-61000D02*
G03*
X-216800Y-61000I-1200J0D01*
G01*
X-161800Y-103000D02*
G03*
X-161800Y-103000I-1200J0D01*
G01*
X-187800Y-32000D02*
G03*
X-187800Y-32000I-1200J0D01*
G01*
X-142800Y-101000D02*
G03*
X-142800Y-101000I-1200J0D01*
G01*
X-176800Y-82000D02*
G03*
X-176800Y-82000I-1200J0D01*
G01*
X17200Y68000D02*
G03*
X17200Y68000I-1200J0D01*
G01*
X20200Y65000D02*
G03*
X20200Y65000I-1200J0D01*
G01*
X25700Y38500D02*
G03*
X25700Y38500I-1200J0D01*
G01*
X22700Y37000D02*
G03*
X22700Y37000I-1200J0D01*
G01*
Y62000D02*
G03*
X22700Y62000I-1200J0D01*
G01*
X23700Y70000D02*
G03*
X23700Y70000I-1200J0D01*
G01*
X26200Y67500D02*
G03*
X26200Y67500I-1200J0D01*
G01*
X28700Y65000D02*
G03*
X28700Y65000I-1200J0D01*
G01*
X41200Y70000D02*
G03*
X41200Y70000I-1200J0D01*
G01*
X43700Y67500D02*
G03*
X43700Y67500I-1200J0D01*
G01*
X46200Y65000D02*
G03*
X46200Y65000I-1200J0D01*
G01*
X98700Y52500D02*
G03*
X98700Y52500I-1200J0D01*
G01*
X76200Y82500D02*
G03*
X76200Y82500I-1200J0D01*
G01*
X73700Y85000D02*
G03*
X73700Y85000I-1200J0D01*
G01*
X71200Y87500D02*
G03*
X71200Y87500I-1200J0D01*
G01*
X152200Y96500D02*
G03*
X152200Y96500I-1200J0D01*
G01*
X-172300Y8500D02*
G03*
X-172300Y8500I-1200J0D01*
G01*
X-163300Y28760D02*
G03*
X-163300Y28760I-1200J0D01*
G01*
X-147800Y54500D02*
G03*
X-147800Y54500I-1200J0D01*
G01*
X-134300Y77500D02*
G03*
X-134300Y77500I-1200J0D01*
G01*
X-183800Y68500D02*
G03*
X-183800Y68500I-1200J0D01*
G01*
Y57000D02*
G03*
X-183800Y57000I-1200J0D01*
G01*
X185200Y68500D02*
G03*
X185200Y68500I-1200J0D01*
G01*
X177200Y60500D02*
G03*
X177200Y60500I-1200J0D01*
G01*
X-33800Y100500D02*
G03*
X-33800Y100500I-1200J0D01*
G01*
X52700Y97500D02*
G03*
X52700Y97500I-1200J0D01*
G01*
X128700Y49500D02*
G03*
X128700Y49500I-1200J0D01*
G01*
Y12500D02*
G03*
X128700Y12500I-1200J0D01*
G01*
X66200Y25000D02*
G03*
X66200Y25000I-1200J0D01*
G01*
X63700Y27500D02*
G03*
X63700Y27500I-1200J0D01*
G01*
X40700Y16000D02*
G03*
X40700Y16000I-1200J0D01*
G01*
X41200Y10000D02*
G03*
X41200Y10000I-1200J0D01*
G01*
Y5000D02*
G03*
X41200Y5000I-1200J0D01*
G01*
D262*
X-304648Y-33459D02*
G03*
X-304648Y-33459I-2000J0D01*
G01*
X-294110Y-86437D02*
G03*
X-294110Y-86437I-2000J0D01*
G01*
X-268502Y-148261D02*
G03*
X-268502Y-148261I-2000J0D01*
G01*
X-238492Y-193174D02*
G03*
X-238492Y-193174I-2000J0D01*
G01*
X-191174Y-240492D02*
G03*
X-191174Y-240492I-2000J0D01*
G01*
X-146261Y-270502D02*
G03*
X-146261Y-270502I-2000J0D01*
G01*
X-84437Y-296110D02*
G03*
X-84437Y-296110I-2000J0D01*
G01*
X-31459Y-306648D02*
G03*
X-31459Y-306648I-2000J0D01*
G01*
X35459Y-306648D02*
G03*
X35459Y-306648I-2000J0D01*
G01*
X88437Y-296110D02*
G03*
X88437Y-296110I-2000J0D01*
G01*
X150261Y-270502D02*
G03*
X150261Y-270502I-2000J0D01*
G01*
X195174Y-240492D02*
G03*
X195174Y-240492I-2000J0D01*
G01*
X242492Y-193174D02*
G03*
X242492Y-193174I-2000J0D01*
G01*
X272502Y-148261D02*
G03*
X272502Y-148261I-2000J0D01*
G01*
X298110Y-86437D02*
G03*
X298110Y-86437I-2000J0D01*
G01*
X308648Y-33459D02*
G03*
X308648Y-33459I-2000J0D01*
G01*
X195174Y240492D02*
G03*
X195174Y240492I-2000J0D01*
G01*
X150261Y270502D02*
G03*
X150261Y270502I-2000J0D01*
G01*
X272502Y148261D02*
G03*
X272502Y148261I-2000J0D01*
G01*
X242492Y193174D02*
G03*
X242492Y193174I-2000J0D01*
G01*
X308648Y33459D02*
G03*
X308648Y33459I-2000J0D01*
G01*
X298110Y86437D02*
G03*
X298110Y86437I-2000J0D01*
G01*
X-294110Y86437D02*
G03*
X-294110Y86437I-2000J0D01*
G01*
X-304648Y33459D02*
G03*
X-304648Y33459I-2000J0D01*
G01*
X-238492Y193174D02*
G03*
X-238492Y193174I-2000J0D01*
G01*
X-268502Y148261D02*
G03*
X-268502Y148261I-2000J0D01*
G01*
X-146262Y270502D02*
G03*
X-146262Y270502I-2000J0D01*
G01*
X-191175Y240492D02*
G03*
X-191175Y240492I-2000J0D01*
G01*
X-31459Y306648D02*
G03*
X-31459Y306648I-2000J0D01*
G01*
X-84437Y296110D02*
G03*
X-84437Y296110I-2000J0D01*
G01*
X88437Y296110D02*
G03*
X88437Y296110I-2000J0D01*
G01*
X35459Y306648D02*
G03*
X35459Y306648I-2000J0D01*
G01*
X111000Y-129000D02*
G03*
X111000Y-129000I-2000J0D01*
G01*
X117500Y-103000D02*
G03*
X117500Y-103000I-2000J0D01*
G01*
X29500Y-113500D02*
G03*
X29500Y-113500I-2000J0D01*
G01*
X-21000Y-103000D02*
G03*
X-21000Y-103000I-2000J0D01*
G01*
X-36500Y-14000D02*
G03*
X-36500Y-14000I-2000J0D01*
G01*
X-36250Y-24750D02*
G03*
X-36250Y-24750I-2000J0D01*
G01*
X35500Y-60000D02*
G03*
X35500Y-60000I-2000J0D01*
G01*
X40500Y-67500D02*
G03*
X40500Y-67500I-2000J0D01*
G01*
X38000Y-65000D02*
G03*
X38000Y-65000I-2000J0D01*
G01*
X24000Y-54500D02*
G03*
X24000Y-54500I-2000J0D01*
G01*
X-1500Y-37000D02*
G03*
X-1500Y-37000I-2000J0D01*
G01*
X-13500Y-39500D02*
G03*
X-13500Y-39500I-2000J0D01*
G01*
X175000Y50000D02*
G03*
X175000Y50000I-2000J0D01*
G01*
X59000Y137000D02*
G03*
X59000Y137000I-2000J0D01*
G01*
X67000Y145000D02*
G03*
X67000Y145000I-2000J0D01*
G01*
X84360Y123361D02*
G03*
X84360Y123361I-2000J0D01*
G01*
X86000Y135000D02*
G03*
X86000Y135000I-2000J0D01*
G01*
X107000Y105000D02*
G03*
X107000Y105000I-2000J0D01*
G01*
X111000Y116000D02*
G03*
X111000Y116000I-2000J0D01*
G01*
X138000Y91000D02*
G03*
X138000Y91000I-2000J0D01*
G01*
X82000Y-124000D02*
G03*
X82000Y-124000I-2000J0D01*
G01*
X71500Y-107500D02*
G03*
X71500Y-107500I-2000J0D01*
G01*
X84000Y-99500D02*
G03*
X84000Y-99500I-2000J0D01*
G01*
X85000Y-120500D02*
G03*
X85000Y-120500I-2000J0D01*
G01*
X-40500Y-47500D02*
G03*
X-40500Y-47500I-2000J0D01*
G01*
X-38000Y-40000D02*
G03*
X-38000Y-40000I-2000J0D01*
G01*
X-65000Y-130000D02*
G03*
X-65000Y-130000I-2000J0D01*
G01*
X54250Y-72250D02*
G03*
X54250Y-72250I-2000J0D01*
G01*
X-94500Y-130000D02*
G03*
X-94500Y-130000I-2000J0D01*
G01*
X-114500D02*
G03*
X-114500Y-130000I-2000J0D01*
G01*
X-94500Y-110000D02*
G03*
X-94500Y-110000I-2000J0D01*
G01*
X-114500D02*
G03*
X-114500Y-110000I-2000J0D01*
G01*
X-63000Y-109500D02*
G03*
X-63000Y-109500I-2000J0D01*
G01*
X-58500Y-97500D02*
G03*
X-58500Y-97500I-2000J0D01*
G01*
X-50500Y-57500D02*
G03*
X-50500Y-57500I-2000J0D01*
G01*
Y-67500D02*
G03*
X-50500Y-67500I-2000J0D01*
G01*
Y-62500D02*
G03*
X-50500Y-62500I-2000J0D01*
G01*
X-53000Y-65000D02*
G03*
X-53000Y-65000I-2000J0D01*
G01*
Y-60000D02*
G03*
X-53000Y-60000I-2000J0D01*
G01*
X-57000Y-28000D02*
G03*
X-57000Y-28000I-2000J0D01*
G01*
X-53000Y-23000D02*
G03*
X-53000Y-23000I-2000J0D01*
G01*
X-39500Y-22500D02*
G03*
X-39500Y-22500I-2000J0D01*
G01*
X-60500Y-112500D02*
G03*
X-60500Y-112500I-2000J0D01*
G01*
X-55500Y-100000D02*
G03*
X-55500Y-100000I-2000J0D01*
G01*
X-58000Y-115000D02*
G03*
X-58000Y-115000I-2000J0D01*
G01*
X-45500Y-107500D02*
G03*
X-45500Y-107500I-2000J0D01*
G01*
X-30500Y-90000D02*
G03*
X-30500Y-90000I-2000J0D01*
G01*
X-38000Y-92500D02*
G03*
X-38000Y-92500I-2000J0D01*
G01*
X59500Y-57500D02*
G03*
X59500Y-57500I-2000J0D01*
G01*
X274500Y112500D02*
G03*
X274500Y112500I-2000J0D01*
G01*
X-2000Y-68000D02*
G03*
X-2000Y-68000I-2000J0D01*
G01*
X-5500Y139000D02*
G03*
X-5500Y139000I-2000J0D01*
G01*
X-1500Y143000D02*
G03*
X-1500Y143000I-2000J0D01*
G01*
X234000Y-94500D02*
G03*
X234000Y-94500I-2000J0D01*
G01*
X7000Y-74500D02*
G03*
X7000Y-74500I-2000J0D01*
G01*
X45500Y-70000D02*
G03*
X45500Y-70000I-2000J0D01*
G01*
X48500Y-57500D02*
G03*
X48500Y-57500I-2000J0D01*
G01*
X-24500Y-60000D02*
G03*
X-24500Y-60000I-2000J0D01*
G01*
Y-65000D02*
G03*
X-24500Y-65000I-2000J0D01*
G01*
Y-70000D02*
G03*
X-24500Y-70000I-2000J0D01*
G01*
X-27000Y-67500D02*
G03*
X-27000Y-67500I-2000J0D01*
G01*
Y-62500D02*
G03*
X-27000Y-62500I-2000J0D01*
G01*
Y-57500D02*
G03*
X-27000Y-57500I-2000J0D01*
G01*
X-35500Y5500D02*
G03*
X-35500Y5500I-2000J0D01*
G01*
Y-30000D02*
G03*
X-35500Y-30000I-2000J0D01*
G01*
X-40500Y-28500D02*
G03*
X-40500Y-28500I-2000J0D01*
G01*
X-1500Y92000D02*
G03*
X-1500Y92000I-2000J0D01*
G01*
X28000Y110000D02*
G03*
X28000Y110000I-2000J0D01*
G01*
X30500Y107500D02*
G03*
X30500Y107500I-2000J0D01*
G01*
X33000Y105000D02*
G03*
X33000Y105000I-2000J0D01*
G01*
X-1084Y-108417D02*
G03*
X-1084Y-108417I-2000J0D01*
G01*
X2000Y-110000D02*
G03*
X2000Y-110000I-2000J0D01*
G01*
X-3500Y-106000D02*
G03*
X-3500Y-106000I-2000J0D01*
G01*
X-21500Y110000D02*
G03*
X-21500Y110000I-2000J0D01*
G01*
X-4500Y115000D02*
G03*
X-4500Y115000I-2000J0D01*
G01*
X-206602Y-4398D02*
G03*
X-206602Y-4398I-2000J0D01*
G01*
X-186543Y-14457D02*
G03*
X-186543Y-14457I-2000J0D01*
G01*
X-28000Y112500D02*
G03*
X-28000Y112500I-2000J0D01*
G01*
X2000Y35500D02*
G03*
X2000Y35500I-2000J0D01*
G01*
X-5500Y38500D02*
G03*
X-5500Y38500I-2000J0D01*
G01*
X13500D02*
G03*
X13500Y38500I-2000J0D01*
G01*
X-33000Y35500D02*
G03*
X-33000Y35500I-2000J0D01*
G01*
X-8000Y-37500D02*
G03*
X-8000Y-37500I-2000J0D01*
G01*
X13000Y-38500D02*
G03*
X13000Y-38500I-2000J0D01*
G01*
X38000Y-24000D02*
G03*
X38000Y-24000I-2000J0D01*
G01*
X5937Y-24563D02*
G03*
X5937Y-24563I-2000J0D01*
G01*
X48500Y-24000D02*
G03*
X48500Y-24000I-2000J0D01*
G01*
X79500Y-65000D02*
G03*
X79500Y-65000I-2000J0D01*
G01*
X-155500Y-70000D02*
G03*
X-155500Y-70000I-2000J0D01*
G01*
Y-57500D02*
G03*
X-155500Y-57500I-2000J0D01*
G01*
X-181500Y-58500D02*
G03*
X-181500Y-58500I-2000J0D01*
G01*
X-188500Y-65500D02*
G03*
X-188500Y-65500I-2000J0D01*
G01*
X43500Y-42500D02*
G03*
X43500Y-42500I-2000J0D01*
G01*
X41000Y-40000D02*
G03*
X41000Y-40000I-2000J0D01*
G01*
X43500Y-30000D02*
G03*
X43500Y-30000I-2000J0D01*
G01*
X41000Y-32500D02*
G03*
X41000Y-32500I-2000J0D01*
G01*
X124500Y-54000D02*
G03*
X124500Y-54000I-2000J0D01*
G01*
X129000Y-23000D02*
G03*
X129000Y-23000I-2000J0D01*
G01*
Y-13500D02*
G03*
X129000Y-13500I-2000J0D01*
G01*
X102500Y-89000D02*
G03*
X102500Y-89000I-2000J0D01*
G01*
X110000Y-91500D02*
G03*
X110000Y-91500I-2000J0D01*
G01*
X151500Y-31000D02*
G03*
X151500Y-31000I-2000J0D01*
G01*
X211500Y3500D02*
G03*
X211500Y3500I-2000J0D01*
G01*
X-38000Y-67500D02*
G03*
X-38000Y-67500I-2000J0D01*
G01*
Y-62500D02*
G03*
X-38000Y-62500I-2000J0D01*
G01*
X-35500Y-60000D02*
G03*
X-35500Y-60000I-2000J0D01*
G01*
Y-65000D02*
G03*
X-35500Y-65000I-2000J0D01*
G01*
X24500Y-70000D02*
G03*
X24500Y-70000I-2000J0D01*
G01*
X49500D02*
G03*
X49500Y-70000I-2000J0D01*
G01*
X22000Y-67500D02*
G03*
X22000Y-67500I-2000J0D01*
G01*
X24500Y-65000D02*
G03*
X24500Y-65000I-2000J0D01*
G01*
X19500Y-57500D02*
G03*
X19500Y-57500I-2000J0D01*
G01*
X22000Y-60000D02*
G03*
X22000Y-60000I-2000J0D01*
G01*
X74500Y5000D02*
G03*
X74500Y5000I-2000J0D01*
G01*
X79500D02*
G03*
X79500Y5000I-2000J0D01*
G01*
Y15000D02*
G03*
X79500Y15000I-2000J0D01*
G01*
X82000Y25000D02*
G03*
X82000Y25000I-2000J0D01*
G01*
X84500Y27500D02*
G03*
X84500Y27500I-2000J0D01*
G01*
X95000Y42500D02*
G03*
X95000Y42500I-2000J0D01*
G01*
X-45500Y-145000D02*
G03*
X-45500Y-145000I-2000J0D01*
G01*
X-50500D02*
G03*
X-50500Y-145000I-2000J0D01*
G01*
X-48000Y-160000D02*
G03*
X-48000Y-160000I-2000J0D01*
G01*
X-43000D02*
G03*
X-43000Y-160000I-2000J0D01*
G01*
X24500Y102500D02*
G03*
X24500Y102500I-2000J0D01*
G01*
X16000Y94000D02*
G03*
X16000Y94000I-2000J0D01*
G01*
X2000Y40000D02*
G03*
X2000Y40000I-2000J0D01*
G01*
X43000Y-13000D02*
G03*
X43000Y-13000I-2000J0D01*
G01*
X22000Y-37500D02*
G03*
X22000Y-37500I-2000J0D01*
G01*
X-243000Y62500D02*
G03*
X-243000Y62500I-2000J0D01*
G01*
X-260500D02*
G03*
X-260500Y62500I-2000J0D01*
G01*
X-200500Y150000D02*
G03*
X-200500Y150000I-2000J0D01*
G01*
X-215500Y157500D02*
G03*
X-215500Y157500I-2000J0D01*
G01*
X-128000Y217500D02*
G03*
X-128000Y217500I-2000J0D01*
G01*
X-138000Y227500D02*
G03*
X-138000Y227500I-2000J0D01*
G01*
X-33000Y250000D02*
G03*
X-33000Y250000I-2000J0D01*
G01*
X-40500Y265000D02*
G03*
X-40500Y265000I-2000J0D01*
G01*
X64500Y242500D02*
G03*
X64500Y242500I-2000J0D01*
G01*
Y260000D02*
G03*
X64500Y260000I-2000J0D01*
G01*
X154500Y202500D02*
G03*
X154500Y202500I-2000J0D01*
G01*
X159500Y217500D02*
G03*
X159500Y217500I-2000J0D01*
G01*
X219500Y130000D02*
G03*
X219500Y130000I-2000J0D01*
G01*
X232000Y140000D02*
G03*
X232000Y140000I-2000J0D01*
G01*
X249500Y35000D02*
G03*
X249500Y35000I-2000J0D01*
G01*
X269500Y42500D02*
G03*
X269500Y42500I-2000J0D01*
G01*
X-138000Y62500D02*
G03*
X-138000Y62500I-2000J0D01*
G01*
X-130500Y50000D02*
G03*
X-130500Y50000I-2000J0D01*
G01*
X-150500Y-70000D02*
G03*
X-150500Y-70000I-2000J0D01*
G01*
Y-57500D02*
G03*
X-150500Y-57500I-2000J0D01*
G01*
X-58000Y-242500D02*
G03*
X-58000Y-242500I-2000J0D01*
G01*
X-60500Y-260000D02*
G03*
X-60500Y-260000I-2000J0D01*
G01*
X-148000Y-200000D02*
G03*
X-148000Y-200000I-2000J0D01*
G01*
X-155500Y-217500D02*
G03*
X-155500Y-217500I-2000J0D01*
G01*
X-215500Y-130000D02*
G03*
X-215500Y-130000I-2000J0D01*
G01*
X-228000Y-142500D02*
G03*
X-228000Y-142500I-2000J0D01*
G01*
X-248000Y-37500D02*
G03*
X-248000Y-37500I-2000J0D01*
G01*
X-265500Y-42500D02*
G03*
X-265500Y-42500I-2000J0D01*
G01*
X44500Y-265000D02*
G03*
X44500Y-265000I-2000J0D01*
G01*
X132000Y-217500D02*
G03*
X132000Y-217500I-2000J0D01*
G01*
X144500Y-230000D02*
G03*
X144500Y-230000I-2000J0D01*
G01*
X204500Y-150000D02*
G03*
X204500Y-150000I-2000J0D01*
G01*
X219500Y-157500D02*
G03*
X219500Y-157500I-2000J0D01*
G01*
X237000Y-87500D02*
G03*
X237000Y-87500I-2000J0D01*
G01*
Y-92500D02*
G03*
X237000Y-92500I-2000J0D01*
G01*
X229600Y-102500D02*
G03*
X229600Y-102500I-2000J0D01*
G01*
X232000Y-97500D02*
G03*
X232000Y-97500I-2000J0D01*
G01*
X244500Y-62500D02*
G03*
X244500Y-62500I-2000J0D01*
G01*
X264500D02*
G03*
X264500Y-62500I-2000J0D01*
G01*
X39500Y-247500D02*
G03*
X39500Y-247500I-2000J0D01*
G01*
X-25500Y107500D02*
G03*
X-25500Y107500I-2000J0D01*
G01*
X7000Y112500D02*
G03*
X7000Y112500I-2000J0D01*
G01*
X4500Y110000D02*
G03*
X4500Y110000I-2000J0D01*
G01*
X2000Y107500D02*
G03*
X2000Y107500I-2000J0D01*
G01*
X-5500Y120000D02*
G03*
X-5500Y120000I-2000J0D01*
G01*
X-28000Y105000D02*
G03*
X-28000Y105000I-2000J0D01*
G01*
X4500Y-112500D02*
G03*
X4500Y-112500I-2000J0D01*
G01*
X7000Y-115000D02*
G03*
X7000Y-115000I-2000J0D01*
G01*
X17000Y-92500D02*
G03*
X17000Y-92500I-2000J0D01*
G01*
Y-100000D02*
G03*
X17000Y-100000I-2000J0D01*
G01*
X22000Y-97500D02*
G03*
X22000Y-97500I-2000J0D01*
G01*
X69500Y45000D02*
G03*
X69500Y45000I-2000J0D01*
G01*
X72000Y42500D02*
G03*
X72000Y42500I-2000J0D01*
G01*
X79500Y47500D02*
G03*
X79500Y47500I-2000J0D01*
G01*
X22000Y20000D02*
G03*
X22000Y20000I-2000J0D01*
G01*
X-3000Y-5000D02*
G03*
X-3000Y-5000I-2000J0D01*
G01*
X7000D02*
G03*
X7000Y-5000I-2000J0D01*
G01*
Y5000D02*
G03*
X7000Y5000I-2000J0D01*
G01*
X-3000D02*
G03*
X-3000Y5000I-2000J0D01*
G01*
X59500Y52500D02*
G03*
X59500Y52500I-2000J0D01*
G01*
X52000Y42500D02*
G03*
X52000Y42500I-2000J0D01*
G01*
X57000Y22500D02*
G03*
X57000Y22500I-2000J0D01*
G01*
X54500Y45000D02*
G03*
X54500Y45000I-2000J0D01*
G01*
X29500Y-105000D02*
G03*
X29500Y-105000I-2000J0D01*
G01*
X77000Y-67500D02*
G03*
X77000Y-67500I-2000J0D01*
G01*
X-10500Y-57500D02*
G03*
X-10500Y-57500I-2000J0D01*
G01*
X-12976Y-60000D02*
G03*
X-12976Y-60000I-2000J0D01*
G01*
X-134000Y-28000D02*
G03*
X-134000Y-28000I-2000J0D01*
G01*
X-129000Y-23000D02*
G03*
X-129000Y-23000I-2000J0D01*
G01*
X-127000Y-6000D02*
G03*
X-127000Y-6000I-2000J0D01*
G01*
X-121500Y-7500D02*
G03*
X-121500Y-7500I-2000J0D01*
G01*
X-40500Y0D02*
G03*
X-40500Y0I-2000J0D01*
G01*
X-38000Y2500D02*
G03*
X-38000Y2500I-2000J0D01*
G01*
X-18000D02*
G03*
X-18000Y2500I-2000J0D01*
G01*
X-15500Y0D02*
G03*
X-15500Y0I-2000J0D01*
G01*
X-10500Y-62500D02*
G03*
X-10500Y-62500I-2000J0D01*
G01*
X-8000Y-65000D02*
G03*
X-8000Y-65000I-2000J0D01*
G01*
X-5500Y-67500D02*
G03*
X-5500Y-67500I-2000J0D01*
G01*
X-145500Y-12500D02*
G03*
X-145500Y-12500I-2000J0D01*
G01*
Y-17500D02*
G03*
X-145500Y-17500I-2000J0D01*
G01*
X-38000Y-2500D02*
G03*
X-38000Y-2500I-2000J0D01*
G01*
X-40500Y-5000D02*
G03*
X-40500Y-5000I-2000J0D01*
G01*
X-18000Y-2500D02*
G03*
X-18000Y-2500I-2000J0D01*
G01*
X-15500Y-5000D02*
G03*
X-15500Y-5000I-2000J0D01*
G01*
X-33000Y-40000D02*
G03*
X-33000Y-40000I-2000J0D01*
G01*
X-18000Y-7500D02*
G03*
X-18000Y-7500I-2000J0D01*
G01*
X-15500Y-10000D02*
G03*
X-15500Y-10000I-2000J0D01*
G01*
X-38000Y-7500D02*
G03*
X-38000Y-7500I-2000J0D01*
G01*
X-40500Y-10000D02*
G03*
X-40500Y-10000I-2000J0D01*
G01*
X-28000Y-35000D02*
G03*
X-28000Y-35000I-2000J0D01*
G01*
X22000Y-7500D02*
G03*
X22000Y-7500I-2000J0D01*
G01*
X24500Y-5000D02*
G03*
X24500Y-5000I-2000J0D01*
G01*
X39500D02*
G03*
X39500Y-5000I-2000J0D01*
G01*
X42000Y-2500D02*
G03*
X42000Y-2500I-2000J0D01*
G01*
X-70500Y112500D02*
G03*
X-70500Y112500I-2000J0D01*
G01*
X-78000D02*
G03*
X-78000Y112500I-2000J0D01*
G01*
X-70500Y127500D02*
G03*
X-70500Y127500I-2000J0D01*
G01*
X-75500Y130000D02*
G03*
X-75500Y130000I-2000J0D01*
G01*
X47000Y157500D02*
G03*
X47000Y157500I-2000J0D01*
G01*
X49500Y155000D02*
G03*
X49500Y155000I-2000J0D01*
G01*
X22000Y150000D02*
G03*
X22000Y150000I-2000J0D01*
G01*
X27000D02*
G03*
X27000Y150000I-2000J0D01*
G01*
X52000Y-117500D02*
G03*
X52000Y-117500I-2000J0D01*
G01*
X48465Y-113964D02*
G03*
X48465Y-113964I-2000J0D01*
G01*
X37000Y-137500D02*
G03*
X37000Y-137500I-2000J0D01*
G01*
X42000D02*
G03*
X42000Y-137500I-2000J0D01*
G01*
X-15500Y39500D02*
G03*
X-15500Y39500I-2000J0D01*
G01*
X-37000Y10000D02*
G03*
X-37000Y10000I-2000J0D01*
G01*
X-25000Y-40000D02*
G03*
X-25000Y-40000I-2000J0D01*
G01*
X34500Y72500D02*
G03*
X34500Y72500I-2000J0D01*
G01*
X-195500Y-984D02*
G03*
X-195500Y-984I-2000J0D01*
G01*
X-145500Y-2500D02*
G03*
X-145500Y-2500I-2000J0D01*
G01*
X-80500Y-80000D02*
G03*
X-80500Y-80000I-2000J0D01*
G01*
X-55500Y-75000D02*
G03*
X-55500Y-75000I-2000J0D01*
G01*
X-34250Y-76949D02*
G03*
X-34250Y-76949I-2000J0D01*
G01*
X-8000Y-90551D02*
G03*
X-8000Y-90551I-2000J0D01*
G01*
X7000Y-90000D02*
G03*
X7000Y-90000I-2000J0D01*
G01*
X114500Y35571D02*
G03*
X114500Y35571I-2000J0D01*
G01*
X99500Y120000D02*
G03*
X99500Y120000I-2000J0D01*
G01*
X73069Y134822D02*
G03*
X73069Y134822I-2000J0D01*
G01*
X162000Y-53073D02*
G03*
X162000Y-53073I-2000J0D01*
G01*
X-15000Y-52000D02*
G03*
X-15000Y-52000I-2000J0D01*
G01*
X-7500Y-54500D02*
G03*
X-7500Y-54500I-2000J0D01*
G01*
X-1000D02*
G03*
X-1000Y-54500I-2000J0D01*
G01*
X5500D02*
G03*
X5500Y-54500I-2000J0D01*
G01*
X11500D02*
G03*
X11500Y-54500I-2000J0D01*
G01*
X-19000Y-77000D02*
G03*
X-19000Y-77000I-2000J0D01*
G01*
X26000Y-107500D02*
G03*
X26000Y-107500I-2000J0D01*
G01*
X46500D02*
G03*
X46500Y-107500I-2000J0D01*
G01*
X43500Y-96500D02*
G03*
X43500Y-96500I-2000J0D01*
G01*
X-22000Y-113500D02*
G03*
X-22000Y-113500I-2000J0D01*
G01*
X-4890Y-123110D02*
G03*
X-4890Y-123110I-2000J0D01*
G01*
X-2500Y-141500D02*
G03*
X-2500Y-141500I-2000J0D01*
G01*
X7000D02*
G03*
X7000Y-141500I-2000J0D01*
G01*
X10000Y-123500D02*
G03*
X10000Y-123500I-2000J0D01*
G01*
X-24250Y-165551D02*
G03*
X-24250Y-165551I-2000J0D01*
G01*
X2000Y-200000D02*
G03*
X2000Y-200000I-2000J0D01*
G01*
X-28000Y-187000D02*
G03*
X-28000Y-187000I-2000J0D01*
G01*
X-36000Y-217500D02*
G03*
X-36000Y-217500I-2000J0D01*
G01*
X-40529Y-230959D02*
G03*
X-40529Y-230959I-2000J0D01*
G01*
X-76000Y-263000D02*
G03*
X-76000Y-263000I-2000J0D01*
G01*
X-26500Y-273000D02*
G03*
X-26500Y-273000I-2000J0D01*
G01*
X35750Y-175551D02*
G03*
X35750Y-175551I-2000J0D01*
G01*
X46000Y-183500D02*
G03*
X46000Y-183500I-2000J0D01*
G01*
X50500Y-215000D02*
G03*
X50500Y-215000I-2000J0D01*
G01*
X51478Y-230077D02*
G03*
X51478Y-230077I-2000J0D01*
G01*
X31000Y-272000D02*
G03*
X31000Y-272000I-2000J0D01*
G01*
X80000Y-263000D02*
G03*
X80000Y-263000I-2000J0D01*
G01*
X133000Y-240500D02*
G03*
X133000Y-240500I-2000J0D01*
G01*
X174500Y-213000D02*
G03*
X174500Y-213000I-2000J0D01*
G01*
X136000Y-193749D02*
G03*
X136000Y-193749I-2000J0D01*
G01*
X129500Y-179500D02*
G03*
X129500Y-179500I-2000J0D01*
G01*
X108000Y-155000D02*
G03*
X108000Y-155000I-2000J0D01*
G01*
X161000Y-99000D02*
G03*
X161000Y-99000I-2000J0D01*
G01*
X188500Y-28000D02*
G03*
X188500Y-28000I-2000J0D01*
G01*
X188000Y36500D02*
G03*
X188000Y36500I-2000J0D01*
G01*
X153000Y111000D02*
G03*
X153000Y111000I-2000J0D01*
G01*
X100000Y161000D02*
G03*
X100000Y161000I-2000J0D01*
G01*
X33000Y185500D02*
G03*
X33000Y185500I-2000J0D01*
G01*
X-40000Y183500D02*
G03*
X-40000Y183500I-2000J0D01*
G01*
X-107000Y153000D02*
G03*
X-107000Y153000I-2000J0D01*
G01*
X-155500Y102500D02*
G03*
X-155500Y102500I-2000J0D01*
G01*
X-183000Y27500D02*
G03*
X-183000Y27500I-2000J0D01*
G01*
X-181500Y-44500D02*
G03*
X-181500Y-44500I-2000J0D01*
G01*
X-149000Y-111000D02*
G03*
X-149000Y-111000I-2000J0D01*
G01*
X-97000Y-155500D02*
G03*
X-97000Y-155500I-2000J0D01*
G01*
X-116000Y-186500D02*
G03*
X-116000Y-186500I-2000J0D01*
G01*
X-179000Y-127000D02*
G03*
X-179000Y-127000I-2000J0D01*
G01*
X-214000Y-48000D02*
G03*
X-214000Y-48000I-2000J0D01*
G01*
X-216000Y38000D02*
G03*
X-216000Y38000I-2000J0D01*
G01*
X-184500Y118000D02*
G03*
X-184500Y118000I-2000J0D01*
G01*
X-125000Y180500D02*
G03*
X-125000Y180500I-2000J0D01*
G01*
X-46500Y215500D02*
G03*
X-46500Y215500I-2000J0D01*
G01*
X40500Y218000D02*
G03*
X40500Y218000I-2000J0D01*
G01*
X120500Y187000D02*
G03*
X120500Y187000I-2000J0D01*
G01*
X183000Y127500D02*
G03*
X183000Y127500I-2000J0D01*
G01*
X217500Y48500D02*
G03*
X217500Y48500I-2000J0D01*
G01*
X220000Y-38000D02*
G03*
X220000Y-38000I-2000J0D01*
G01*
X188500Y-118500D02*
G03*
X188500Y-118500I-2000J0D01*
G01*
X199500Y-128386D02*
G03*
X199500Y-128386I-2000J0D01*
G01*
X233564Y-42000D02*
G03*
X233564Y-42000I-2000J0D01*
G01*
X232000Y49865D02*
G03*
X232000Y49865I-2000J0D01*
G01*
X195500Y134373D02*
G03*
X195500Y134373I-2000J0D01*
G01*
X129500Y197592D02*
G03*
X129500Y197592I-2000J0D01*
G01*
X44500Y231465D02*
G03*
X44500Y231465I-2000J0D01*
G01*
X-47500Y230073D02*
G03*
X-47500Y230073I-2000J0D01*
G01*
X-131000Y194083D02*
G03*
X-131000Y194083I-2000J0D01*
G01*
X-195926Y127000D02*
G03*
X-195926Y127000I-2000J0D01*
G01*
X-229500Y42000D02*
G03*
X-229500Y42000I-2000J0D01*
G01*
X-228073Y-49500D02*
G03*
X-228073Y-49500I-2000J0D01*
G01*
X-191749Y-134000D02*
G03*
X-191749Y-134000I-2000J0D01*
G01*
X-125000Y-197926D02*
G03*
X-125000Y-197926I-2000J0D01*
G01*
X-170000Y-212500D02*
G03*
X-170000Y-212500I-2000J0D01*
G01*
X-128500Y-240500D02*
G03*
X-128500Y-240500I-2000J0D01*
G01*
X-238500Y-130500D02*
G03*
X-238500Y-130500I-2000J0D01*
G01*
X-210500Y-172000D02*
G03*
X-210500Y-172000I-2000J0D01*
G01*
X-270000Y-28500D02*
G03*
X-270000Y-28500I-2000J0D01*
G01*
X-260500Y-77500D02*
G03*
X-260500Y-77500I-2000J0D01*
G01*
X-270500Y29000D02*
G03*
X-270500Y29000I-2000J0D01*
G01*
X-260000Y78000D02*
G03*
X-260000Y78000I-2000J0D01*
G01*
X-211000Y172500D02*
G03*
X-211000Y172500I-2000J0D01*
G01*
X-239000Y131000D02*
G03*
X-239000Y131000I-2000J0D01*
G01*
X-171000Y213500D02*
G03*
X-171000Y213500I-2000J0D01*
G01*
X-129000Y241000D02*
G03*
X-129000Y241000I-2000J0D01*
G01*
X-75500Y263000D02*
G03*
X-75500Y263000I-2000J0D01*
G01*
X-27000Y272500D02*
G03*
X-27000Y272500I-2000J0D01*
G01*
X31000Y272000D02*
G03*
X31000Y272000I-2000J0D01*
G01*
X79500Y263000D02*
G03*
X79500Y263000I-2000J0D01*
G01*
X133000Y240500D02*
G03*
X133000Y240500I-2000J0D01*
G01*
X174000Y212500D02*
G03*
X174000Y212500I-2000J0D01*
G01*
X242500Y130500D02*
G03*
X242500Y130500I-2000J0D01*
G01*
X215000Y172500D02*
G03*
X215000Y172500I-2000J0D01*
G01*
X274500Y29000D02*
G03*
X274500Y29000I-2000J0D01*
G01*
X264500Y78000D02*
G03*
X264500Y78000I-2000J0D01*
G01*
X265000Y-78000D02*
G03*
X265000Y-78000I-2000J0D01*
G01*
X274500Y-28500D02*
G03*
X274500Y-28500I-2000J0D01*
G01*
X266500Y-85500D02*
G03*
X266500Y-85500I-2000J0D01*
G01*
X292500Y-96500D02*
G03*
X292500Y-96500I-2000J0D01*
G01*
X249500Y-126500D02*
G03*
X249500Y-126500I-2000J0D01*
G01*
X275500Y-137500D02*
G03*
X275500Y-137500I-2000J0D01*
G01*
X215000Y-172500D02*
G03*
X215000Y-172500I-2000J0D01*
G01*
X243000Y-131000D02*
G03*
X243000Y-131000I-2000J0D01*
G01*
X-222000Y-92624D02*
G03*
X-222000Y-92624I-2000J0D01*
G01*
X-186500Y-80000D02*
G03*
X-186500Y-80000I-2000J0D01*
G01*
X-183000Y-70000D02*
G03*
X-183000Y-70000I-2000J0D01*
G01*
X-145500Y-95000D02*
G03*
X-145500Y-95000I-2000J0D01*
G01*
X-100500Y-73760D02*
G03*
X-100500Y-73760I-2000J0D01*
G01*
X-80500D02*
G03*
X-80500Y-73760I-2000J0D01*
G01*
X-95500Y-35000D02*
G03*
X-95500Y-35000I-2000J0D01*
G01*
X-113500D02*
G03*
X-113500Y-35000I-2000J0D01*
G01*
Y-15000D02*
G03*
X-113500Y-15000I-2000J0D01*
G01*
X-95500D02*
G03*
X-95500Y-15000I-2000J0D01*
G01*
Y5000D02*
G03*
X-95500Y5000I-2000J0D01*
G01*
X-113500D02*
G03*
X-113500Y5000I-2000J0D01*
G01*
X-95500Y25000D02*
G03*
X-95500Y25000I-2000J0D01*
G01*
X-113500D02*
G03*
X-113500Y25000I-2000J0D01*
G01*
Y45000D02*
G03*
X-113500Y45000I-2000J0D01*
G01*
X-95500D02*
G03*
X-95500Y45000I-2000J0D01*
G01*
X-150500Y-35000D02*
G03*
X-150500Y-35000I-2000J0D01*
G01*
X-125500Y63000D02*
G03*
X-125500Y63000I-2000J0D01*
G01*
X-127000Y50000D02*
G03*
X-127000Y50000I-2000J0D01*
G01*
X-162500Y35861D02*
G03*
X-162500Y35861I-2000J0D01*
G01*
X-136000Y42500D02*
G03*
X-136000Y42500I-2000J0D01*
G01*
X-130500Y61000D02*
G03*
X-130500Y61000I-2000J0D01*
G01*
X-222000Y92500D02*
G03*
X-222000Y92500I-2000J0D01*
G01*
X-186431Y80082D02*
G03*
X-186431Y80082I-2000J0D01*
G01*
X-290000Y100500D02*
G03*
X-290000Y100500I-2000J0D01*
G01*
X-286500Y108000D02*
G03*
X-286500Y108000I-2000J0D01*
G01*
X-24500Y165500D02*
G03*
X-24500Y165500I-2000J0D01*
G01*
X-32000D02*
G03*
X-32000Y165500I-2000J0D01*
G01*
X2000Y195500D02*
G03*
X2000Y195500I-2000J0D01*
G01*
Y182000D02*
G03*
X2000Y182000I-2000J0D01*
G01*
X28500Y165500D02*
G03*
X28500Y165500I-2000J0D01*
G01*
X-91000Y93000D02*
G03*
X-91000Y93000I-2000J0D01*
G01*
X-100500Y102500D02*
G03*
X-100500Y102500I-2000J0D01*
G01*
X-42000Y95000D02*
G03*
X-42000Y95000I-2000J0D01*
G01*
X-46760Y72500D02*
G03*
X-46760Y72500I-2000J0D01*
G01*
X-33000Y56000D02*
G03*
X-33000Y56000I-2000J0D01*
G01*
X-17000Y54000D02*
G03*
X-17000Y54000I-2000J0D01*
G01*
X4500Y54500D02*
G03*
X4500Y54500I-2000J0D01*
G01*
X12000D02*
G03*
X12000Y54500I-2000J0D01*
G01*
X24500D02*
G03*
X24500Y54500I-2000J0D01*
G01*
X-5000D02*
G03*
X-5000Y54500I-2000J0D01*
G01*
X55051Y13750D02*
G03*
X55051Y13750I-2000J0D01*
G01*
Y6250D02*
G03*
X55051Y6250I-2000J0D01*
G01*
Y-16250D02*
G03*
X55051Y-16250I-2000J0D01*
G01*
X55000Y-24000D02*
G03*
X55000Y-24000I-2000J0D01*
G01*
X122500Y84500D02*
G03*
X122500Y84500I-2000J0D01*
G01*
X102500Y89500D02*
G03*
X102500Y89500I-2000J0D01*
G01*
X82000Y106000D02*
G03*
X82000Y106000I-2000J0D01*
G01*
X60000Y119000D02*
G03*
X60000Y119000I-2000J0D01*
G01*
X3500Y125000D02*
G03*
X3500Y125000I-2000J0D01*
G01*
X10500Y140000D02*
G03*
X10500Y140000I-2000J0D01*
G01*
X11000Y118500D02*
G03*
X11000Y118500I-2000J0D01*
G01*
X21500Y101000D02*
G03*
X21500Y101000I-2000J0D01*
G01*
X9500Y92500D02*
G03*
X9500Y92500I-2000J0D01*
G01*
X5500D02*
G03*
X5500Y92500I-2000J0D01*
G01*
X-5000Y90500D02*
G03*
X-5000Y90500I-2000J0D01*
G01*
X-163610Y-8610D02*
G03*
X-163610Y-8610I-2000J0D01*
G01*
X-156043Y-16043D02*
G03*
X-156043Y-16043I-2000J0D01*
G01*
X-194000Y2500D02*
G03*
X-194000Y2500I-2000J0D01*
G01*
X-128500Y-2500D02*
G03*
X-128500Y-2500I-2000J0D01*
G01*
Y-10000D02*
G03*
X-128500Y-10000I-2000J0D01*
G01*
X-132500Y11500D02*
G03*
X-132500Y11500I-2000J0D01*
G01*
X-278000Y-127500D02*
G03*
X-278000Y-127500I-2000J0D01*
G01*
X-275500Y-135500D02*
G03*
X-275500Y-135500I-2000J0D01*
G01*
X77000Y-156000D02*
G03*
X77000Y-156000I-2000J0D01*
G01*
X99000Y-95500D02*
G03*
X99000Y-95500I-2000J0D01*
G01*
X103500Y-108000D02*
G03*
X103500Y-108000I-2000J0D01*
G01*
X108000Y-77500D02*
G03*
X108000Y-77500I-2000J0D01*
G01*
X109000Y-74500D02*
G03*
X109000Y-74500I-2000J0D01*
G01*
X127500Y-66000D02*
G03*
X127500Y-66000I-2000J0D01*
G01*
X148000Y-62000D02*
G03*
X148000Y-62000I-2000J0D01*
G01*
X161555Y-82537D02*
G03*
X161555Y-82537I-2000J0D01*
G01*
X168000Y-71500D02*
G03*
X168000Y-71500I-2000J0D01*
G01*
X139500Y-52000D02*
G03*
X139500Y-52000I-2000J0D01*
G01*
X126000Y-28671D02*
G03*
X126000Y-28671I-2000J0D01*
G01*
X253500Y-97000D02*
G03*
X253500Y-97000I-2000J0D01*
G01*
X215500Y-100500D02*
G03*
X215500Y-100500I-2000J0D01*
G01*
X214500Y-10000D02*
G03*
X214500Y-10000I-2000J0D01*
G01*
X188500Y-11500D02*
G03*
X188500Y-11500I-2000J0D01*
G01*
X195500D02*
G03*
X195500Y-11500I-2000J0D01*
G01*
Y-15500D02*
G03*
X195500Y-15500I-2000J0D01*
G01*
X188500D02*
G03*
X188500Y-15500I-2000J0D01*
G01*
X192000Y-18000D02*
G03*
X192000Y-18000I-2000J0D01*
G01*
X166000D02*
G03*
X166000Y-18000I-2000J0D01*
G01*
X173000D02*
G03*
X173000Y-18000I-2000J0D01*
G01*
X169500Y-8000D02*
G03*
X169500Y-8000I-2000J0D01*
G01*
X145500Y9000D02*
G03*
X145500Y9000I-2000J0D01*
G01*
X119500Y14000D02*
G03*
X119500Y14000I-2000J0D01*
G01*
X149500Y15500D02*
G03*
X149500Y15500I-2000J0D01*
G01*
X161000Y31500D02*
G03*
X161000Y31500I-2000J0D01*
G01*
X134500Y36260D02*
G03*
X134500Y36260I-2000J0D01*
G01*
X119500Y47000D02*
G03*
X119500Y47000I-2000J0D01*
G01*
X104500Y50000D02*
G03*
X104500Y50000I-2000J0D01*
G01*
X101500Y62500D02*
G03*
X101500Y62500I-2000J0D01*
G01*
X111500D02*
G03*
X111500Y62500I-2000J0D01*
G01*
X92000Y37000D02*
G03*
X92000Y37000I-2000J0D01*
G01*
X-3000Y73000D02*
G03*
X-3000Y73000I-2000J0D01*
G01*
X23250Y76949D02*
G03*
X23250Y76949I-2000J0D01*
G01*
X-55500Y-15000D02*
G03*
X-55500Y-15000I-2000J0D01*
G01*
X-51000Y11000D02*
G03*
X-51000Y11000I-2000J0D01*
G01*
X-51051Y18750D02*
G03*
X-51051Y18750I-2000J0D01*
G01*
X-22300Y13398D02*
G03*
X-22300Y13398I-2000J0D01*
G01*
X254500Y15000D02*
G03*
X254500Y15000I-2000J0D01*
G01*
X252000Y101000D02*
G03*
X252000Y101000I-2000J0D01*
G01*
X250000Y105500D02*
G03*
X250000Y105500I-2000J0D01*
G01*
X243500Y102500D02*
G03*
X243500Y102500I-2000J0D01*
G01*
X245500Y98000D02*
G03*
X245500Y98000I-2000J0D01*
G01*
X209000Y86000D02*
G03*
X209000Y86000I-2000J0D01*
G01*
X219500Y90000D02*
G03*
X219500Y90000I-2000J0D01*
G01*
X267000Y109500D02*
G03*
X267000Y109500I-2000J0D01*
G01*
X-280500Y42500D02*
G03*
X-280500Y42500I-2000J0D01*
G01*
X-268000Y-72500D02*
G03*
X-268000Y-72500I-2000J0D01*
G01*
X-220500Y-170000D02*
G03*
X-220500Y-170000I-2000J0D01*
G01*
X-138000Y-242500D02*
G03*
X-138000Y-242500I-2000J0D01*
G01*
X-33000Y-277500D02*
G03*
X-33000Y-277500I-2000J0D01*
G01*
X74500Y-270000D02*
G03*
X74500Y-270000I-2000J0D01*
G01*
X172000Y-220000D02*
G03*
X172000Y-220000I-2000J0D01*
G01*
X244500Y-137500D02*
G03*
X244500Y-137500I-2000J0D01*
G01*
X279500Y-35000D02*
G03*
X279500Y-35000I-2000J0D01*
G01*
X272000Y75000D02*
G03*
X272000Y75000I-2000J0D01*
G01*
X222000Y170000D02*
G03*
X222000Y170000I-2000J0D01*
G01*
X139500Y242500D02*
G03*
X139500Y242500I-2000J0D01*
G01*
X37000Y277500D02*
G03*
X37000Y277500I-2000J0D01*
G01*
X-70500Y270000D02*
G03*
X-70500Y270000I-2000J0D01*
G01*
X-168000Y222500D02*
G03*
X-168000Y222500I-2000J0D01*
G01*
X-240500Y140000D02*
G03*
X-240500Y140000I-2000J0D01*
G01*
X-223000Y27500D02*
G03*
X-223000Y27500I-2000J0D01*
G01*
X-185500Y42500D02*
G03*
X-185500Y42500I-2000J0D01*
G01*
X-196000Y111000D02*
G03*
X-196000Y111000I-2000J0D01*
G01*
X-155000Y114000D02*
G03*
X-155000Y114000I-2000J0D01*
G01*
X-138000Y179000D02*
G03*
X-138000Y179000I-2000J0D01*
G01*
X-100000Y165000D02*
G03*
X-100000Y165000I-2000J0D01*
G01*
X-59000Y218000D02*
G03*
X-59000Y218000I-2000J0D01*
G01*
X-30000Y191000D02*
G03*
X-30000Y191000I-2000J0D01*
G01*
X29000Y225000D02*
G03*
X29000Y225000I-2000J0D01*
G01*
X45000Y189000D02*
G03*
X45000Y189000I-2000J0D01*
G01*
X113000Y197000D02*
G03*
X113000Y197000I-2000J0D01*
G01*
X114000Y158000D02*
G03*
X114000Y158000I-2000J0D01*
G01*
X180000Y140000D02*
G03*
X180000Y140000I-2000J0D01*
G01*
X166000Y103000D02*
G03*
X166000Y103000I-2000J0D01*
G01*
X220166Y61000D02*
G03*
X220166Y61000I-2000J0D01*
G01*
X197000Y30000D02*
G03*
X197000Y30000I-2000J0D01*
G01*
X227000Y-27000D02*
G03*
X227000Y-27000I-2000J0D01*
G01*
X191000Y-43000D02*
G03*
X191000Y-43000I-2000J0D01*
G01*
X200000Y-111000D02*
G03*
X200000Y-111000I-2000J0D01*
G01*
X159000Y-113000D02*
G03*
X159000Y-113000I-2000J0D01*
G01*
X63000Y-218000D02*
G03*
X63000Y-218000I-2000J0D01*
G01*
X142000Y-178000D02*
G03*
X142000Y-178000I-2000J0D01*
G01*
X103000Y-166000D02*
G03*
X103000Y-166000I-2000J0D01*
G01*
X33000Y-192000D02*
G03*
X33000Y-192000I-2000J0D01*
G01*
X-26106Y-225106D02*
G03*
X-26106Y-225106I-2000J0D01*
G01*
X-109000Y-198000D02*
G03*
X-109000Y-198000I-2000J0D01*
G01*
X-111000Y-157000D02*
G03*
X-111000Y-157000I-2000J0D01*
G01*
X-43000Y-189000D02*
G03*
X-43000Y-189000I-2000J0D01*
G01*
X-176698Y-140000D02*
G03*
X-176698Y-140000I-2000J0D01*
G01*
X-216000Y-61000D02*
G03*
X-216000Y-61000I-2000J0D01*
G01*
X-161000Y-103000D02*
G03*
X-161000Y-103000I-2000J0D01*
G01*
X-187000Y-32000D02*
G03*
X-187000Y-32000I-2000J0D01*
G01*
X-142000Y-101000D02*
G03*
X-142000Y-101000I-2000J0D01*
G01*
X-176000Y-82000D02*
G03*
X-176000Y-82000I-2000J0D01*
G01*
X18000Y68000D02*
G03*
X18000Y68000I-2000J0D01*
G01*
X21000Y65000D02*
G03*
X21000Y65000I-2000J0D01*
G01*
X26500Y38500D02*
G03*
X26500Y38500I-2000J0D01*
G01*
X23500Y37000D02*
G03*
X23500Y37000I-2000J0D01*
G01*
Y62000D02*
G03*
X23500Y62000I-2000J0D01*
G01*
X24500Y70000D02*
G03*
X24500Y70000I-2000J0D01*
G01*
X27000Y67500D02*
G03*
X27000Y67500I-2000J0D01*
G01*
X29500Y65000D02*
G03*
X29500Y65000I-2000J0D01*
G01*
X42000Y70000D02*
G03*
X42000Y70000I-2000J0D01*
G01*
X44500Y67500D02*
G03*
X44500Y67500I-2000J0D01*
G01*
X47000Y65000D02*
G03*
X47000Y65000I-2000J0D01*
G01*
X99500Y52500D02*
G03*
X99500Y52500I-2000J0D01*
G01*
X77000Y82500D02*
G03*
X77000Y82500I-2000J0D01*
G01*
X74500Y85000D02*
G03*
X74500Y85000I-2000J0D01*
G01*
X72000Y87500D02*
G03*
X72000Y87500I-2000J0D01*
G01*
X153000Y96500D02*
G03*
X153000Y96500I-2000J0D01*
G01*
X-171500Y8500D02*
G03*
X-171500Y8500I-2000J0D01*
G01*
X-162500Y28760D02*
G03*
X-162500Y28760I-2000J0D01*
G01*
X-147000Y54500D02*
G03*
X-147000Y54500I-2000J0D01*
G01*
X-133500Y77500D02*
G03*
X-133500Y77500I-2000J0D01*
G01*
X-183000Y68500D02*
G03*
X-183000Y68500I-2000J0D01*
G01*
Y57000D02*
G03*
X-183000Y57000I-2000J0D01*
G01*
X186000Y68500D02*
G03*
X186000Y68500I-2000J0D01*
G01*
X178000Y60500D02*
G03*
X178000Y60500I-2000J0D01*
G01*
X-33000Y100500D02*
G03*
X-33000Y100500I-2000J0D01*
G01*
X53500Y97500D02*
G03*
X53500Y97500I-2000J0D01*
G01*
X129500Y49500D02*
G03*
X129500Y49500I-2000J0D01*
G01*
Y12500D02*
G03*
X129500Y12500I-2000J0D01*
G01*
X67000Y25000D02*
G03*
X67000Y25000I-2000J0D01*
G01*
X64500Y27500D02*
G03*
X64500Y27500I-2000J0D01*
G01*
X41500Y16000D02*
G03*
X41500Y16000I-2000J0D01*
G01*
X42000Y10000D02*
G03*
X42000Y10000I-2000J0D01*
G01*
Y5000D02*
G03*
X42000Y5000I-2000J0D01*
G01*
M02*
