G04 Layer_Color=16711935*
%FSLAX25Y25*%
%MOIN*%
G70*
G01*
G75*
%ADD131C,0.02500*%
%ADD132C,0.03000*%
%ADD133C,0.07000*%
%ADD134C,0.04724*%
G04:AMPARAMS|DCode=153|XSize=61.15mil|YSize=55.24mil|CornerRadius=0mil|HoleSize=0mil|Usage=FLASHONLY|Rotation=146.250|XOffset=0mil|YOffset=0mil|HoleType=Round|Shape=Rectangle|*
%AMROTATEDRECTD153*
4,1,4,0.04077,0.00598,0.01008,-0.03995,-0.04077,-0.00598,-0.01008,0.03995,0.04077,0.00598,0.0*
%
%ADD153ROTATEDRECTD153*%

G04:AMPARAMS|DCode=191|XSize=61.15mil|YSize=55.24mil|CornerRadius=0mil|HoleSize=0mil|Usage=FLASHONLY|Rotation=123.750|XOffset=0mil|YOffset=0mil|HoleType=Round|Shape=Rectangle|*
%AMROTATEDRECTD191*
4,1,4,0.03995,-0.01008,-0.00598,-0.04077,-0.03995,0.01008,0.00598,0.04077,0.03995,-0.01008,0.0*
%
%ADD191ROTATEDRECTD191*%

G04:AMPARAMS|DCode=197|XSize=61.15mil|YSize=55.24mil|CornerRadius=0mil|HoleSize=0mil|Usage=FLASHONLY|Rotation=135.000|XOffset=0mil|YOffset=0mil|HoleType=Round|Shape=Rectangle|*
%AMROTATEDRECTD197*
4,1,4,0.04115,-0.00209,0.00209,-0.04115,-0.04115,0.00209,-0.00209,0.04115,0.04115,-0.00209,0.0*
%
%ADD197ROTATEDRECTD197*%

G04:AMPARAMS|DCode=198|XSize=61.15mil|YSize=55.24mil|CornerRadius=0mil|HoleSize=0mil|Usage=FLASHONLY|Rotation=157.500|XOffset=0mil|YOffset=0mil|HoleType=Round|Shape=Rectangle|*
%AMROTATEDRECTD198*
4,1,4,0.03882,0.01382,0.01768,-0.03722,-0.03882,-0.01382,-0.01768,0.03722,0.03882,0.01382,0.0*
%
%ADD198ROTATEDRECTD198*%

G04:AMPARAMS|DCode=201|XSize=118.11mil|YSize=118.11mil|CornerRadius=59.06mil|HoleSize=0mil|Usage=FLASHONLY|Rotation=270.000|XOffset=0mil|YOffset=0mil|HoleType=Round|Shape=RoundedRectangle|*
%AMROUNDEDRECTD201*
21,1,0.11811,0.00000,0,0,270.0*
21,1,0.00000,0.11811,0,0,270.0*
1,1,0.11811,0.00000,0.00000*
1,1,0.11811,0.00000,0.00000*
1,1,0.11811,0.00000,0.00000*
1,1,0.11811,0.00000,0.00000*
%
%ADD201ROUNDEDRECTD201*%
G04:AMPARAMS|DCode=211|XSize=60.63mil|YSize=70.47mil|CornerRadius=0mil|HoleSize=0mil|Usage=FLASHONLY|Rotation=123.750|XOffset=0mil|YOffset=0mil|HoleType=Round|Shape=Rectangle|*
%AMROTATEDRECTD211*
4,1,4,0.04614,-0.00563,-0.01246,-0.04478,-0.04614,0.00563,0.01246,0.04478,0.04614,-0.00563,0.0*
%
%ADD211ROTATEDRECTD211*%

%ADD231C,0.08300*%
%ADD232C,0.09445*%
%ADD233P,0.09822X4X146.3*%
%ADD234C,0.06945*%
%ADD235C,0.16445*%
%ADD236P,0.09822X4X168.8*%
%ADD237P,0.09822X4X191.3*%
%ADD238P,0.09822X4X213.8*%
%ADD239P,0.09822X4X236.3*%
%ADD240P,0.09822X4X258.8*%
%ADD241P,0.09822X4X281.3*%
%ADD242P,0.09822X4X303.8*%
%ADD243C,0.16693*%
G04:AMPARAMS|DCode=244|XSize=206.3mil|YSize=206.3mil|CornerRadius=53.94mil|HoleSize=0mil|Usage=FLASHONLY|Rotation=90.000|XOffset=0mil|YOffset=0mil|HoleType=Round|Shape=RoundedRectangle|*
%AMROUNDEDRECTD244*
21,1,0.20630,0.09843,0,0,90.0*
21,1,0.09843,0.20630,0,0,90.0*
1,1,0.10787,0.04921,0.04921*
1,1,0.10787,0.04921,-0.04921*
1,1,0.10787,-0.04921,-0.04921*
1,1,0.10787,-0.04921,0.04921*
%
%ADD244ROUNDEDRECTD244*%
G04:AMPARAMS|DCode=245|XSize=251.57mil|YSize=251.57mil|CornerRadius=125.79mil|HoleSize=0mil|Usage=FLASHONLY|Rotation=78.750|XOffset=0mil|YOffset=0mil|HoleType=Round|Shape=RoundedRectangle|*
%AMROUNDEDRECTD245*
21,1,0.25157,0.00000,0,0,78.8*
21,1,0.00000,0.25157,0,0,78.8*
1,1,0.25157,0.00000,0.00000*
1,1,0.25157,0.00000,0.00000*
1,1,0.25157,0.00000,0.00000*
1,1,0.25157,0.00000,0.00000*
%
%ADD245ROUNDEDRECTD245*%
G04:AMPARAMS|DCode=246|XSize=251.57mil|YSize=251.57mil|CornerRadius=125.79mil|HoleSize=0mil|Usage=FLASHONLY|Rotation=11.250|XOffset=0mil|YOffset=0mil|HoleType=Round|Shape=RoundedRectangle|*
%AMROUNDEDRECTD246*
21,1,0.25157,0.00000,0,0,11.3*
21,1,0.00000,0.25157,0,0,11.3*
1,1,0.25157,0.00000,0.00000*
1,1,0.25157,0.00000,0.00000*
1,1,0.25157,0.00000,0.00000*
1,1,0.25157,0.00000,0.00000*
%
%ADD246ROUNDEDRECTD246*%
G04:AMPARAMS|DCode=247|XSize=86.58mil|YSize=86.58mil|CornerRadius=43.29mil|HoleSize=0mil|Usage=FLASHONLY|Rotation=22.500|XOffset=0mil|YOffset=0mil|HoleType=Round|Shape=RoundedRectangle|*
%AMROUNDEDRECTD247*
21,1,0.08658,0.00000,0,0,22.5*
21,1,0.00000,0.08658,0,0,22.5*
1,1,0.08658,0.00000,0.00000*
1,1,0.08658,0.00000,0.00000*
1,1,0.08658,0.00000,0.00000*
1,1,0.08658,0.00000,0.00000*
%
%ADD247ROUNDEDRECTD247*%
G04:AMPARAMS|DCode=248|XSize=88.19mil|YSize=88.19mil|CornerRadius=44.09mil|HoleSize=0mil|Usage=FLASHONLY|Rotation=22.500|XOffset=0mil|YOffset=0mil|HoleType=Round|Shape=RoundedRectangle|*
%AMROUNDEDRECTD248*
21,1,0.08819,0.00000,0,0,22.5*
21,1,0.00000,0.08819,0,0,22.5*
1,1,0.08819,0.00000,0.00000*
1,1,0.08819,0.00000,0.00000*
1,1,0.08819,0.00000,0.00000*
1,1,0.08819,0.00000,0.00000*
%
%ADD248ROUNDEDRECTD248*%
G04:AMPARAMS|DCode=249|XSize=86.58mil|YSize=86.58mil|CornerRadius=43.29mil|HoleSize=0mil|Usage=FLASHONLY|Rotation=337.500|XOffset=0mil|YOffset=0mil|HoleType=Round|Shape=RoundedRectangle|*
%AMROUNDEDRECTD249*
21,1,0.08658,0.00000,0,0,337.5*
21,1,0.00000,0.08658,0,0,337.5*
1,1,0.08658,0.00000,0.00000*
1,1,0.08658,0.00000,0.00000*
1,1,0.08658,0.00000,0.00000*
1,1,0.08658,0.00000,0.00000*
%
%ADD249ROUNDEDRECTD249*%
G04:AMPARAMS|DCode=250|XSize=88.19mil|YSize=88.19mil|CornerRadius=44.09mil|HoleSize=0mil|Usage=FLASHONLY|Rotation=337.500|XOffset=0mil|YOffset=0mil|HoleType=Round|Shape=RoundedRectangle|*
%AMROUNDEDRECTD250*
21,1,0.08819,0.00000,0,0,337.5*
21,1,0.00000,0.08819,0,0,337.5*
1,1,0.08819,0.00000,0.00000*
1,1,0.08819,0.00000,0.00000*
1,1,0.08819,0.00000,0.00000*
1,1,0.08819,0.00000,0.00000*
%
%ADD250ROUNDEDRECTD250*%
%ADD251C,0.01800*%
D131*
X109000Y-129000D02*
D03*
X115500Y-103000D02*
D03*
X27500Y-113500D02*
D03*
X-23000Y-103000D02*
D03*
X-38500Y-14000D02*
D03*
X-38250Y-24750D02*
D03*
X33500Y-60000D02*
D03*
X38500Y-67500D02*
D03*
X36000Y-65000D02*
D03*
X22000Y-54500D02*
D03*
X-3500Y-37000D02*
D03*
X-15500Y-39500D02*
D03*
X173000Y50000D02*
D03*
X57000Y137000D02*
D03*
X65000Y145000D02*
D03*
X82361Y123361D02*
D03*
X84000Y135000D02*
D03*
X105000Y105000D02*
D03*
X109000Y116000D02*
D03*
X136000Y91000D02*
D03*
X80000Y-124000D02*
D03*
X69500Y-107500D02*
D03*
X82000Y-99500D02*
D03*
X83000Y-120500D02*
D03*
X-42500Y-47500D02*
D03*
X-40000Y-40000D02*
D03*
X-67000Y-130000D02*
D03*
X52250Y-72250D02*
D03*
X-96500Y-130000D02*
D03*
X-116500D02*
D03*
X-96500Y-110000D02*
D03*
X-116500D02*
D03*
X-65000Y-109500D02*
D03*
X-60500Y-97500D02*
D03*
X-52500Y-57500D02*
D03*
Y-67500D02*
D03*
Y-62500D02*
D03*
X-55000Y-65000D02*
D03*
Y-60000D02*
D03*
X-59000Y-28000D02*
D03*
X-55000Y-23000D02*
D03*
X-41500Y-22500D02*
D03*
X-62500Y-112500D02*
D03*
X-57500Y-100000D02*
D03*
X-60000Y-115000D02*
D03*
X-47500Y-107500D02*
D03*
X-32500Y-90000D02*
D03*
X-40000Y-92500D02*
D03*
X57500Y-57500D02*
D03*
X272500Y112500D02*
D03*
X-4000Y-68000D02*
D03*
X-7500Y139000D02*
D03*
X-3500Y143000D02*
D03*
X232000Y-94500D02*
D03*
X5000Y-74500D02*
D03*
X43500Y-70000D02*
D03*
X46500Y-57500D02*
D03*
X-26500Y-60000D02*
D03*
Y-65000D02*
D03*
Y-70000D02*
D03*
X-29000Y-67500D02*
D03*
Y-62500D02*
D03*
Y-57500D02*
D03*
X-37500Y5500D02*
D03*
Y-30000D02*
D03*
X-42500Y-28500D02*
D03*
X-3500Y92000D02*
D03*
X26000Y110000D02*
D03*
X28500Y107500D02*
D03*
X31000Y105000D02*
D03*
X-3083Y-108417D02*
D03*
X0Y-110000D02*
D03*
X-5500Y-106000D02*
D03*
X-23500Y110000D02*
D03*
X-6500Y115000D02*
D03*
X-208602Y-4398D02*
D03*
X-188543Y-14457D02*
D03*
X-30000Y112500D02*
D03*
X0Y35500D02*
D03*
X-7500Y38500D02*
D03*
X11500D02*
D03*
X-35000Y35500D02*
D03*
X-10000Y-37500D02*
D03*
X11000Y-38500D02*
D03*
X36000Y-24000D02*
D03*
X3937Y-24563D02*
D03*
X46500Y-24000D02*
D03*
X77500Y-65000D02*
D03*
X-157500Y-70000D02*
D03*
Y-57500D02*
D03*
X-183500Y-58500D02*
D03*
X-190500Y-65500D02*
D03*
X41500Y-42500D02*
D03*
X39000Y-40000D02*
D03*
X41500Y-30000D02*
D03*
X39000Y-32500D02*
D03*
X122500Y-54000D02*
D03*
X127000Y-23000D02*
D03*
Y-13500D02*
D03*
X100500Y-89000D02*
D03*
X108000Y-91500D02*
D03*
X149500Y-31000D02*
D03*
X209500Y3500D02*
D03*
X-40000Y-67500D02*
D03*
Y-62500D02*
D03*
X-37500Y-60000D02*
D03*
Y-65000D02*
D03*
X22500Y-70000D02*
D03*
X47500D02*
D03*
X20000Y-67500D02*
D03*
X22500Y-65000D02*
D03*
X17500Y-57500D02*
D03*
X20000Y-60000D02*
D03*
X72500Y5000D02*
D03*
X77500D02*
D03*
Y15000D02*
D03*
X80000Y25000D02*
D03*
X82500Y27500D02*
D03*
X93000Y42500D02*
D03*
X-47500Y-145000D02*
D03*
X-52500D02*
D03*
X-50000Y-160000D02*
D03*
X-45000D02*
D03*
X22500Y102500D02*
D03*
X14000Y94000D02*
D03*
X0Y40000D02*
D03*
X41000Y-13000D02*
D03*
X20000Y-37500D02*
D03*
X-245000Y62500D02*
D03*
X-262500D02*
D03*
X-202500Y150000D02*
D03*
X-217500Y157500D02*
D03*
X-130000Y217500D02*
D03*
X-140000Y227500D02*
D03*
X-35000Y250000D02*
D03*
X-42500Y265000D02*
D03*
X62500Y242500D02*
D03*
Y260000D02*
D03*
X152500Y202500D02*
D03*
X157500Y217500D02*
D03*
X217500Y130000D02*
D03*
X230000Y140000D02*
D03*
X247500Y35000D02*
D03*
X267500Y42500D02*
D03*
X-140000Y62500D02*
D03*
X-132500Y50000D02*
D03*
X-152500Y-70000D02*
D03*
Y-57500D02*
D03*
X-60000Y-242500D02*
D03*
X-62500Y-260000D02*
D03*
X-150000Y-200000D02*
D03*
X-157500Y-217500D02*
D03*
X-217500Y-130000D02*
D03*
X-230000Y-142500D02*
D03*
X-250000Y-37500D02*
D03*
X-267500Y-42500D02*
D03*
X42500Y-265000D02*
D03*
X130000Y-217500D02*
D03*
X142500Y-230000D02*
D03*
X202500Y-150000D02*
D03*
X217500Y-157500D02*
D03*
X235000Y-87500D02*
D03*
Y-92500D02*
D03*
X227600Y-102500D02*
D03*
X230000Y-97500D02*
D03*
X242500Y-62500D02*
D03*
X262500D02*
D03*
X37500Y-247500D02*
D03*
X-27500Y107500D02*
D03*
X5000Y112500D02*
D03*
X2500Y110000D02*
D03*
X0Y107500D02*
D03*
X-7500Y120000D02*
D03*
X-30000Y105000D02*
D03*
X2500Y-112500D02*
D03*
X5000Y-115000D02*
D03*
X15000Y-92500D02*
D03*
Y-100000D02*
D03*
X20000Y-97500D02*
D03*
X67500Y45000D02*
D03*
X70000Y42500D02*
D03*
X77500Y47500D02*
D03*
X20000Y20000D02*
D03*
X-5000Y-5000D02*
D03*
X5000D02*
D03*
Y5000D02*
D03*
X-5000D02*
D03*
X57500Y52500D02*
D03*
X50000Y42500D02*
D03*
X55000Y22500D02*
D03*
X52500Y45000D02*
D03*
X27500Y-105000D02*
D03*
X75000Y-67500D02*
D03*
X-12500Y-57500D02*
D03*
X-14976Y-60000D02*
D03*
X-136000Y-28000D02*
D03*
X-131000Y-23000D02*
D03*
X-129000Y-6000D02*
D03*
X-123500Y-7500D02*
D03*
X-42500Y0D02*
D03*
X-40000Y2500D02*
D03*
X-20000D02*
D03*
X-17500Y0D02*
D03*
X-12500Y-62500D02*
D03*
X-10000Y-65000D02*
D03*
X-7500Y-67500D02*
D03*
X-147500Y-12500D02*
D03*
Y-17500D02*
D03*
X-40000Y-2500D02*
D03*
X-42500Y-5000D02*
D03*
X-20000Y-2500D02*
D03*
X-17500Y-5000D02*
D03*
X-35000Y-40000D02*
D03*
X-20000Y-7500D02*
D03*
X-17500Y-10000D02*
D03*
X-40000Y-7500D02*
D03*
X-42500Y-10000D02*
D03*
X-30000Y-35000D02*
D03*
X20000Y-7500D02*
D03*
X22500Y-5000D02*
D03*
X37500D02*
D03*
X40000Y-2500D02*
D03*
X-72500Y112500D02*
D03*
X-80000D02*
D03*
X-72500Y127500D02*
D03*
X-77500Y130000D02*
D03*
X45000Y157500D02*
D03*
X47500Y155000D02*
D03*
X20000Y150000D02*
D03*
X25000D02*
D03*
X50000Y-117500D02*
D03*
X46464Y-113964D02*
D03*
X35000Y-137500D02*
D03*
X40000D02*
D03*
X-17500Y39500D02*
D03*
X-39000Y10000D02*
D03*
X-27000Y-40000D02*
D03*
X32500Y72500D02*
D03*
X-197500Y-984D02*
D03*
X-147500Y-2500D02*
D03*
X-82500Y-80000D02*
D03*
X-57500Y-75000D02*
D03*
X-36250Y-76949D02*
D03*
X-10000Y-90551D02*
D03*
X5000Y-90000D02*
D03*
X112500Y35571D02*
D03*
X97500Y120000D02*
D03*
X71069Y134822D02*
D03*
X160000Y-53073D02*
D03*
X-17000Y-52000D02*
D03*
X-9500Y-54500D02*
D03*
X-3000D02*
D03*
X3500D02*
D03*
X9500D02*
D03*
X-21000Y-77000D02*
D03*
X24000Y-107500D02*
D03*
X44500D02*
D03*
X41500Y-96500D02*
D03*
X-24000Y-113500D02*
D03*
X-6890Y-123110D02*
D03*
X-4500Y-141500D02*
D03*
X5000D02*
D03*
X8000Y-123500D02*
D03*
X-26250Y-165551D02*
D03*
X0Y-200000D02*
D03*
X-30000Y-187000D02*
D03*
X-38000Y-217500D02*
D03*
X-42529Y-230959D02*
D03*
X-78000Y-263000D02*
D03*
X-28500Y-273000D02*
D03*
X33750Y-175551D02*
D03*
X44000Y-183500D02*
D03*
X48500Y-215000D02*
D03*
X49478Y-230077D02*
D03*
X29000Y-272000D02*
D03*
X78000Y-263000D02*
D03*
X131000Y-240500D02*
D03*
X172500Y-213000D02*
D03*
X134000Y-193749D02*
D03*
X127500Y-179500D02*
D03*
X106000Y-155000D02*
D03*
X159000Y-99000D02*
D03*
X186500Y-28000D02*
D03*
X186000Y36500D02*
D03*
X151000Y111000D02*
D03*
X98000Y161000D02*
D03*
X31000Y185500D02*
D03*
X-42000Y183500D02*
D03*
X-109000Y153000D02*
D03*
X-157500Y102500D02*
D03*
X-185000Y27500D02*
D03*
X-183500Y-44500D02*
D03*
X-151000Y-111000D02*
D03*
X-99000Y-155500D02*
D03*
X-118000Y-186500D02*
D03*
X-181000Y-127000D02*
D03*
X-216000Y-48000D02*
D03*
X-218000Y38000D02*
D03*
X-186500Y118000D02*
D03*
X-127000Y180500D02*
D03*
X-48500Y215500D02*
D03*
X38500Y218000D02*
D03*
X118500Y187000D02*
D03*
X181000Y127500D02*
D03*
X215500Y48500D02*
D03*
X218000Y-38000D02*
D03*
X186500Y-118500D02*
D03*
X197500Y-128386D02*
D03*
X231564Y-42000D02*
D03*
X230000Y49865D02*
D03*
X193500Y134373D02*
D03*
X127500Y197592D02*
D03*
X42500Y231465D02*
D03*
X-49500Y230073D02*
D03*
X-133000Y194083D02*
D03*
X-197926Y127000D02*
D03*
X-231500Y42000D02*
D03*
X-230073Y-49500D02*
D03*
X-193749Y-134000D02*
D03*
X-127000Y-197926D02*
D03*
X-172000Y-212500D02*
D03*
X-130500Y-240500D02*
D03*
X-240500Y-130500D02*
D03*
X-212500Y-172000D02*
D03*
X-272000Y-28500D02*
D03*
X-262500Y-77500D02*
D03*
X-272500Y29000D02*
D03*
X-262000Y78000D02*
D03*
X-213000Y172500D02*
D03*
X-241000Y131000D02*
D03*
X-173000Y213500D02*
D03*
X-131000Y241000D02*
D03*
X-77500Y263000D02*
D03*
X-29000Y272500D02*
D03*
X29000Y272000D02*
D03*
X77500Y263000D02*
D03*
X131000Y240500D02*
D03*
X172000Y212500D02*
D03*
X240500Y130500D02*
D03*
X213000Y172500D02*
D03*
X272500Y29000D02*
D03*
X262500Y78000D02*
D03*
X263000Y-78000D02*
D03*
X272500Y-28500D02*
D03*
X264500Y-85500D02*
D03*
X290500Y-96500D02*
D03*
X247500Y-126500D02*
D03*
X273500Y-137500D02*
D03*
X213000Y-172500D02*
D03*
X241000Y-131000D02*
D03*
X-224000Y-92624D02*
D03*
X-188500Y-80000D02*
D03*
X-185000Y-70000D02*
D03*
X-147500Y-95000D02*
D03*
X-102500Y-73760D02*
D03*
X-82500D02*
D03*
X-97500Y-35000D02*
D03*
X-115500D02*
D03*
Y-15000D02*
D03*
X-97500D02*
D03*
Y5000D02*
D03*
X-115500D02*
D03*
X-97500Y25000D02*
D03*
X-115500D02*
D03*
Y45000D02*
D03*
X-97500D02*
D03*
X-152500Y-35000D02*
D03*
X-127500Y63000D02*
D03*
X-129000Y50000D02*
D03*
X-164500Y35861D02*
D03*
X-138000Y42500D02*
D03*
X-132500Y61000D02*
D03*
X-224000Y92500D02*
D03*
X-188431Y80082D02*
D03*
X-292000Y100500D02*
D03*
X-288500Y108000D02*
D03*
X-26500Y165500D02*
D03*
X-34000D02*
D03*
X0Y195500D02*
D03*
Y182000D02*
D03*
X26500Y165500D02*
D03*
X-93000Y93000D02*
D03*
X-102500Y102500D02*
D03*
X-44000Y95000D02*
D03*
X-48760Y72500D02*
D03*
X-35000Y56000D02*
D03*
X-19000Y54000D02*
D03*
X2500Y54500D02*
D03*
X10000D02*
D03*
X22500D02*
D03*
X-7000D02*
D03*
X53051Y13750D02*
D03*
Y6250D02*
D03*
Y-16250D02*
D03*
X53000Y-24000D02*
D03*
X120500Y84500D02*
D03*
X100500Y89500D02*
D03*
X80000Y106000D02*
D03*
X58000Y119000D02*
D03*
X1500Y125000D02*
D03*
X8500Y140000D02*
D03*
X9000Y118500D02*
D03*
X19500Y101000D02*
D03*
X7500Y92500D02*
D03*
X3500D02*
D03*
X-7000Y90500D02*
D03*
X-165610Y-8610D02*
D03*
X-158043Y-16043D02*
D03*
X-196000Y2500D02*
D03*
X-130500Y-2500D02*
D03*
Y-10000D02*
D03*
X-134500Y11500D02*
D03*
X-280000Y-127500D02*
D03*
X-277500Y-135500D02*
D03*
X75000Y-156000D02*
D03*
X97000Y-95500D02*
D03*
X101500Y-108000D02*
D03*
X106000Y-77500D02*
D03*
X107000Y-74500D02*
D03*
X125500Y-66000D02*
D03*
X146000Y-62000D02*
D03*
X159555Y-82537D02*
D03*
X166000Y-71500D02*
D03*
X137500Y-52000D02*
D03*
X124000Y-28671D02*
D03*
X251500Y-97000D02*
D03*
X213500Y-100500D02*
D03*
X212500Y-10000D02*
D03*
X186500Y-11500D02*
D03*
X193500D02*
D03*
Y-15500D02*
D03*
X186500D02*
D03*
X190000Y-18000D02*
D03*
X164000D02*
D03*
X171000D02*
D03*
X167500Y-8000D02*
D03*
X143500Y9000D02*
D03*
X117500Y14000D02*
D03*
X147500Y15500D02*
D03*
X159000Y31500D02*
D03*
X132500Y36260D02*
D03*
X117500Y47000D02*
D03*
X102500Y50000D02*
D03*
X99500Y62500D02*
D03*
X109500D02*
D03*
X90000Y37000D02*
D03*
X-5000Y73000D02*
D03*
X21250Y76949D02*
D03*
X-57500Y-15000D02*
D03*
X-53000Y11000D02*
D03*
X-53051Y18750D02*
D03*
X-24300Y13398D02*
D03*
X252500Y15000D02*
D03*
X250000Y101000D02*
D03*
X248000Y105500D02*
D03*
X241500Y102500D02*
D03*
X243500Y98000D02*
D03*
X207000Y86000D02*
D03*
X217500Y90000D02*
D03*
X265000Y109500D02*
D03*
X-282500Y42500D02*
D03*
X-270000Y-72500D02*
D03*
X-222500Y-170000D02*
D03*
X-140000Y-242500D02*
D03*
X-35000Y-277500D02*
D03*
X72500Y-270000D02*
D03*
X170000Y-220000D02*
D03*
X242500Y-137500D02*
D03*
X277500Y-35000D02*
D03*
X270000Y75000D02*
D03*
X220000Y170000D02*
D03*
X137500Y242500D02*
D03*
X35000Y277500D02*
D03*
X-72500Y270000D02*
D03*
X-170000Y222500D02*
D03*
X-242500Y140000D02*
D03*
X-225000Y27500D02*
D03*
X-187500Y42500D02*
D03*
X-198000Y111000D02*
D03*
X-157000Y114000D02*
D03*
X-140000Y179000D02*
D03*
X-102000Y165000D02*
D03*
X-61000Y218000D02*
D03*
X-32000Y191000D02*
D03*
X27000Y225000D02*
D03*
X43000Y189000D02*
D03*
X111000Y197000D02*
D03*
X112000Y158000D02*
D03*
X178000Y140000D02*
D03*
X164000Y103000D02*
D03*
X218166Y61000D02*
D03*
X195000Y30000D02*
D03*
X225000Y-27000D02*
D03*
X189000Y-43000D02*
D03*
X198000Y-111000D02*
D03*
X157000Y-113000D02*
D03*
X61000Y-218000D02*
D03*
X140000Y-178000D02*
D03*
X101000Y-166000D02*
D03*
X31000Y-192000D02*
D03*
X-28106Y-225106D02*
D03*
X-111000Y-198000D02*
D03*
X-113000Y-157000D02*
D03*
X-45000Y-189000D02*
D03*
X-178698Y-140000D02*
D03*
X-218000Y-61000D02*
D03*
X-163000Y-103000D02*
D03*
X-189000Y-32000D02*
D03*
X-144000Y-101000D02*
D03*
X-178000Y-82000D02*
D03*
X16000Y68000D02*
D03*
X19000Y65000D02*
D03*
X24500Y38500D02*
D03*
X21500Y37000D02*
D03*
Y62000D02*
D03*
X22500Y70000D02*
D03*
X25000Y67500D02*
D03*
X27500Y65000D02*
D03*
X40000Y70000D02*
D03*
X42500Y67500D02*
D03*
X45000Y65000D02*
D03*
X97500Y52500D02*
D03*
X75000Y82500D02*
D03*
X72500Y85000D02*
D03*
X70000Y87500D02*
D03*
X151000Y96500D02*
D03*
X-173500Y8500D02*
D03*
X-164500Y28760D02*
D03*
X-149000Y54500D02*
D03*
X-135500Y77500D02*
D03*
X-185000Y68500D02*
D03*
Y57000D02*
D03*
X184000Y68500D02*
D03*
X176000Y60500D02*
D03*
X-35000Y100500D02*
D03*
X51500Y97500D02*
D03*
X127500Y49500D02*
D03*
Y12500D02*
D03*
X65000Y25000D02*
D03*
X62500Y27500D02*
D03*
X39500Y16000D02*
D03*
X40000Y10000D02*
D03*
Y5000D02*
D03*
D132*
X196568Y83000D02*
D03*
X-21250Y-83051D02*
D03*
D133*
X-9000Y-278000D02*
D03*
X10000Y277500D02*
D03*
X-280000Y-10000D02*
D03*
D134*
X0Y0D02*
D03*
D153*
X84534Y126514D02*
D03*
X88690Y132734D02*
D03*
D191*
X126514Y84534D02*
D03*
X132734Y88690D02*
D03*
D197*
X107591Y107591D02*
D03*
X112881Y112881D02*
D03*
D198*
X58228Y140575D02*
D03*
X61091Y147486D02*
D03*
D201*
X0Y302000D02*
D03*
X-302000Y0D02*
D03*
X0Y-302000D02*
D03*
D211*
X69902Y-138136D02*
D03*
X95927Y-120747D02*
D03*
X79745Y-152867D02*
D03*
X105770Y-135478D02*
D03*
D231*
X271603Y-103127D02*
D03*
X264974Y-119131D02*
D03*
D232*
X-306648Y-33459D02*
D03*
X-296110Y-86437D02*
D03*
X-270502Y-148261D02*
D03*
X-240492Y-193174D02*
D03*
X-193174Y-240492D02*
D03*
X-148261Y-270502D02*
D03*
X-86437Y-296110D02*
D03*
X-33459Y-306648D02*
D03*
X33459Y-306648D02*
D03*
X86437Y-296110D02*
D03*
X148261Y-270502D02*
D03*
X193174Y-240492D02*
D03*
X240492Y-193174D02*
D03*
X270502Y-148261D02*
D03*
X296110Y-86437D02*
D03*
X306648Y-33459D02*
D03*
X193174Y240492D02*
D03*
X148261Y270502D02*
D03*
X270502Y148261D02*
D03*
X240492Y193174D02*
D03*
X306648Y33459D02*
D03*
X296110Y86437D02*
D03*
X-296110Y86437D02*
D03*
X-306648Y33459D02*
D03*
X-240492Y193174D02*
D03*
X-270502Y148261D02*
D03*
X-148262Y270502D02*
D03*
X-193175Y240492D02*
D03*
X-33459Y306648D02*
D03*
X-86437Y296110D02*
D03*
X86437Y296110D02*
D03*
X33459Y306648D02*
D03*
D233*
X-263619Y-60084D02*
D03*
X263619Y60084D02*
D03*
D234*
X-254787Y-53229D02*
D03*
X-265570Y-50276D02*
D03*
X-256738Y-43421D02*
D03*
X-215022Y-146680D02*
D03*
X-226115Y-148078D02*
D03*
X-220578Y-138365D02*
D03*
X-142523Y-217800D02*
D03*
X-152236Y-223337D02*
D03*
X-150837Y-212245D02*
D03*
X-48325Y-255762D02*
D03*
X-55180Y-264595D02*
D03*
X-58133Y-253811D02*
D03*
X53229Y-254787D02*
D03*
X50276Y-265570D02*
D03*
X43421Y-256738D02*
D03*
X146680Y-215022D02*
D03*
X148078Y-226115D02*
D03*
X138365Y-220578D02*
D03*
X217800Y-142523D02*
D03*
X223337Y-152236D02*
D03*
X212245Y-150837D02*
D03*
X255762Y-48325D02*
D03*
X264595Y-55180D02*
D03*
X253811Y-58133D02*
D03*
X142523Y217800D02*
D03*
X152236Y223337D02*
D03*
X150837Y212245D02*
D03*
X215022Y146680D02*
D03*
X226115Y148078D02*
D03*
X220578Y138365D02*
D03*
X254787Y53229D02*
D03*
X265570Y50276D02*
D03*
X256738Y43421D02*
D03*
X-255762Y48325D02*
D03*
X-264595Y55180D02*
D03*
X-253811Y58133D02*
D03*
X-217800Y142523D02*
D03*
X-223337Y152236D02*
D03*
X-212245Y150837D02*
D03*
X-146681Y215022D02*
D03*
X-148079Y226115D02*
D03*
X-138366Y220578D02*
D03*
X-53229Y254787D02*
D03*
X-50276Y265570D02*
D03*
X-43421Y256738D02*
D03*
X48325Y255762D02*
D03*
X55180Y264595D02*
D03*
X58133Y253811D02*
D03*
D235*
X-293504Y-37990D02*
D03*
X-285700Y-77221D02*
D03*
X-256624Y-147417D02*
D03*
X-234401Y-180676D02*
D03*
X-180676Y-234401D02*
D03*
X-147417Y-256624D02*
D03*
X-77221Y-285700D02*
D03*
X-37990Y-293504D02*
D03*
X37990D02*
D03*
X77221Y-285700D02*
D03*
X147417Y-256624D02*
D03*
X180676Y-234401D02*
D03*
X234401Y-180676D02*
D03*
X256624Y-147417D02*
D03*
X285700Y-77221D02*
D03*
X293504Y-37990D02*
D03*
X180676Y234401D02*
D03*
X147417Y256624D02*
D03*
X256624Y147417D02*
D03*
X234401Y180676D02*
D03*
X293504Y37990D02*
D03*
X285700Y77221D02*
D03*
X-285700Y77221D02*
D03*
X-293504Y37990D02*
D03*
X-234401Y180676D02*
D03*
X-256624Y147417D02*
D03*
X-147418Y256624D02*
D03*
X-180677Y234401D02*
D03*
X-37990Y293504D02*
D03*
X-77221Y285700D02*
D03*
X77221Y285700D02*
D03*
X37990Y293504D02*
D03*
D236*
X-220559Y-156393D02*
D03*
X220559Y156393D02*
D03*
D237*
X-143921Y-228893D02*
D03*
X143921Y228893D02*
D03*
D238*
X-45372Y-266546D02*
D03*
X45372Y266546D02*
D03*
D239*
X60084Y-263619D02*
D03*
X-60084Y263619D02*
D03*
D240*
X156393Y-220559D02*
D03*
X-156394Y220559D02*
D03*
D241*
X228893Y-143921D02*
D03*
X-228893Y143921D02*
D03*
D242*
X266546Y-45372D02*
D03*
X-266546Y45372D02*
D03*
D243*
X284205Y18898D02*
D03*
X297000Y0D02*
D03*
D244*
X272394Y0D02*
D03*
D245*
X210000Y210000D02*
D03*
Y-210000D02*
D03*
X-210000D02*
D03*
D246*
Y210000D02*
D03*
D247*
X-258001Y-107001D02*
D03*
D248*
X-283463Y-117547D02*
D03*
D249*
X-258000Y107000D02*
D03*
D250*
X-283461Y117546D02*
D03*
D251*
X141000Y-114000D02*
D03*
X109000Y-115000D02*
D03*
X136000Y-113000D02*
D03*
X124500Y-103000D02*
D03*
X228000Y-81000D02*
D03*
M02*
